<svg width="32" height="32" viewBox="0 0 32 32" fill="none" xmlns="http://www.w3.org/2000/svg">
<path d="M25.6041 25.0513C24.8241 25.0513 24.1941 25.6813 24.1941 26.4513C24.1941 27.2213 24.8241 27.8513 25.6041 27.8513C26.3841 27.8513 27.0141 27.2213 27.0141 26.4513C27.0141 25.6813 26.3841 25.0513 25.6041 25.0513Z" fill="#333333"/>
<path d="M31.8241 25.7813C31.8241 24.4713 31.2741 23.5913 30.6941 23.1313C30.2041 22.7313 29.7541 22.6213 29.5841 22.5813L26.0941 21.5813H26.0441C25.5641 21.4613 25.1241 21.4213 24.7041 21.4213C23.2141 21.4213 22.1341 22.0413 21.4841 22.6513C20.8241 23.2613 20.5541 23.8613 20.5241 23.9213C20.4841 24.0213 20.2541 24.6313 20.1541 25.9313C20.1541 25.9313 20.1341 25.9313 20.1241 25.9313C19.5341 25.9713 18.5941 26.0213 17.5341 26.0813V26.0313H17.5241C17.5141 25.7713 17.4141 25.5013 17.2541 25.3213C16.9941 25.0313 16.7141 24.9513 16.4941 24.9013C16.2741 24.8513 16.1041 24.8513 16.0041 24.8513H15.9341L10.9041 25.0313C10.7241 25.0313 10.5341 25.0713 10.3641 25.1613C10.0841 25.2913 9.90409 25.5413 9.82409 25.7413C9.74409 25.9513 9.73409 26.1113 9.73409 26.2413C9.73409 26.3113 9.73409 26.3713 9.74409 26.4113V26.4813C9.65409 26.4813 9.55409 26.4813 9.46409 26.4813C8.89409 26.4813 8.46409 26.4213 8.17409 26.3613C8.03409 26.3313 7.92409 26.3013 7.86409 26.2813L7.79409 26.2613H7.78409L7.72409 26.2413L4.81409 25.4213L7.56409 14.3113L9.48409 12.7213C9.56409 12.6513 9.74409 12.4913 9.92409 12.2013C10.1341 11.8713 10.3141 11.3613 10.3141 10.7213V10.5213L10.0141 7.68126C9.97409 7.27126 9.60409 6.97126 9.19409 7.01126C8.78409 7.05126 8.48409 7.42126 8.52409 7.83126L8.82409 10.6413V10.7113C8.82409 11.0813 8.73409 11.2913 8.65409 11.4113L8.56409 11.5313H8.55409V11.5413H8.53409L6.85409 12.9413L3.91409 7.40126C3.72409 7.03126 3.27409 6.89126 2.90409 7.09126C2.53409 7.29126 2.39409 7.74126 2.59409 8.10126L5.62409 13.8313C5.62409 13.8313 5.59409 13.8613 5.59409 13.8813L0.444086 24.6413C0.374086 24.7213 0.324086 24.8113 0.294086 24.9113C0.294086 24.9213 0.294086 24.9413 0.294086 24.9513L0.0740859 25.4013C-0.105914 25.7713 0.0540859 26.2213 0.424086 26.4013C0.794086 26.5813 1.24409 26.4213 1.42409 26.0513L1.44409 26.0213L2.99409 26.4613L2.66409 27.7913C2.31409 27.7913 1.98409 27.9013 1.74409 28.0613C1.36409 28.3013 1.15409 28.6213 1.02409 28.8613C0.894086 29.1113 0.844086 29.2913 0.834086 29.3313V29.3713L0.554086 30.6313C0.544086 30.6813 0.524086 30.7413 0.524086 30.7913C0.524086 30.8913 0.544086 30.9913 0.584086 31.0813C0.664086 31.2613 0.804086 31.4113 0.984086 31.4813C1.04409 31.5113 1.11409 31.5113 1.18409 31.5213C1.21409 31.5213 1.24409 31.5413 1.27409 31.5413L6.18409 31.5113L21.3141 31.3313H30.0541C30.1441 31.3313 30.2441 31.3113 30.3341 31.2813C30.9941 31.0213 31.4041 30.5313 31.5941 30.0813C31.7941 29.6313 31.8141 29.2313 31.8241 28.9913C31.8241 28.9213 31.8241 28.8713 31.8241 28.8413V25.7813ZM2.10409 24.6413L4.88409 18.8113L3.35409 24.9913L2.10409 24.6413ZM6.81409 29.9913L6.69409 29.2713C6.63409 28.9513 6.51409 28.6713 6.33409 28.4513C6.07409 28.1213 5.73409 27.9513 5.45409 27.8713C5.17409 27.7813 4.93409 27.7713 4.78409 27.7713C4.73409 27.7713 4.69409 27.7713 4.66409 27.7713H4.21409L4.44409 26.8513L7.28409 27.6513C7.46409 27.7113 8.22409 27.9613 9.45409 27.9613C9.84409 27.9613 10.2941 27.9313 10.7741 27.8713C10.9341 27.8713 13.2941 27.7613 15.7041 27.6513C16.9541 27.5913 18.2041 27.5313 19.1741 27.4713C19.5341 27.4513 19.8341 27.4313 20.1041 27.4113C20.1041 27.5413 20.1041 27.6613 20.1041 27.8013L20.1341 29.8213L6.80409 29.9813L6.81409 29.9913ZM25.6041 29.3513C24.0041 29.3513 22.6941 28.0613 22.6941 26.4513C22.6941 24.8513 24.0041 23.5613 25.6041 23.5513C27.2041 23.5513 28.5141 24.8413 28.5141 26.4513C28.5141 28.0513 27.2041 29.3413 25.6041 29.3513Z" fill="#333333"/>
</svg>
