<svg width="32" height="25" viewBox="0 0 32 25" fill="none" xmlns="http://www.w3.org/2000/svg">
<path d="M3.015 21.6468C2.94858 21.9148 3.11203 22.186 3.38007 22.2524C3.6481 22.3188 3.91923 22.1553 3.98565 21.8873L3.015 21.6468ZM7.56638 7.43666C7.63279 7.16863 7.46935 6.8975 7.20131 6.83108C6.93327 6.76467 6.66215 6.92811 6.59573 7.19615L7.56638 7.43666ZM1.51776 24.0259V24.5259C1.75289 24.5259 1.95625 24.3621 2.0063 24.1324L1.51776 24.0259ZM1.79216 22.7665L1.30962 22.6355C1.30742 22.6437 1.30541 22.6518 1.30362 22.6601L1.79216 22.7665ZM4.92813 21.7798V22.2798C4.94504 22.2798 4.96193 22.2789 4.97875 22.2772L4.92813 21.7798ZM6.19559 22.6497L6.68864 22.5662L6.6871 22.5579L6.19559 22.6497ZM6.42425 24L6.4269 24.5L6.43025 24.4999L6.42425 24ZM1.51123 24.0259L1.50859 23.5259C1.23296 23.5274 1.0105 23.7516 1.01123 24.0272C1.01196 24.3029 1.2356 24.5259 1.51123 24.5259L1.51123 24.0259ZM21.1053 21.0463L21.6053 21.0381L21.605 21.0285L21.1053 21.0463ZM21.151 23.8183L20.6511 23.8265C20.6556 24.0994 20.8781 24.3183 21.151 24.3183V23.8183ZM30.3042 23.8183V24.3183C30.3679 24.3183 30.431 24.3061 30.4902 24.2824L30.3042 23.8183ZM31.3168 22.098H30.8168C30.8168 22.1161 30.8178 22.1341 30.8198 22.1521L31.3168 22.098ZM31.3168 19.0274L31.8169 19.0274L31.8168 19.0215L31.3168 19.0274ZM29.6312 16.554L29.4932 17.0346C29.5137 17.0405 29.5347 17.0451 29.5558 17.0483L29.6312 16.554ZM26.1294 15.5478L26.2675 15.0672C26.257 15.0642 26.2465 15.0616 26.2358 15.0593L26.1294 15.5478ZM21.4516 17.4694L20.9967 17.2616L20.9926 17.271L21.4516 17.4694ZM6.95635 7.66237C7.07535 7.41318 6.96981 7.11471 6.72062 6.99571C6.47143 6.87671 6.17296 6.98225 6.05396 7.23144L6.95635 7.66237ZM0.548806 18.7596C0.429809 19.0088 0.53535 19.3073 0.784537 19.4263C1.03372 19.5453 1.3322 19.4397 1.45119 19.1905L0.548806 18.7596ZM3.94246 0.766578C3.8135 0.522398 3.51101 0.428994 3.26683 0.557954C3.02265 0.686914 2.92924 0.989404 3.0582 1.23358L3.94246 0.766578ZM6.18624 7.15638C6.3152 7.40056 6.61769 7.49396 6.86187 7.365C7.10605 7.23604 7.19945 6.93355 7.07049 6.68937L6.18624 7.15638ZM1.39888 17.884C1.13311 17.8091 0.856895 17.9638 0.781949 18.2295C0.707003 18.4953 0.861702 18.7715 1.12748 18.8465L1.39888 17.884ZM7.7552 20.1959L7.93591 19.7297C7.92115 19.724 7.90613 19.719 7.8909 19.7147L7.7552 20.1959ZM10.9691 20.3777L10.9479 19.8781C10.9321 19.8788 10.9164 19.8802 10.9008 19.8824L10.9691 20.3777ZM21.2581 20.3237C21.5187 20.2324 21.656 19.9471 21.5646 19.6865C21.4733 19.4259 21.188 19.2887 20.9274 19.38L21.2581 20.3237ZM6.57624 6.93127C6.3635 7.10733 6.33376 7.42251 6.50982 7.63525C6.68588 7.84799 7.00106 7.87773 7.2138 7.70167L6.57624 6.93127ZM9.24047 5.37544L8.94734 4.97037C8.93858 4.97671 8.93002 4.98334 8.92168 4.99024L9.24047 5.37544ZM9.79579 3.83689L10.2954 3.81619C10.2949 3.80551 10.2941 3.79485 10.293 3.78422L9.79579 3.83689ZM9.99248 0.947326C9.96339 0.672721 9.71719 0.473691 9.44259 0.502782C9.16798 0.531873 8.96895 0.778068 8.99804 1.05267L9.99248 0.947326ZM10.7319 20.3869L10.232 20.3963L10.2418 20.9095L10.7545 20.8863L10.7319 20.3869ZM10.7189 19.6987L11.2188 19.6892L11.2182 19.6592L11.214 19.6294L10.7189 19.6987ZM11.1631 18.9587L11.1572 19.4586L11.1692 19.4588L11.1812 19.4583L11.1631 18.9587ZM16.1937 18.7769L16.2118 19.2767L16.225 19.2759L16.1937 18.7769ZM17.0169 19.4326L16.517 19.428L16.5168 19.4449L16.5178 19.4618L17.0169 19.4326ZM17.0561 20.1012L17.0787 20.6007L17.5849 20.5778L17.5553 20.072L17.0561 20.1012ZM21.5614 24.3183C21.8375 24.315 22.0587 24.0885 22.0554 23.8124C22.052 23.5362 21.8255 23.3151 21.5494 23.3184L21.5614 24.3183ZM3.98565 21.8873L7.56638 7.43666L6.59573 7.19615L3.015 21.6468L3.98565 21.8873ZM2.0063 24.1324L2.2807 22.873L1.30362 22.6601L1.02922 23.9195L2.0063 24.1324ZM1.79216 22.7665C2.2747 22.8975 2.27464 22.8977 2.27459 22.8979C2.27458 22.8979 2.27453 22.8981 2.2745 22.8982C2.27443 22.8985 2.27438 22.8987 2.27432 22.8989C2.27421 22.8993 2.27411 22.8996 2.27403 22.8999C2.27387 22.9005 2.27377 22.9009 2.27372 22.901C2.27364 22.9013 2.27379 22.9008 2.27419 22.8995C2.27498 22.8968 2.27676 22.8911 2.27956 22.8827C2.28521 22.8658 2.29483 22.8388 2.30887 22.8053C2.33756 22.7367 2.38143 22.6483 2.44206 22.5631C2.56363 22.3923 2.71446 22.2798 2.92895 22.2798V21.2798C2.27451 21.2798 1.85695 21.6606 1.62735 21.9832C1.5124 22.1447 1.435 22.303 1.38631 22.4194C1.36166 22.4783 1.34357 22.5285 1.33117 22.5656C1.32496 22.5842 1.32012 22.5996 1.31657 22.6114C1.3148 22.6173 1.31334 22.6223 1.31219 22.6263C1.31161 22.6284 1.31111 22.6301 1.31068 22.6317C1.31047 22.6324 1.31027 22.6331 1.3101 22.6338C1.31001 22.6341 1.30993 22.6344 1.30985 22.6347C1.30981 22.6348 1.30975 22.6351 1.30973 22.6351C1.30968 22.6353 1.30962 22.6355 1.79216 22.7665ZM2.92895 22.2798H4.92813V21.2798H2.92895V22.2798ZM4.92813 21.7798C4.97875 22.2772 4.97853 22.2772 4.97832 22.2772C4.97825 22.2773 4.97804 22.2773 4.97791 22.2773C4.97765 22.2773 4.9774 22.2773 4.97716 22.2774C4.9767 22.2774 4.97629 22.2774 4.97594 22.2775C4.97524 22.2775 4.97479 22.2776 4.97456 22.2776C4.9741 22.2776 4.97456 22.2776 4.97588 22.2775C4.97853 22.2773 4.98454 22.2769 4.99346 22.2766C5.01144 22.2759 5.04033 22.2755 5.0767 22.2773C5.15158 22.2808 5.24656 22.2929 5.33961 22.3229C5.50844 22.3774 5.65481 22.4774 5.70407 22.7414L6.6871 22.5579C6.55344 21.8417 6.06608 21.5067 5.64692 21.3713C5.44597 21.3064 5.25838 21.2848 5.1242 21.2784C5.05603 21.2752 4.99877 21.2757 4.95673 21.2773C4.93563 21.2781 4.91816 21.2791 4.90483 21.28C4.89816 21.2805 4.89251 21.281 4.88794 21.2814C4.88566 21.2816 4.88364 21.2817 4.8819 21.2819C4.88103 21.282 4.88023 21.2821 4.8795 21.2821C4.87913 21.2822 4.87878 21.2822 4.87845 21.2822C4.87829 21.2823 4.87805 21.2823 4.87797 21.2823C4.87774 21.2823 4.87752 21.2823 4.92813 21.7798ZM5.70261 22.7331L5.93127 24.0834L6.91724 23.9165L6.68857 22.5662L5.70261 22.7331ZM6.42161 23.5L1.50859 23.5259L1.51387 24.5259L6.4269 24.4999L6.42161 23.5ZM1.51123 24.5259H1.51776V23.5259H1.51123V24.5259ZM20.6054 21.0546L20.6511 23.8265L21.651 23.81L21.6052 21.0381L20.6054 21.0546ZM21.151 24.3183H30.3042V23.3183H21.151V24.3183ZM30.4902 24.2824C31.2428 23.9807 31.5808 23.4048 31.7214 22.9262C31.7904 22.6913 31.8136 22.4773 31.8199 22.3223C31.8231 22.2442 31.822 22.1792 31.82 22.1317C31.819 22.1079 31.8177 22.0884 31.8166 22.0736C31.816 22.0662 31.8155 22.06 31.815 22.055C31.8148 22.0525 31.8146 22.0503 31.8144 22.0485C31.8143 22.0475 31.8142 22.0467 31.8141 22.0459C31.8141 22.0455 31.814 22.0452 31.814 22.0448C31.814 22.0446 31.8139 22.0444 31.8139 22.0443C31.8139 22.0441 31.8139 22.0438 31.3168 22.098C30.8198 22.1521 30.8197 22.1519 30.8197 22.1517C30.8197 22.1516 30.8197 22.1514 30.8197 22.1513C30.8196 22.151 30.8196 22.1507 30.8196 22.1505C30.8195 22.1501 30.8195 22.1497 30.8195 22.1493C30.8194 22.1487 30.8194 22.1483 30.8194 22.1482C30.8193 22.148 30.8194 22.149 30.8196 22.1509C30.8199 22.1548 30.8204 22.1627 30.8209 22.1743C30.8219 22.1975 30.8226 22.2345 30.8207 22.2816C30.8168 22.3772 30.8024 22.5068 30.762 22.6443C30.6837 22.9107 30.5154 23.1949 30.1181 23.3542L30.4902 24.2824ZM31.8168 22.098V19.0274H30.8168V22.098H31.8168ZM31.8168 19.0215C31.802 17.7681 31.3169 17.0081 30.7801 16.5706C30.5204 16.3588 30.2617 16.2332 30.0663 16.16C29.9683 16.1233 29.8847 16.0993 29.8229 16.0839C29.7919 16.0762 29.7662 16.0707 29.7465 16.0668C29.7367 16.0649 29.7284 16.0634 29.7218 16.0622C29.7184 16.0616 29.7155 16.0612 29.713 16.0607C29.7117 16.0605 29.7105 16.0604 29.7095 16.0602C29.709 16.0601 29.7085 16.06 29.708 16.0599C29.7077 16.0599 29.7074 16.0599 29.7073 16.0598C29.707 16.0598 29.7066 16.0597 29.6312 16.554C29.5558 17.0483 29.5555 17.0483 29.5552 17.0482C29.5551 17.0482 29.5548 17.0482 29.5546 17.0481C29.5543 17.0481 29.5539 17.048 29.5536 17.048C29.5529 17.0479 29.5524 17.0478 29.5519 17.0477C29.551 17.0475 29.5504 17.0474 29.5502 17.0474C29.5498 17.0473 29.5509 17.0475 29.5532 17.048C29.5579 17.0489 29.5679 17.051 29.5823 17.0546C29.6113 17.0617 29.6576 17.0748 29.7155 17.0965C29.8321 17.1402 29.99 17.2166 30.1483 17.3457C30.4478 17.5898 30.8055 18.0664 30.8169 19.0333L31.8168 19.0215ZM29.7693 16.0735L26.2675 15.0672L25.9913 16.0284L29.4932 17.0346L29.7693 16.0735ZM26.2358 15.0593C24.3535 14.6491 23.034 15.172 22.1872 15.8318C21.7713 16.1557 21.478 16.5055 21.2879 16.7751C21.1925 16.9102 21.1222 17.0266 21.0746 17.1115C21.0508 17.154 21.0326 17.1888 21.0197 17.2143C21.0133 17.227 21.0082 17.2375 21.0044 17.2454C21.0025 17.2494 21.0009 17.2527 20.9996 17.2555C20.999 17.2568 20.9984 17.258 20.998 17.259C20.9977 17.2595 20.9975 17.26 20.9973 17.2604C20.9972 17.2607 20.9971 17.261 20.997 17.2611C20.9969 17.2613 20.9968 17.2616 21.4516 17.4694C21.9064 17.6771 21.9063 17.6774 21.9061 17.6776C21.9061 17.6777 21.906 17.6779 21.9059 17.678C21.9058 17.6783 21.9057 17.6785 21.9056 17.6787C21.9054 17.6791 21.9053 17.6793 21.9053 17.6794C21.9052 17.6795 21.9055 17.6791 21.906 17.678C21.907 17.6759 21.9092 17.6714 21.9125 17.6648C21.9192 17.6514 21.9307 17.6295 21.947 17.6003C21.9797 17.5419 22.0319 17.4552 22.1051 17.3514C22.252 17.143 22.4801 16.8712 22.8017 16.6206C23.4297 16.1314 24.4492 15.6934 26.023 16.0363L26.2358 15.0593ZM21.4516 17.4694C20.9926 17.271 20.9925 17.2712 20.9924 17.2714C20.9924 17.2715 20.9923 17.2718 20.9922 17.2719C20.9921 17.2723 20.9919 17.2726 20.9918 17.273C20.9914 17.2737 20.9911 17.2745 20.9908 17.2753C20.99 17.277 20.9892 17.2789 20.9883 17.2811C20.9865 17.2855 20.9843 17.2909 20.9818 17.2973C20.9767 17.3102 20.9702 17.3271 20.9626 17.3483C20.9473 17.3906 20.9274 17.4498 20.9048 17.5269C20.8596 17.6811 20.8034 17.9068 20.7513 18.2121C20.647 18.8227 20.5588 19.7513 20.6056 21.0641L21.605 21.0285C21.5603 19.7771 21.6453 18.9172 21.737 18.3804C21.7828 18.112 21.8304 17.9242 21.8644 17.8084C21.8814 17.7505 21.895 17.7106 21.9033 17.6875C21.9075 17.6759 21.9103 17.6686 21.9116 17.6654C21.9122 17.6638 21.9125 17.6632 21.9123 17.6636C21.9122 17.6638 21.912 17.6642 21.9117 17.6649C21.9116 17.6653 21.9114 17.6657 21.9112 17.6661C21.9111 17.6664 21.911 17.6666 21.9109 17.6669C21.9108 17.667 21.9107 17.6672 21.9107 17.6673C21.9106 17.6675 21.9105 17.6677 21.4516 17.4694ZM6.05396 7.23144L0.548806 18.7596L1.45119 19.1905L6.95635 7.66237L6.05396 7.23144ZM3.0582 1.23358L6.18624 7.15638L7.07049 6.68937L3.94246 0.766578L3.0582 1.23358ZM1.12748 18.8465L7.6195 20.6771L7.8909 19.7147L1.39888 17.884L1.12748 18.8465ZM7.7552 20.1959C7.5745 20.6621 7.57468 20.6622 7.57487 20.6623C7.57494 20.6623 7.57513 20.6624 7.57526 20.6624C7.57554 20.6625 7.57583 20.6626 7.57614 20.6627C7.57676 20.663 7.57745 20.6632 7.57822 20.6635C7.57975 20.6641 7.58158 20.6648 7.58371 20.6656C7.58795 20.6672 7.59337 20.6692 7.59995 20.6716C7.61311 20.6763 7.63092 20.6825 7.6533 20.6899C7.69804 20.7047 7.76107 20.7242 7.84166 20.7461C8.00283 20.7899 8.23438 20.843 8.53064 20.8862C9.1235 20.9728 9.97444 21.0195 11.0374 20.873L10.9008 19.8824C9.93897 20.015 9.18297 19.9708 8.67508 19.8967C8.42096 19.8596 8.22868 19.815 8.10363 19.781C8.0411 19.7641 7.9954 19.7498 7.96721 19.7404C7.95312 19.7358 7.9434 19.7324 7.93815 19.7305C7.93553 19.7295 7.93402 19.729 7.93365 19.7288C7.93346 19.7288 7.93355 19.7288 7.93393 19.7289C7.93411 19.729 7.93437 19.7291 7.9347 19.7292C7.93487 19.7293 7.93505 19.7294 7.93525 19.7295C7.93535 19.7295 7.93551 19.7296 7.93556 19.7296C7.93573 19.7296 7.93591 19.7297 7.7552 20.1959ZM10.9691 20.3777C10.9902 20.8772 10.9903 20.8772 10.9904 20.8772C10.9904 20.8772 10.9905 20.8772 10.9907 20.8772C10.991 20.8772 10.9914 20.8772 10.992 20.8772C10.9932 20.8771 10.995 20.877 10.9974 20.8769C11.0021 20.8767 11.0092 20.8764 11.0185 20.876C11.0371 20.8752 11.0646 20.8741 11.1006 20.8725C11.1726 20.8695 11.2782 20.8649 11.4127 20.8591C11.6816 20.8476 12.0662 20.8309 12.5286 20.8106C13.4534 20.7699 14.6899 20.7145 15.9364 20.6556C17.1826 20.5967 18.4401 20.5344 19.4063 20.4798C19.889 20.4525 20.3014 20.427 20.604 20.4048C20.7548 20.3937 20.8818 20.3832 20.978 20.3733C21.0257 20.3685 21.0699 20.3634 21.1076 20.3579C21.13 20.3547 21.1958 20.3456 21.2581 20.3237L20.9274 19.38C20.9701 19.365 20.9976 19.3634 20.9644 19.3682C20.9465 19.3708 20.9178 19.3743 20.8764 19.3785C20.7942 19.3869 20.6782 19.3966 20.5307 19.4075C20.2366 19.4291 19.831 19.4542 19.3499 19.4814C18.3884 19.5357 17.1346 19.5979 15.8892 19.6567C14.6442 19.7155 13.4088 19.7709 12.4846 19.8115C12.0226 19.8318 11.6383 19.8485 11.3696 19.8601C11.2353 19.8659 11.1298 19.8704 11.058 19.8734C11.0221 19.875 10.9945 19.8761 10.976 19.8769C10.9667 19.8773 10.9597 19.8776 10.955 19.8778C10.9526 19.8779 10.9509 19.878 10.9497 19.878C10.9491 19.8781 10.9486 19.8781 10.9484 19.8781C10.9482 19.8781 10.9481 19.8781 10.948 19.8781C10.948 19.8781 10.9479 19.8781 10.9691 20.3777ZM7.2138 7.70167L9.55925 5.76064L8.92168 4.99024L6.57624 6.93127L7.2138 7.70167ZM9.24047 5.37544C9.53359 5.78051 9.53383 5.78033 9.53408 5.78015C9.53417 5.78008 9.53442 5.7799 9.5346 5.77977C9.53494 5.77952 9.5353 5.77926 9.53566 5.779C9.5364 5.77846 9.53716 5.7779 9.53797 5.7773C9.53958 5.77611 9.54135 5.77479 9.54325 5.77336C9.54707 5.77048 9.55146 5.76711 9.55639 5.76323C9.56624 5.75548 9.57826 5.74569 9.5921 5.73379C9.61977 5.71001 9.65485 5.6777 9.69456 5.63629C9.77396 5.55349 9.87235 5.43376 9.96667 5.2728C10.1579 4.94646 10.3223 4.46732 10.2954 3.81619L9.29622 3.8576C9.31497 4.31006 9.20176 4.60019 9.10388 4.76724C9.05366 4.85295 9.00464 4.91094 8.97277 4.94418C8.95685 4.96079 8.94533 4.97108 8.9403 4.9754C8.9378 4.97755 8.93695 4.97818 8.93802 4.97734C8.93856 4.97692 8.93958 4.97612 8.94112 4.97496C8.94189 4.97438 8.94279 4.9737 8.94383 4.97294C8.94435 4.97256 8.9449 4.97215 8.94548 4.97172C8.94578 4.97151 8.94608 4.97129 8.94639 4.97106C8.94654 4.97095 8.94678 4.97078 8.94686 4.97072C8.9471 4.97055 8.94734 4.97037 9.24047 5.37544ZM10.293 3.78422L9.99248 0.947326L8.99804 1.05267L9.29858 3.88957L10.293 3.78422ZM11.2318 20.3774L11.2188 19.6892L10.2189 19.7082L10.232 20.3963L11.2318 20.3774ZM10.7189 19.6987C11.214 19.6294 11.2141 19.6296 11.2141 19.6297C11.2141 19.6298 11.2141 19.63 11.2141 19.6301C11.2141 19.6303 11.2142 19.6305 11.2142 19.6307C11.2143 19.631 11.2143 19.6314 11.2143 19.6317C11.2144 19.6323 11.2145 19.6327 11.2145 19.633C11.2146 19.6336 11.2146 19.6336 11.2145 19.633C11.2144 19.6317 11.214 19.6283 11.2135 19.623C11.2126 19.6123 11.2114 19.595 11.211 19.5734C11.2102 19.527 11.2135 19.4775 11.2226 19.4377C11.2326 19.394 11.2407 19.3995 11.2201 19.4207C11.1851 19.4566 11.1467 19.4585 11.1572 19.4586L11.169 18.4587C10.9052 18.4556 10.674 18.5484 10.5042 18.7224C10.3489 18.8817 10.2803 19.0727 10.2478 19.2149C10.2144 19.3608 10.2095 19.4976 10.2112 19.5909C10.212 19.6393 10.2147 19.6802 10.2173 19.7103C10.2187 19.7254 10.22 19.738 10.2211 19.7477C10.2217 19.7526 10.2222 19.7568 10.2226 19.7602C10.2229 19.7619 10.223 19.7634 10.2232 19.7647C10.2233 19.7653 10.2234 19.766 10.2235 19.7665C10.2235 19.7668 10.2236 19.7671 10.2236 19.7673C10.2236 19.7675 10.2236 19.7676 10.2236 19.7677C10.2237 19.7679 10.2237 19.7681 10.7189 19.6987ZM11.1812 19.4583L16.2118 19.2766L16.1757 18.2772L11.1451 18.459L11.1812 19.4583ZM16.1937 18.7769C16.225 19.2759 16.2248 19.2759 16.2246 19.2759C16.2245 19.276 16.2243 19.276 16.2242 19.276C16.2239 19.276 16.2237 19.276 16.2235 19.276C16.223 19.276 16.2226 19.2761 16.2222 19.2761C16.2215 19.2761 16.2209 19.2762 16.2205 19.2762C16.2197 19.2762 16.2196 19.2762 16.2201 19.2762C16.2212 19.2762 16.2247 19.2761 16.2302 19.2761C16.2415 19.276 16.2602 19.2764 16.2836 19.2783C16.3333 19.2822 16.389 19.2918 16.4362 19.309C16.4836 19.3263 16.4997 19.3428 16.503 19.3468C16.5041 19.3482 16.5063 19.3511 16.509 19.3591C16.5119 19.3677 16.5173 19.3888 16.517 19.428L17.5169 19.4372C17.5195 19.1549 17.4361 18.9095 17.2792 18.7164C17.1287 18.5311 16.9386 18.4279 16.7793 18.3697C16.62 18.3115 16.4686 18.2898 16.363 18.2814C16.3087 18.2771 16.2626 18.276 16.2285 18.2761C16.2114 18.2761 16.1971 18.2764 16.186 18.2768C16.1804 18.277 16.1757 18.2772 16.1717 18.2774C16.1698 18.2775 16.168 18.2776 16.1665 18.2776C16.1657 18.2777 16.165 18.2777 16.1643 18.2778C16.164 18.2778 16.1637 18.2778 16.1634 18.2778C16.1632 18.2778 16.163 18.2778 16.1629 18.2779C16.1627 18.2779 16.1625 18.2779 16.1937 18.7769ZM16.5178 19.4618L16.557 20.1305L17.5553 20.072L17.5161 19.4033L16.5178 19.4618ZM17.0336 19.6017L10.7094 19.8874L10.7545 20.8863L17.0787 20.6007L17.0336 19.6017ZM21.5494 23.3184L6.41825 23.5L6.43025 24.4999L21.5614 24.3183L21.5494 23.3184ZM27.5107 19.6999C27.5107 20.6055 26.7709 21.345 25.8518 21.345V22.345C27.3172 22.345 28.5107 21.1637 28.5107 19.6999H27.5107ZM25.8518 21.345C24.9326 21.345 24.1929 20.6055 24.1929 19.6999H23.1929C23.1929 21.1637 24.3863 22.345 25.8518 22.345V21.345ZM24.1929 19.6999C24.1929 18.7943 24.9326 18.0547 25.8518 18.0547V17.0547C24.3863 17.0547 23.1929 18.236 23.1929 19.6999H24.1929ZM25.8518 18.0547C26.771 18.0547 27.5107 18.7943 27.5107 19.6999H28.5107C28.5107 18.236 27.3172 17.0547 25.8518 17.0547V18.0547Z" fill="#333333"/>
</svg>
