<svg width="32" height="32" viewBox="0 0 32 32" fill="none" xmlns="http://www.w3.org/2000/svg">
<g clip-path="url(#clip0_1_3335)">
<path d="M19.0121 18.9163H16.4296M14.5471 18.9161H12.3796M13.0671 23.4362H10.7421M17.4371 23.4362H15.0397M22.4247 29.6761H19.5347M17.4371 29.6761H14.5471M12.7296 29.6761H11.2845M22.0271 23.4362H19.5347M10.2733 18.8243C10.2733 18.8243 8.60644 18.5624 7.72644 19.6524M7.10144 21.5275C7.10144 21.5275 7.02081 22.9537 8.57081 23.2337M23.8671 23.3963C23.8671 23.3963 25.4871 23.0063 26.1971 25.1263M26.3171 27.0262C26.3171 27.0262 26.5271 29.0162 24.2671 29.5362M20.7671 16.6862L16.3571 9.08617C16.3571 9.08617 13.6671 4.65617 17.6371 1.76617C21.4771 -0.823826 24.4971 2.13617 24.4971 2.13617C24.4971 2.13617 27.9871 4.77617 25.7371 8.86617L20.7771 16.6962L20.7671 16.6862ZM20.8171 8.00624C21.8771 8.00624 22.7471 7.14624 22.7471 6.07624C22.7471 5.00624 21.8871 4.14624 20.8171 4.14624C19.7471 4.14624 18.8871 5.00624 18.8871 6.07624C18.8871 7.14624 19.7471 8.00624 20.8171 8.00624ZM7.58708 31.2962C8.73708 31.2962 9.66708 30.3662 9.66708 29.2162C9.66708 28.0662 8.73708 27.1362 7.58708 27.1362C6.43708 27.1362 5.50708 28.0662 5.50708 29.2162C5.50708 30.3662 6.43708 31.2962 7.58708 31.2962Z" stroke="#333333" stroke-width="1.5" stroke-linecap="round" stroke-linejoin="round"/>
</g>
<defs>
<clipPath id="clip0_1_3335">
<rect width="32" height="32" fill="white"/>
</clipPath>
</defs>
</svg>
