<svg width="32" height="32" viewBox="0 0 32 32" fill="none" xmlns="http://www.w3.org/2000/svg">
<path fill-rule="evenodd" clip-rule="evenodd" d="M13.9585 19.5659C13.7378 19.5669 13.428 19.5688 13.0717 19.5726C12.7956 19.5756 12.5693 19.3542 12.5664 19.0781C12.5634 18.8019 12.7848 18.5757 13.0609 18.5727C13.4198 18.5688 13.7318 18.5669 13.9541 18.5659C14.0653 18.5654 14.1541 18.5652 14.2152 18.5651L14.3095 18.5649H15.6849C15.9611 18.5649 16.1849 18.7888 16.1849 19.0649C16.1849 19.3411 15.9611 19.5649 15.6849 19.5649L14.2172 19.5651C14.1568 19.5652 14.0688 19.5654 13.9585 19.5659ZM17.9349 19.0649C17.9349 18.7888 18.1588 18.5649 18.4349 18.5649H19.8099C20.0861 18.5649 20.3099 18.7888 20.3099 19.0649C20.3099 19.3411 20.0861 19.5649 19.8099 19.5649H18.4349C18.1588 19.5649 17.9349 19.3411 17.9349 19.0649ZM11.0771 19.1097C11.0895 19.3856 10.8759 19.6193 10.6 19.6316C10.3122 19.6446 10.0568 19.6598 9.85319 19.6776C9.6374 19.6964 9.51558 19.7154 9.47181 19.7272C9.23308 19.7929 9.02962 19.8996 8.86111 20.0332C8.64472 20.2047 8.33024 20.1684 8.15868 19.952C7.98713 19.7356 8.02348 19.4211 8.23987 19.2496C8.51419 19.0321 8.83909 18.864 9.20749 18.7628C9.34876 18.7243 9.55549 18.6997 9.76626 18.6813C9.98975 18.6618 10.2608 18.6459 10.5552 18.6327C10.831 18.6203 11.0647 18.8339 11.0771 19.1097ZM7.78196 20.672C8.05743 20.6912 8.2652 20.93 8.24601 21.2055C8.21558 21.6425 8.36105 22.085 8.70704 22.423C8.90455 22.616 8.90822 22.9326 8.71523 23.1301C8.52225 23.3276 8.20569 23.3313 8.00817 23.1383C7.43803 22.5812 7.19904 21.8452 7.24843 21.136C7.26761 20.8606 7.50648 20.6528 7.78196 20.672ZM24.4705 22.9816C24.7318 22.9861 25.0917 23.027 25.4694 23.1792C25.7255 23.2825 25.8494 23.5738 25.7462 23.8299C25.6429 24.086 25.3516 24.21 25.0955 24.1067C24.8621 24.0126 24.6306 23.9845 24.4535 23.9815C24.3661 23.98 24.2952 23.9847 24.2485 23.9894C24.2252 23.9917 24.2083 23.994 24.1986 23.9954L24.1899 23.9968L24.1911 23.9966L24.1925 23.9963L24.1899 23.9968C24.1603 24.0022 24.1301 24.0049 24.0999 24.0049H23.1112C22.835 24.0049 22.6112 23.7811 22.6112 23.5049C22.6112 23.2288 22.835 23.0049 23.1112 23.0049H24.0608C24.0839 23.0017 24.1135 22.9979 24.149 22.9943C24.2286 22.9864 24.3387 22.9794 24.4705 22.9816ZM9.45584 23.4276C9.49435 23.1541 9.74724 22.9637 10.0207 23.0022C10.2571 23.0355 10.5222 23.0485 10.8178 23.0354L10.8201 23.0353C11.1457 23.0224 11.6252 23.0178 12.1759 23.0163C12.4521 23.0156 12.6765 23.2388 12.6773 23.515C12.678 23.7911 12.4547 24.0156 12.1786 24.0163C11.6274 24.0178 11.1656 24.0225 10.8609 24.0345C10.5103 24.05 10.1837 24.035 9.88122 23.9924C9.60777 23.9539 9.41733 23.701 9.45584 23.4276ZM16.1899 23.0049H17.1787C17.4548 23.0049 17.6787 23.2288 17.6787 23.5049C17.6787 23.7811 17.4548 24.0049 17.1787 24.0049H16.1942C15.7841 24.012 15.3264 24.0152 14.854 24.0164C14.5778 24.0172 14.3534 23.7939 14.3526 23.5178C14.3519 23.2416 14.5752 23.0172 14.8513 23.0165C15.3232 23.0152 15.7771 23.012 16.1813 23.005L16.1899 23.0049ZM18.6562 23.5049C18.6562 23.2288 18.88 23.0049 19.1562 23.0049H21.1337C21.4098 23.0049 21.6337 23.2288 21.6337 23.5049C21.6337 23.7811 21.4098 24.0049 21.1337 24.0049H19.1562C18.88 24.0049 18.6562 23.7811 18.6562 23.5049ZM26.5434 25.0162C26.8141 24.9619 27.0776 25.1374 27.1319 25.4081C27.2081 25.788 27.2465 26.2202 27.2399 26.7117C27.2332 27.2064 27.169 27.646 27.0439 28.034C26.9592 28.2968 26.6774 28.4412 26.4146 28.3564C26.1518 28.2717 26.0074 27.99 26.0922 27.7271C26.1804 27.4535 26.2343 27.1161 26.24 26.6982C26.2458 26.266 26.2117 25.9052 26.1514 25.6048C26.0971 25.334 26.2726 25.0705 26.5434 25.0162ZM25.3859 29.2997C25.471 29.5624 25.3269 29.8444 25.0642 29.9294C24.3381 30.1643 23.477 30.2383 22.5694 30.2638C22.2933 30.2716 22.0633 30.0541 22.0555 29.7781C22.0477 29.502 22.2652 29.272 22.5412 29.2642C23.4321 29.2391 24.1732 29.1666 24.7563 28.978C25.019 28.8929 25.3009 29.037 25.3859 29.2997ZM20.6716 29.7759C20.6737 30.052 20.4515 30.2776 20.1754 30.2797C19.7887 30.2826 19.3961 30.2893 18.9991 30.3046C18.9927 30.3048 18.9863 30.3049 18.9799 30.3049H17.9299C17.6538 30.3049 17.4299 30.0811 17.4299 29.8049C17.4299 29.5288 17.6538 29.3049 17.9299 29.3049H18.9703C19.3778 29.2894 19.7781 29.2827 20.1678 29.2797C20.4439 29.2776 20.6695 29.4998 20.6716 29.7759ZM10.0799 29.8049C10.0799 29.5288 10.3038 29.3049 10.5799 29.3049H11.6299C11.9061 29.3049 12.1299 29.5288 12.1299 29.8049C12.1299 30.0811 11.9061 30.3049 11.6299 30.3049H10.5799C10.3038 30.3049 10.0799 30.0811 10.0799 29.8049ZM13.2299 29.8049C13.2299 29.5288 13.4538 29.3049 13.7299 29.3049H15.8299C16.1061 29.3049 16.3299 29.5288 16.3299 29.8049C16.3299 30.0811 16.1061 30.3049 15.8299 30.3049H13.7299C13.4538 30.3049 13.2299 30.0811 13.2299 29.8049Z" fill="#333333"/>
<path d="M6.70866 31.1477C7.85866 31.1477 8.78866 30.2177 8.78866 29.0677C8.78866 27.9177 7.85866 26.9877 6.70866 26.9877C5.55866 26.9877 4.62866 27.9177 4.62866 29.0677C4.62866 30.2177 5.55866 31.1477 6.70866 31.1477Z" fill="#333333"/>
<path d="M25.36 2.99504C24.85 2.28504 24.36 1.89504 24.28 1.83504C24.13 1.70504 22.64 0.305044 20.32 0.295044C19.27 0.295044 18.07 0.605044 16.82 1.44504H16.81C14.99 2.76504 14.42 4.47504 14.43 5.91504C14.43 7.85504 15.35 9.34504 15.39 9.42504L19.8 17.025C19.89 17.175 20.05 17.275 20.22 17.275C20.4 17.275 20.56 17.195 20.65 17.045L25.61 9.21504L25.63 9.18504C26.22 8.12504 26.45 7.12504 26.45 6.22504C26.45 4.83504 25.9 3.73504 25.36 2.98504V2.99504ZM20.44 7.98504C19.46 7.98504 18.66 7.18504 18.66 6.20504C18.66 5.22504 19.46 4.42504 20.44 4.42504C21.42 4.42504 22.22 5.22504 22.22 6.20504C22.22 7.18504 21.42 7.98504 20.44 7.98504Z" fill="#333333"/>
</svg>
