<svg width="32" height="32" viewBox="0 0 32 32" fill="none" xmlns="http://www.w3.org/2000/svg">
<g clip-path="url(#clip0_1_3336)">
<path d="M20.7669 16.6862L16.3569 9.08617C16.3569 9.08617 13.6669 4.65617 17.6369 1.76617C21.4769 -0.823826 24.4969 2.13617 24.4969 2.13617C24.4969 2.13617 27.9869 4.77617 25.7369 8.86617L20.7769 16.6962L20.7669 16.6862Z" stroke="#333333" stroke-width="1.5" stroke-linecap="round" stroke-linejoin="round"/>
<path d="M20.8172 8.00624C21.8772 8.00624 22.7472 7.14624 22.7472 6.07624C22.7472 5.00624 21.8872 4.14624 20.8172 4.14624C19.7472 4.14624 18.8872 5.00624 18.8872 6.07624C18.8872 7.14624 19.7472 8.00624 20.8172 8.00624Z" stroke="#333333" stroke-width="1.5" stroke-linecap="round" stroke-linejoin="round"/>
<path d="M7.58708 31.2962C8.73708 31.2962 9.66708 30.3662 9.66708 29.2162C9.66708 28.0662 8.73708 27.1362 7.58708 27.1362C6.43708 27.1362 5.50708 28.0662 5.50708 29.2162C5.50708 30.3662 6.43708 31.2962 7.58708 31.2962Z" stroke="#333333" stroke-width="1.5" stroke-linecap="round" stroke-linejoin="round"/>
<path d="M19.0122 18.9163H16.4297" stroke="#333333" stroke-width="1.5" stroke-linecap="round" stroke-linejoin="round"/>
<path d="M14.5471 18.9161L12.3796 18.9161" stroke="#333333" stroke-width="1.5" stroke-linecap="round" stroke-linejoin="round"/>
<path d="M13.0672 23.4362H10.7422" stroke="#333333" stroke-width="1.5" stroke-linecap="round" stroke-linejoin="round"/>
<path d="M17.437 23.4362H15.0396" stroke="#333333" stroke-width="1.5" stroke-linecap="round" stroke-linejoin="round"/>
<path d="M22.4247 29.6761H19.5347" stroke="#333333" stroke-width="1.5" stroke-linecap="round" stroke-linejoin="round"/>
<path d="M17.4371 29.6761H14.5471" stroke="#333333" stroke-width="1.5" stroke-linecap="round" stroke-linejoin="round"/>
<path d="M12.7297 29.6761L11.2847 29.6761" stroke="#333333" stroke-width="1.5" stroke-linecap="round" stroke-linejoin="round"/>
<path d="M22.0271 23.4362L19.5347 23.4362" stroke="#333333" stroke-width="1.5" stroke-linecap="round" stroke-linejoin="round"/>
<path d="M10.2734 18.8243C10.2734 18.8243 8.60656 18.5624 7.72656 19.6524" stroke="#333333" stroke-width="1.5" stroke-linecap="round" stroke-linejoin="round"/>
<path d="M7.10132 21.5275C7.10132 21.5275 7.02068 22.9537 8.57068 23.2337" stroke="#333333" stroke-width="1.5" stroke-linecap="round" stroke-linejoin="round"/>
<path d="M23.8672 23.3963C23.8672 23.3963 25.4872 23.0063 26.1972 25.1263" stroke="#333333" stroke-width="1.5" stroke-linecap="round" stroke-linejoin="round"/>
<path d="M26.3171 27.0262C26.3171 27.0262 26.5271 29.0162 24.2671 29.5362" stroke="#333333" stroke-width="1.5" stroke-linecap="round" stroke-linejoin="round"/>
</g>
<defs>
<clipPath id="clip0_1_3336">
<rect width="32" height="32" fill="white"/>
</clipPath>
</defs>
</svg>
