<svg width="32" height="32" viewBox="0 0 32 32" fill="none" xmlns="http://www.w3.org/2000/svg">
<g clip-path="url(#clip0_1_258)">
<path d="M0.687556 31.9943H5.29224" stroke="#333333" stroke-width="1.5" stroke-linecap="round" stroke-linejoin="round"/>
<path d="M26.4139 31.9943H31.0186" stroke="#333333" stroke-width="1.5" stroke-linecap="round" stroke-linejoin="round"/>
<path d="M2.71765 23.5519C2.71765 20.9897 4.70544 18.9163 7.16199 18.9163C9.61853 18.9163 11.6063 20.9897 11.6063 23.5519C11.6063 24.1832 11.4876 24.7836 11.2681 25.3282H31.1875V28.1876L6.58048 28.1442C4.40282 27.8472 2.71765 25.91 2.71765 23.5519Z" stroke="#333333" stroke-width="1.5" stroke-linecap="round" stroke-linejoin="round"/>
<path d="M30.1401 31.7034L28.2525 28.4046" stroke="#333333" stroke-width="1.5" stroke-linecap="round" stroke-linejoin="round"/>
<path d="M28.0234 31.7774L26.142 28.4725" stroke="#333333" stroke-width="1.5" stroke-linecap="round" stroke-linejoin="round"/>
<path d="M3.83169 32L6.04468 28.3766" stroke="#333333" stroke-width="1.5" stroke-linecap="round" stroke-linejoin="round"/>
<path d="M1.66553 31.7343L4.31445 27.4267" stroke="#333333" stroke-width="1.5" stroke-linecap="round" stroke-linejoin="round"/>
<path d="M7.28926 18.7237L9.69287 13.5375" stroke="#333333" stroke-width="1.5" stroke-linecap="round" stroke-linejoin="round"/>
<path d="M9.34321 11.6443L10.625 15.7585" stroke="#333333" stroke-width="1.5" stroke-linecap="round" stroke-linejoin="round"/>
<path d="M28.4517 22.8401H28.2834M28.2834 22.8401H24.2308C24.2308 22.8401 22.9806 22.6359 23.2096 25.1115H29.423C29.6256 23.2027 28.7477 22.8019 28.2834 22.8401Z" stroke="#333333" stroke-width="1.5" stroke-linecap="round" stroke-linejoin="round"/>
<path d="M7.2437 25.3179C6.16586 25.3179 5.2921 24.4442 5.2921 23.3663C5.2921 22.2885 6.16586 21.4147 7.2437 21.4147C8.32155 21.4147 9.19531 22.2885 9.19531 23.3663C9.19531 24.4442 8.32155 25.3179 7.2437 25.3179Z" stroke="#333333" stroke-width="1.5" stroke-linecap="round" stroke-linejoin="round"/>
</g>
<defs>
<clipPath id="clip0_1_258">
<rect width="32" height="32" fill="white"/>
</clipPath>
</defs>
</svg>
