<svg width="32" height="32" viewBox="0 0 32 32" fill="none" xmlns="http://www.w3.org/2000/svg">
<g clip-path="url(#clip0_1_254)">
<path d="M0.687561 31.9943H5.29224M26.4139 31.9943H31.0186M30.14 31.7035L28.2523 28.4047M28.0233 31.7775L26.1418 28.4726M3.8317 32L6.04468 28.3766M1.66553 31.7343L4.31446 27.4267M7.28927 18.7237L9.69288 13.5375M9.34321 11.6443L10.625 15.7585M28.4517 22.84H28.4045M28.4045 22.84H28.2834M28.4045 22.84C28.3619 22.8366 28.3213 22.8368 28.2834 22.84M28.4045 22.84C28.8838 22.8772 29.6091 23.3583 29.423 25.1113H23.2096C22.9806 22.6357 24.2308 22.84 24.2308 22.84H28.2834M2.71766 23.552C2.71766 20.9898 4.70544 18.9164 7.16199 18.9164C9.61854 18.9164 11.6063 20.9898 11.6063 23.552C11.6063 24.1833 11.4877 24.7837 11.2681 25.3283H31.1875V28.1877L6.58049 28.1443C4.40282 27.8473 2.71766 25.9101 2.71766 23.552ZM5.29222 23.3663C5.29222 24.4442 6.16599 25.3179 7.24383 25.3179C8.32167 25.3179 9.19544 24.4442 9.19544 23.3663C9.19544 22.2885 8.32167 21.4147 7.24383 21.4147C6.16599 21.4147 5.29222 22.2885 5.29222 23.3663Z" stroke="#333333" stroke-linecap="round" stroke-linejoin="round"/>
</g>
<defs>
<clipPath id="clip0_1_254">
<rect width="32" height="32" fill="white"/>
</clipPath>
</defs>
</svg>
