<svg width="32" height="32" viewBox="0 0 32 32" fill="none" xmlns="http://www.w3.org/2000/svg">
<g clip-path="url(#clip0_2_2771)">
<path d="M10.3549 9.52622H5.5955M8.26328 29.4388L27.1408 28.6385L26.842 21.1579C26.842 21.1579 26.6392 18.5968 24.3342 18.6928C22.2213 18.7889 21.9225 18.8956 21.9225 18.8956L7.15346 20.699M24.3236 12.845L22.5201 18.6928M26.6286 12.845L24.8359 18.6928M3.08777 3.14481L5.59552 10.0598L7.95388 29.1401M25.4013 12.8131H28.9122V11.4151C28.9122 11.4151 28.8695 10.284 27.0554 10.284H23.5445C23.5445 10.284 21.9332 10.4013 21.9332 11.5965V12.7597L25.4013 12.8024V12.8131ZM10.675 29.3642L9.86397 32H7.15346L7.99649 29.4709L10.675 29.3642ZM20.9302 26.4936C19.4789 26.4936 18.305 25.3411 18.305 23.9219C18.305 22.5026 19.4789 21.3501 20.9302 21.3501C22.3815 21.3501 23.5553 22.5026 23.5553 23.9219C23.5553 25.3411 22.3815 26.4936 20.9302 26.4936ZM7.0275 20.7291L10.1622 20.2789L9.83528 18.1613L6.69793 18.6202L7.0275 20.7291ZM27.1782 28.6385L25.1187 28.7346L25.4281 31.5518H28.1386L27.1782 28.6385Z" stroke="#333333" stroke-width="1.5" stroke-linecap="round" stroke-linejoin="round"/>
</g>
<defs>
<clipPath id="clip0_2_2771">
<rect width="32" height="32" fill="white"/>
</clipPath>
</defs>
</svg>
