<svg width="32" height="32" viewBox="0 0 32 32" fill="none" xmlns="http://www.w3.org/2000/svg">
<path d="M29.4775 22.6089C29.4775 22.6089 18.4721 29.5099 2.59597 22.1112M7.11018 8.77771L11.0871 12.2308C11.0871 12.2308 12.792 13.5745 13.2018 15.6013C13.2018 15.6013 14.0433 19.4981 17.8519 21.6593C17.8519 21.6593 21.0156 23.4005 25.3324 22.0288M16.5589 13.374C16.5589 13.374 17.9793 12.257 20.507 12.9814M15.6929 10.7584C15.6929 10.7584 17.1133 9.64142 19.641 10.3658M17.2976 15.8734C17.2976 15.8734 18.7404 15.1712 21.296 15.6301M2.59595 29.4445L29.4775 29.4445M10.7033 3.60295C10.7033 3.60295 11.9671 0.583767 15.1267 4.79735M10.6096 3.72498L6.61117 9.52556C5.40326 11.66 7.45559 12.6166 9.74278 14.2589C11.4819 15.5086 11.8454 17.7205 11.8454 17.7205C13.9257 25.3956 23.3429 24.6436 23.3429 24.6436C26.2621 24.3339 25.7644 22.664 25.7644 22.664C26.1838 20.4798 23.5275 19.2024 22.739 18.4504C21.9505 17.6984 21.6877 16.6533 21.6877 16.6533C21.6877 16.6533 18.8189 8.1708 18.6623 6.19119C18.5057 4.21158 17.3481 4.16182 16.6883 4.16182C15.8327 4.16182 15.5027 4.31665 15.2119 5.04656C13.9862 7.46478 10.6096 3.72498 10.6096 3.72498Z" stroke="#333333" stroke-miterlimit="10" stroke-linecap="round"/>
</svg>
