<svg width="32" height="32" viewBox="0 0 32 32" fill="none" xmlns="http://www.w3.org/2000/svg">
<path d="M20.6655 6.79468H17.0587M14.4296 6.79431L11.4025 6.79431M12.3627 14.7299H9.11548M18.4659 14.7299H15.1176M25.4316 25.6851H21.3954M18.4659 25.6851H14.4297M11.8912 25.6851H9.87305M24.8763 14.7299H21.3954M8.46082 6.63315C8.46082 6.63315 6.13283 6.17336 4.90381 8.08701M4.03093 11.379C4.03093 11.379 3.91832 13.883 6.08307 14.3746M27.446 14.6599C27.446 14.6599 29.7086 13.9752 30.7002 17.6971M30.8678 21.0328C30.8678 21.0328 31.1611 24.5266 28.0048 25.4395M24.6516 3.65552L30.2405 9.51398M30.3162 3.73303L24.5757 9.43645M4.02996 28.3445C5.63607 28.3445 6.93492 27.0456 6.93492 25.4395C6.93492 23.8334 5.63607 22.5345 4.02996 22.5345C2.42385 22.5345 1.125 23.8334 1.125 25.4395C1.125 27.0456 2.42385 28.3445 4.02996 28.3445Z" stroke="#333333" stroke-linecap="round" stroke-linejoin="round"/>
</svg>
