<svg width="32" height="32" viewBox="0 0 32 32" fill="none" xmlns="http://www.w3.org/2000/svg">
<path d="M10.6994 6.07418H7.22987L4.41174 31.1249H27.5882L24.677 6.07418H21.5864M16 13.4851V16.3963M16 19.5866V22.4978M16 25.4953V28.4065M15.8587 11.4978L12.9276 6.44641C12.9276 6.44641 11.1397 3.502 13.7784 1.58115C16.3306 -0.140298 18.3379 1.82707 18.3379 1.82707C18.3379 1.82707 20.6575 3.58176 19.1621 6.30019L15.8654 11.5044H15.8587V11.4978ZM16 5.72853C16.7046 5.72853 17.2828 5.15693 17.2828 4.44575C17.2828 3.73457 16.7112 3.16297 16 3.16297C15.2889 3.16297 14.7173 3.73457 14.7173 4.44575C14.7173 5.15693 15.2889 5.72853 16 5.72853Z" stroke="#333333" stroke-width="0.996979" stroke-linecap="round" stroke-linejoin="round"/>
</svg>
