<svg width="32" height="32" viewBox="0 0 32 32" fill="none" xmlns="http://www.w3.org/2000/svg">
<path d="M3.01268 24.6468C2.94626 24.9148 3.10971 25.186 3.37775 25.2524C3.64578 25.3188 3.91691 25.1553 3.98333 24.8873L3.01268 24.6468ZM7.56406 10.4367C7.63047 10.1686 7.46703 9.8975 7.19899 9.83108C6.93096 9.76467 6.65983 9.92811 6.59341 10.1961L7.56406 10.4367ZM1.51544 27.0259V27.5259C1.75057 27.5259 1.95393 27.3621 2.00398 27.1324L1.51544 27.0259ZM1.78984 25.7665L1.3073 25.6355C1.3051 25.6437 1.3031 25.6518 1.3013 25.6601L1.78984 25.7665ZM4.92581 24.7798V25.2798C4.94272 25.2798 4.95961 25.2789 4.97643 25.2772L4.92581 24.7798ZM6.19327 25.6497L6.68632 25.5662L6.68478 25.5579L6.19327 25.6497ZM6.42193 27L6.42458 27.5L6.42793 27.4999L6.42193 27ZM1.50891 27.0259L1.50627 26.5259C1.23064 26.5274 1.00818 26.7516 1.00891 27.0272C1.00964 27.3029 1.23328 27.5259 1.50891 27.5259V27.0259ZM21.103 24.0463L21.603 24.0381L21.6027 24.0285L21.103 24.0463ZM21.1487 26.8183L20.6488 26.8265C20.6533 27.0994 20.8758 27.3183 21.1487 27.3183V26.8183ZM30.3018 26.8183V27.3183C30.3656 27.3183 30.4287 27.3061 30.4879 27.2824L30.3018 26.8183ZM31.3145 25.098H30.8145C30.8145 25.1161 30.8155 25.1341 30.8174 25.1521L31.3145 25.098ZM31.3145 22.0274H31.8145L31.8145 22.0215L31.3145 22.0274ZM29.6289 19.554L29.4908 20.0346C29.5114 20.0405 29.5323 20.0451 29.5535 20.0483L29.6289 19.554ZM26.1271 18.5478L26.2652 18.0672C26.2547 18.0642 26.2442 18.0616 26.2335 18.0593L26.1271 18.5478ZM21.4492 20.4694L20.9944 20.2616L20.9903 20.271L21.4492 20.4694ZM6.95403 10.6624C7.07303 10.4132 6.96749 10.1147 6.7183 9.99571C6.46911 9.87671 6.17064 9.98225 6.05165 10.2314L6.95403 10.6624ZM0.546487 21.7596C0.42749 22.0088 0.53303 22.3073 0.782218 22.4263C1.03141 22.5453 1.32988 22.4397 1.44887 22.1905L0.546487 21.7596ZM3.94014 3.76658C3.81118 3.5224 3.50869 3.42899 3.26451 3.55795C3.02033 3.68691 2.92692 3.9894 3.05588 4.23358L3.94014 3.76658ZM6.18392 10.1564C6.31288 10.4006 6.61537 10.494 6.85955 10.365C7.10373 10.236 7.19713 9.93355 7.06817 9.68937L6.18392 10.1564ZM1.39656 20.884C1.13079 20.8091 0.854576 20.9638 0.77963 21.2295C0.704683 21.4953 0.859383 21.7715 1.12516 21.8465L1.39656 20.884ZM7.75288 23.1959L7.93359 22.7297C7.91883 22.724 7.90382 22.719 7.88859 22.7147L7.75288 23.1959ZM10.9668 23.3777L10.9456 22.8781C10.9298 22.8788 10.9141 22.8802 10.8985 22.8824L10.9668 23.3777ZM21.2558 23.3237C21.5164 23.2324 21.6536 22.9471 21.5623 22.6865C21.471 22.4259 21.1857 22.2887 20.9251 22.38L21.2558 23.3237ZM6.57392 9.93127C6.36118 10.1073 6.33144 10.4225 6.5075 10.6353C6.68356 10.848 6.99874 10.8777 7.21148 10.7017L6.57392 9.93127ZM9.23815 8.37544L8.94503 7.97037C8.93626 7.97671 8.9277 7.98334 8.91936 7.99024L9.23815 8.37544ZM9.79347 6.83689L10.293 6.81619C10.2926 6.80551 10.2918 6.79485 10.2907 6.78422L9.79347 6.83689ZM9.99016 3.94733C9.96107 3.67272 9.71488 3.47369 9.44027 3.50278C9.16566 3.53187 8.96663 3.77807 8.99573 4.05267L9.99016 3.94733ZM10.7296 23.3869L10.2297 23.3963L10.2394 23.9095L10.7522 23.8863L10.7296 23.3869ZM10.7165 22.6987L11.2164 22.6892L11.2159 22.6592L11.2117 22.6294L10.7165 22.6987ZM11.1608 21.9587L11.1549 22.4586L11.1669 22.4588L11.1789 22.4583L11.1608 21.9587ZM16.1914 21.7769L16.2095 22.2767L16.2227 22.2759L16.1914 21.7769ZM17.0146 22.4326L16.5146 22.428L16.5145 22.4449L16.5155 22.4618L17.0146 22.4326ZM17.0538 23.1012L17.0764 23.6007L17.5826 23.5778L17.553 23.072L17.0538 23.1012ZM21.5591 27.3183C21.8352 27.315 22.0563 27.0885 22.053 26.8124C22.0497 26.5362 21.8232 26.3151 21.5471 26.3184L21.5591 27.3183ZM3.98333 24.8873L7.56406 10.4367L6.59341 10.1961L3.01268 24.6468L3.98333 24.8873ZM2.00398 27.1324L2.27838 25.873L1.3013 25.6601L1.0269 26.9195L2.00398 27.1324ZM1.78984 25.7665C2.27238 25.8975 2.27233 25.8977 2.27227 25.8979C2.27226 25.8979 2.27221 25.8981 2.27218 25.8982C2.27212 25.8985 2.27206 25.8987 2.272 25.8989C2.27189 25.8993 2.27179 25.8996 2.27171 25.8999C2.27155 25.9005 2.27145 25.9009 2.2714 25.901C2.27132 25.9013 2.27147 25.9008 2.27187 25.8995C2.27267 25.8968 2.27444 25.8911 2.27724 25.8827C2.28289 25.8658 2.29251 25.8388 2.30655 25.8053C2.33524 25.7367 2.37911 25.6483 2.43974 25.5631C2.56131 25.3923 2.71214 25.2798 2.92663 25.2798V24.2798C2.27219 24.2798 1.85463 24.6606 1.62504 24.9832C1.51008 25.1447 1.43268 25.303 1.38399 25.4194C1.35934 25.4783 1.34125 25.5285 1.32885 25.5656C1.32264 25.5842 1.3178 25.5996 1.31426 25.6114C1.31248 25.6173 1.31102 25.6223 1.30987 25.6263C1.30929 25.6284 1.30879 25.6301 1.30836 25.6317C1.30815 25.6324 1.30795 25.6331 1.30778 25.6338C1.30769 25.6341 1.30761 25.6344 1.30753 25.6347C1.30749 25.6348 1.30743 25.6351 1.30741 25.6351C1.30736 25.6353 1.3073 25.6355 1.78984 25.7665ZM2.92663 25.2798H4.92581V24.2798H2.92663V25.2798ZM4.92581 24.7798C4.97643 25.2772 4.97621 25.2772 4.976 25.2772C4.97593 25.2773 4.97572 25.2773 4.97559 25.2773C4.97533 25.2773 4.97508 25.2773 4.97484 25.2774C4.97438 25.2774 4.97397 25.2774 4.97362 25.2775C4.97293 25.2775 4.97247 25.2776 4.97224 25.2776C4.97179 25.2776 4.97225 25.2776 4.97356 25.2775C4.97621 25.2773 4.98222 25.2769 4.99114 25.2766C5.00912 25.2759 5.03801 25.2755 5.07438 25.2773C5.14926 25.2808 5.24424 25.2929 5.33729 25.3229C5.50612 25.3774 5.65249 25.4774 5.70176 25.7414L6.68478 25.5579C6.55112 24.8417 6.06376 24.5067 5.6446 24.3713C5.44365 24.3064 5.25606 24.2848 5.12188 24.2784C5.05371 24.2752 4.99645 24.2757 4.95441 24.2773C4.93331 24.2781 4.91584 24.2791 4.90251 24.28C4.89584 24.2805 4.89019 24.281 4.88562 24.2814C4.88334 24.2816 4.88132 24.2817 4.87958 24.2819C4.87871 24.282 4.87791 24.2821 4.87718 24.2821C4.87681 24.2822 4.87646 24.2822 4.87613 24.2822C4.87597 24.2823 4.87573 24.2823 4.87565 24.2823C4.87542 24.2823 4.8752 24.2823 4.92581 24.7798ZM5.70029 25.7331L5.92895 27.0834L6.91492 26.9165L6.68625 25.5662L5.70029 25.7331ZM6.41929 26.5L1.50627 26.5259L1.51155 27.5259L6.42458 27.4999L6.41929 26.5ZM1.50891 27.5259H1.51544V26.5259H1.50891V27.5259ZM20.6031 24.0546L20.6488 26.8265L21.6486 26.81L21.6029 24.0381L20.6031 24.0546ZM21.1487 27.3183H30.3018V26.3183H21.1487V27.3183ZM30.4879 27.2824C31.2404 26.9807 31.5785 26.4048 31.7191 25.9262C31.7881 25.6913 31.8112 25.4773 31.8176 25.3223C31.8207 25.2442 31.8197 25.1792 31.8177 25.1317C31.8167 25.1079 31.8154 25.0884 31.8143 25.0736C31.8137 25.0662 31.8131 25.06 31.8127 25.055C31.8125 25.0525 31.8122 25.0503 31.812 25.0485C31.812 25.0475 31.8119 25.0467 31.8118 25.0459C31.8117 25.0455 31.8117 25.0452 31.8117 25.0448C31.8116 25.0446 31.8116 25.0444 31.8116 25.0443C31.8116 25.0441 31.8116 25.0438 31.3145 25.098C30.8174 25.1521 30.8174 25.1519 30.8174 25.1517C30.8174 25.1516 30.8174 25.1514 30.8174 25.1513C30.8173 25.151 30.8173 25.1507 30.8173 25.1505C30.8172 25.15 30.8172 25.1497 30.8171 25.1493C30.8171 25.1487 30.817 25.1483 30.817 25.1482C30.817 25.1481 30.8171 25.149 30.8173 25.1509C30.8176 25.1548 30.8181 25.1627 30.8186 25.1743C30.8196 25.1975 30.8203 25.2345 30.8184 25.2816C30.8145 25.3772 30.8001 25.5068 30.7596 25.6443C30.6814 25.9107 30.5131 26.1949 30.1158 26.3542L30.4879 27.2824ZM31.8145 25.098V22.0274H30.8145V25.098H31.8145ZM31.8145 22.0215C31.7997 20.7681 31.3146 20.0081 30.7778 19.5706C30.518 19.3588 30.2594 19.2332 30.064 19.16C29.9659 19.1233 29.8824 19.0993 29.8206 19.0839C29.7896 19.0762 29.7638 19.0707 29.7442 19.0668C29.7344 19.0649 29.7261 19.0634 29.7194 19.0622C29.7161 19.0616 29.7132 19.0612 29.7106 19.0607C29.7094 19.0605 29.7082 19.0604 29.7072 19.0602C29.7066 19.0601 29.7061 19.06 29.7057 19.0599C29.7054 19.0599 29.7051 19.0599 29.705 19.0598C29.7046 19.0598 29.7043 19.0597 29.6289 19.554C29.5535 20.0483 29.5532 20.0483 29.5529 20.0482C29.5528 20.0482 29.5525 20.0482 29.5523 20.0481C29.5519 20.0481 29.5516 20.048 29.5513 20.048C29.5506 20.0479 29.5501 20.0478 29.5496 20.0477C29.5487 20.0475 29.5481 20.0474 29.5479 20.0474C29.5475 20.0473 29.5485 20.0475 29.5509 20.048C29.5556 20.0489 29.5655 20.051 29.58 20.0546C29.609 20.0617 29.6553 20.0748 29.7132 20.0965C29.8298 20.1402 29.9876 20.2166 30.146 20.3457C30.4454 20.5898 30.8032 21.0664 30.8145 22.0333L31.8145 22.0215ZM29.767 19.0735L26.2652 18.0672L25.989 19.0284L29.4908 20.0346L29.767 19.0735ZM26.2335 18.0593C24.3512 17.6491 23.0317 18.172 22.1848 18.8318C21.769 19.1557 21.4756 19.5055 21.2855 19.7751C21.1902 19.9102 21.1199 20.0266 21.0723 20.1115C21.0485 20.154 21.0303 20.1888 21.0174 20.2143C21.011 20.227 21.0059 20.2375 21.0021 20.2454C21.0002 20.2494 20.9986 20.2527 20.9973 20.2555C20.9967 20.2568 20.9961 20.258 20.9956 20.259C20.9954 20.2595 20.9952 20.26 20.995 20.2604C20.9949 20.2607 20.9948 20.261 20.9947 20.2611C20.9946 20.2613 20.9945 20.2616 21.4492 20.4694C21.904 20.6771 21.9039 20.6774 21.9038 20.6776C21.9038 20.6777 21.9037 20.6779 21.9036 20.678C21.9035 20.6783 21.9034 20.6785 21.9033 20.6787C21.9031 20.6791 21.903 20.6793 21.903 20.6794C21.9029 20.6795 21.9031 20.6791 21.9037 20.678C21.9047 20.6759 21.9068 20.6714 21.9102 20.6648C21.9169 20.6514 21.9283 20.6295 21.9447 20.6003C21.9774 20.5419 22.0296 20.4552 22.1028 20.3514C22.2497 20.143 22.4778 19.8712 22.7994 19.6206C23.4274 19.1314 24.4469 18.6934 26.0206 19.0363L26.2335 18.0593ZM21.4492 20.4694C20.9903 20.271 20.9902 20.2712 20.9901 20.2714C20.9901 20.2715 20.99 20.2718 20.9899 20.2719C20.9897 20.2723 20.9896 20.2726 20.9894 20.273C20.9891 20.2737 20.9888 20.2745 20.9884 20.2753C20.9877 20.277 20.9869 20.2789 20.986 20.2811C20.9842 20.2855 20.982 20.2909 20.9795 20.2973C20.9744 20.3102 20.9679 20.3271 20.9603 20.3483C20.945 20.3906 20.9251 20.4498 20.9025 20.5269C20.8573 20.6811 20.8011 20.9068 20.749 21.2121C20.6447 21.8227 20.5565 22.7513 20.6033 24.0641L21.6027 24.0285C21.558 22.7771 21.643 21.9172 21.7347 21.3804C21.7805 21.112 21.8281 20.9242 21.8621 20.8084C21.8791 20.7505 21.8927 20.7106 21.901 20.6875C21.9051 20.6759 21.908 20.6686 21.9093 20.6654C21.9099 20.6638 21.9102 20.6632 21.91 20.6636C21.9099 20.6638 21.9097 20.6642 21.9094 20.6649C21.9093 20.6653 21.9091 20.6657 21.9089 20.6661C21.9088 20.6664 21.9087 20.6666 21.9086 20.6669C21.9085 20.667 21.9084 20.6672 21.9084 20.6673C21.9083 20.6675 21.9082 20.6677 21.4492 20.4694ZM6.05165 10.2314L0.546487 21.7596L1.44887 22.1905L6.95403 10.6624L6.05165 10.2314ZM3.05588 4.23358L6.18392 10.1564L7.06817 9.68937L3.94014 3.76658L3.05588 4.23358ZM1.12516 21.8465L7.61718 23.6771L7.88859 22.7147L1.39656 20.884L1.12516 21.8465ZM7.75288 23.1959C7.57218 23.6621 7.57236 23.6622 7.57255 23.6623C7.57262 23.6623 7.57281 23.6624 7.57294 23.6624C7.57322 23.6625 7.57351 23.6626 7.57382 23.6627C7.57444 23.663 7.57513 23.6632 7.5759 23.6635C7.57743 23.6641 7.57926 23.6648 7.58139 23.6656C7.58563 23.6672 7.59105 23.6692 7.59763 23.6716C7.61079 23.6763 7.6286 23.6825 7.65098 23.6899C7.69572 23.7047 7.75875 23.7242 7.83934 23.7461C8.00052 23.7899 8.23206 23.843 8.52833 23.8862C9.12118 23.9728 9.97212 24.0195 11.035 23.873L10.8985 22.8824C9.93665 23.015 9.18065 22.9708 8.67276 22.8967C8.41865 22.8596 8.22636 22.815 8.10131 22.781C8.03878 22.7641 7.99308 22.7498 7.96489 22.7404C7.9508 22.7358 7.94108 22.7324 7.93583 22.7305C7.93321 22.7295 7.9317 22.729 7.93133 22.7288C7.93114 22.7288 7.93123 22.7288 7.93161 22.7289C7.93179 22.729 7.93205 22.7291 7.93238 22.7292C7.93255 22.7293 7.93273 22.7294 7.93293 22.7295C7.93303 22.7295 7.9332 22.7296 7.93325 22.7296C7.93341 22.7296 7.93359 22.7297 7.75288 23.1959ZM10.9668 23.3777C10.9879 23.8772 10.988 23.8772 10.988 23.8772C10.9881 23.8772 10.9882 23.8772 10.9884 23.8772C10.9887 23.8772 10.9891 23.8772 10.9897 23.8772C10.9909 23.8771 10.9927 23.877 10.9951 23.8769C10.9998 23.8767 11.0068 23.8764 11.0161 23.876C11.0347 23.8752 11.0623 23.8741 11.0983 23.8725C11.1703 23.8695 11.2759 23.8649 11.4104 23.8591C11.6793 23.8476 12.0638 23.8309 12.5263 23.8106C13.4511 23.7699 14.6876 23.7145 15.9341 23.6556C17.1803 23.5967 18.4377 23.5344 19.404 23.4798C19.8867 23.4525 20.299 23.427 20.6017 23.4048C20.7525 23.3937 20.8795 23.3832 20.9757 23.3733C21.0234 23.3685 21.0676 23.3634 21.1053 23.3579C21.1277 23.3547 21.1935 23.3456 21.2558 23.3237L20.9251 22.38C20.9677 22.365 20.9953 22.3634 20.9621 22.3682C20.9442 22.3708 20.9155 22.3743 20.874 22.3785C20.7919 22.3869 20.6759 22.3966 20.5284 22.4075C20.2343 22.4291 19.8286 22.4542 19.3475 22.4814C18.386 22.5357 17.1323 22.5979 15.8869 22.6567C14.6419 22.7155 13.4065 22.7709 12.4823 22.8115C12.0202 22.8318 11.636 22.8485 11.3673 22.8601C11.233 22.8659 11.1275 22.8704 11.0557 22.8734C11.0197 22.875 10.9922 22.8761 10.9737 22.8769C10.9644 22.8773 10.9574 22.8776 10.9527 22.8778C10.9503 22.8779 10.9485 22.878 10.9474 22.878C10.9468 22.8781 10.9463 22.8781 10.946 22.8781C10.9459 22.8781 10.9458 22.8781 10.9457 22.8781C10.9456 22.8781 10.9456 22.8781 10.9668 23.3777ZM7.21148 10.7017L9.55693 8.76064L8.91936 7.99024L6.57392 9.93127L7.21148 10.7017ZM9.23815 8.37544C9.53127 8.78051 9.53151 8.78033 9.53176 8.78015C9.53185 8.78008 9.5321 8.7799 9.53228 8.77977C9.53262 8.77952 9.53298 8.77926 9.53335 8.779C9.53408 8.77846 9.53485 8.7779 9.53565 8.7773C9.53726 8.77611 9.53903 8.7748 9.54093 8.77336C9.54475 8.77048 9.54914 8.76711 9.55407 8.76323C9.56392 8.75548 9.57594 8.74569 9.58978 8.73379C9.61745 8.71001 9.65253 8.6777 9.69224 8.63629C9.77164 8.55349 9.87004 8.43376 9.96436 8.2728C10.1556 7.94646 10.32 7.46732 10.293 6.81619L9.2939 6.8576C9.31265 7.31006 9.19944 7.60019 9.10156 7.76724C9.05134 7.85295 9.00232 7.91094 8.97045 7.94418C8.95453 7.96079 8.94301 7.97108 8.93798 7.9754C8.93548 7.97755 8.93463 7.97818 8.9357 7.97734C8.93624 7.97692 8.93726 7.97612 8.9388 7.97496C8.93957 7.97438 8.94048 7.9737 8.94151 7.97294C8.94203 7.97256 8.94258 7.97215 8.94317 7.97172C8.94346 7.97151 8.94376 7.97129 8.94407 7.97106C8.94422 7.97095 8.94446 7.97078 8.94454 7.97072C8.94478 7.97055 8.94503 7.97037 9.23815 8.37544ZM10.2907 6.78422L9.99016 3.94733L8.99573 4.05267L9.29626 6.88957L10.2907 6.78422ZM11.2295 23.3774L11.2164 22.6892L10.2166 22.7082L10.2297 23.3963L11.2295 23.3774ZM10.7165 22.6987C11.2117 22.6294 11.2117 22.6296 11.2118 22.6297C11.2118 22.6298 11.2118 22.63 11.2118 22.6301C11.2118 22.6303 11.2119 22.6305 11.2119 22.6307C11.2119 22.631 11.212 22.6314 11.212 22.6317C11.2121 22.6323 11.2122 22.6327 11.2122 22.633C11.2123 22.6336 11.2123 22.6336 11.2122 22.633C11.2121 22.6317 11.2117 22.6283 11.2112 22.623C11.2103 22.6123 11.2091 22.595 11.2087 22.5734C11.2079 22.527 11.2112 22.4775 11.2203 22.4377C11.2303 22.394 11.2384 22.3995 11.2178 22.4207C11.1828 22.4566 11.1443 22.4585 11.1549 22.4586L11.1667 21.4587C10.9029 21.4556 10.6717 21.5484 10.5019 21.7224C10.3466 21.8817 10.2779 22.0727 10.2454 22.2149C10.2121 22.3608 10.2072 22.4976 10.2089 22.5909C10.2097 22.6393 10.2124 22.6802 10.215 22.7103C10.2163 22.7254 10.2177 22.738 10.2188 22.7477C10.2194 22.7526 10.2199 22.7568 10.2203 22.7602C10.2205 22.7619 10.2207 22.7634 10.2209 22.7647C10.221 22.7653 10.2211 22.766 10.2212 22.7665C10.2212 22.7668 10.2212 22.7671 10.2213 22.7673C10.2213 22.7675 10.2213 22.7676 10.2213 22.7677C10.2213 22.7679 10.2214 22.7681 10.7165 22.6987ZM11.1789 22.4583L16.2095 22.2766L16.1734 21.2772L11.1427 21.459L11.1789 22.4583ZM16.1914 21.7769C16.2227 22.2759 16.2225 22.2759 16.2223 22.2759C16.2222 22.276 16.222 22.276 16.2219 22.276C16.2216 22.276 16.2214 22.276 16.2211 22.276C16.2207 22.276 16.2203 22.2761 16.2199 22.2761C16.2192 22.2761 16.2186 22.2762 16.2182 22.2762C16.2174 22.2762 16.2173 22.2762 16.2178 22.2762C16.2189 22.2762 16.2224 22.2761 16.2279 22.2761C16.2392 22.276 16.2579 22.2764 16.2813 22.2783C16.331 22.2822 16.3866 22.2918 16.4339 22.309C16.4813 22.3263 16.4974 22.3428 16.5006 22.3468C16.5017 22.3482 16.504 22.3511 16.5067 22.3591C16.5096 22.3677 16.515 22.3888 16.5146 22.428L17.5146 22.4372C17.5172 22.1549 17.4338 21.9095 17.2769 21.7164C17.1264 21.5311 16.9362 21.4279 16.777 21.3697C16.6177 21.3115 16.4663 21.2898 16.3607 21.2814C16.3064 21.2771 16.2603 21.276 16.2262 21.2761C16.2091 21.2761 16.1948 21.2764 16.1837 21.2768C16.1781 21.277 16.1733 21.2772 16.1694 21.2774C16.1674 21.2775 16.1657 21.2776 16.1642 21.2776C16.1634 21.2777 16.1627 21.2777 16.162 21.2778C16.1617 21.2778 16.1614 21.2778 16.1611 21.2778C16.1609 21.2778 16.1607 21.2778 16.1606 21.2779C16.1604 21.2779 16.1602 21.2779 16.1914 21.7769ZM16.5155 22.4618L16.5547 23.1305L17.553 23.072L17.5138 22.4033L16.5155 22.4618ZM17.0313 22.6017L10.707 22.8874L10.7522 23.8863L17.0764 23.6007L17.0313 22.6017ZM21.5471 26.3184L6.41593 26.5L6.42793 27.4999L21.5591 27.3183L21.5471 26.3184ZM27.5083 22.6999C27.5083 23.6055 26.7686 24.345 25.8494 24.345V25.345C27.3149 25.345 28.5083 24.1637 28.5083 22.6999H27.5083ZM25.8494 24.345C24.9303 24.345 24.1905 23.6055 24.1905 22.6999H23.1905C23.1905 24.1637 24.384 25.345 25.8494 25.345V24.345ZM24.1905 22.6999C24.1905 21.7943 24.9302 21.0547 25.8494 21.0547V20.0547C24.384 20.0547 23.1905 21.236 23.1905 22.6999H24.1905ZM25.8494 21.0547C26.7686 21.0547 27.5083 21.7943 27.5083 22.6999H28.5083C28.5083 21.236 27.3149 20.0547 25.8494 20.0547V21.0547Z" fill="#333333"/>
</svg>
