<svg width="32" height="32" viewBox="0 0 32 32" fill="none" xmlns="http://www.w3.org/2000/svg">
<path d="M12.7588 29.4117C12.7588 29.4117 6.85943 28.0694 5.16416 24.2886M13.0496 29.7548C13.4509 29.8351 13.8521 29.8953 14.2534 29.9421C21.6699 30.7847 28.625 25.8092 30.1029 18.3525C31.6678 10.4947 26.5652 2.85745 18.7073 1.29256C10.8494 -0.272326 3.21222 4.84366 1.64732 12.7016C1.64732 12.7016 1.02681 15.9918 1.97644 18.3525M2.62163 20.7878C2.62163 20.7878 3.35665 22.4718 7.21756 22.1082C11.0785 21.7447 13.8081 27.4849 12.9983 29.5141C12.9983 29.5141 11.6937 32.1183 7.07452 29.9501C2.45538 27.782 2.62163 20.7878 2.62163 20.7878ZM16.1795 8.6019L16.5072 14.3331H19.7306L14.1264 21.0675L15.1028 15.6506H12.3074L16.1795 8.6019Z" stroke="#333333" stroke-linecap="round" stroke-linejoin="round"/>
</svg>
