<svg width="32" height="32" viewBox="0 0 32 32" fill="none" xmlns="http://www.w3.org/2000/svg">
<g clip-path="url(#clip0_2_2807)">
<path d="M26.3751 10.5309V11.0309H26.8751V10.5309H26.3751ZM10.4213 19.2998L10.1512 19.7206L10.1689 19.7319L10.1875 19.7417L10.4213 19.2998ZM12.3951 23.1028L11.9036 23.1946L11.9799 23.6028H12.3951V23.1028ZM19.5988 23.1028V23.6028H20.0272L20.0929 23.1794L19.5988 23.1028ZM21.7486 19.1929L21.4702 18.7776L21.4391 18.7984L21.4116 18.8236L21.7486 19.1929ZM26.3688 10.5309V10.0309H25.8688V10.5309H26.3688ZM11.3633 13.602C11.3023 13.8713 11.4711 14.1391 11.7404 14.2001C12.0098 14.2611 12.2776 14.0923 12.3386 13.823L11.3633 13.602ZM17.8124 9.47058C17.9329 9.2221 17.8291 8.92301 17.5806 8.80253C17.3321 8.68206 17.0331 8.78583 16.9126 9.0343L17.8124 9.47058ZM13.0806 12.474L12.7065 12.8056C12.8442 12.9611 13.0638 13.0152 13.258 12.9415C13.4522 12.8678 13.5806 12.6817 13.5806 12.474H13.0806ZM13.642 8.34814L13.3312 7.95651L13.3305 7.95702L13.642 8.34814ZM19.0778 5.85303L19.5368 5.65474C19.4613 5.47998 19.2931 5.36326 19.103 5.35366C18.9129 5.34407 18.7338 5.44327 18.6411 5.60954L19.0778 5.85303ZM17.0728 12.8839L16.8346 12.4443C16.8187 12.4529 16.8034 12.4623 16.7885 12.4726L17.0728 12.8839ZM13.0806 12.4695L13.4163 12.099C13.2697 11.9662 13.0587 11.9323 12.8779 12.0125C12.6972 12.0926 12.5806 12.2718 12.5806 12.4695H13.0806ZM12.238 23.5963H19.3537V22.5963H12.238V23.5963ZM19.3537 23.5963C19.5254 23.5963 19.6646 23.7355 19.6646 23.9072H20.6646C20.6646 23.1832 20.0777 22.5963 19.3537 22.5963V23.5963ZM19.6646 23.9072V24.2152H20.6646V23.9072H19.6646ZM19.6646 24.2152C19.6646 24.3869 19.5254 24.5261 19.3537 24.5261V25.5261C20.0777 25.5261 20.6646 24.9392 20.6646 24.2152H19.6646ZM19.3537 24.5261H12.238V25.5261H19.3537V24.5261ZM12.238 24.5261C12.0663 24.5261 11.9271 24.3869 11.9271 24.2152H10.9271C10.9271 24.9392 11.514 25.5261 12.238 25.5261V24.5261ZM11.9271 24.2152V23.9072H10.9271V24.2152H11.9271ZM11.9271 23.9072C11.9271 23.7355 12.0663 23.5963 12.238 23.5963V22.5963C11.514 22.5963 10.9271 23.1832 10.9271 23.9072H11.9271ZM12.2254 25.5261H19.3411V24.5261H12.2254V25.5261ZM19.3411 25.5261C19.5128 25.5261 19.652 25.6653 19.652 25.837H20.652C20.652 25.113 20.0651 24.5261 19.3411 24.5261V25.5261ZM19.652 25.837V26.145H20.652V25.837H19.652ZM19.652 26.145C19.652 26.3167 19.5128 26.4559 19.3411 26.4559V27.4559C20.0651 27.4559 20.652 26.869 20.652 26.145H19.652ZM19.3411 26.4559H12.2254V27.4559H19.3411V26.4559ZM12.2254 26.4559C12.0537 26.4559 11.9146 26.3167 11.9146 26.145H10.9146C10.9146 26.869 11.5015 27.4559 12.2254 27.4559V26.4559ZM11.9146 26.145V25.837H10.9146V26.145H11.9146ZM11.9146 25.837C11.9146 25.6653 12.0537 25.5261 12.2254 25.5261V24.5261C11.5015 24.5261 10.9146 25.113 10.9146 25.837H11.9146ZM13.847 27.6633H17.9517V26.6633H13.847V27.6633ZM17.9517 27.6633C18.0227 27.6633 18.0803 27.7209 18.0803 27.7919H19.0803C19.0803 27.1686 18.575 26.6633 17.9517 26.6633V27.6633ZM18.0803 27.7919V29.2503H19.0803V27.7919H18.0803ZM18.0803 29.2503C18.0803 29.3213 18.0227 29.3789 17.9517 29.3789V30.3789C18.575 30.3789 19.0803 29.8736 19.0803 29.2503H18.0803ZM17.9517 29.3789H13.847V30.3789H17.9517V29.3789ZM13.847 29.3789C13.776 29.3789 13.7184 29.3213 13.7184 29.2503H12.7184C12.7184 29.8736 13.2237 30.3789 13.847 30.3789V29.3789ZM13.7184 29.2503V27.7919H12.7184V29.2503H13.7184ZM13.7184 27.7919C13.7184 27.7209 13.776 27.6633 13.847 27.6633V26.6633C13.2237 26.6633 12.7184 27.1686 12.7184 27.7919H13.7184ZM26.8751 10.5309C26.8751 4.50467 22.0075 -0.378662 16.0032 -0.378662V0.621338C21.452 0.621338 25.8751 5.0538 25.8751 10.5309H26.8751ZM16.0032 -0.378662C9.99941 -0.378662 5.12512 4.50427 5.12512 10.5309H6.12512C6.12512 5.05419 10.5541 0.621338 16.0032 0.621338V-0.378662ZM5.12512 10.5309C5.12512 14.3985 7.13543 17.7847 10.1512 19.7206L10.6914 18.879C7.94925 17.1188 6.12512 14.043 6.12512 10.5309H5.12512ZM10.1875 19.7417C10.4305 19.8703 10.6721 20.1208 10.9001 20.4767C11.1247 20.8273 11.3131 21.2436 11.4651 21.6533C11.6163 22.0609 11.7266 22.4488 11.7991 22.7355C11.8352 22.8784 11.8617 22.9951 11.879 23.0753C11.8877 23.1153 11.894 23.1462 11.8981 23.1665C11.9001 23.1767 11.9016 23.1842 11.9025 23.189C11.903 23.1913 11.9033 23.193 11.9035 23.194C11.9036 23.1944 11.9036 23.1947 11.9036 23.1948C11.9037 23.1949 11.9037 23.1949 11.9036 23.1949C11.9036 23.1949 11.9036 23.1948 11.9036 23.1948C11.9036 23.1947 11.9036 23.1946 12.3951 23.1028C12.8866 23.011 12.8866 23.0108 12.8865 23.0107C12.8865 23.0107 12.8865 23.0105 12.8865 23.0104C12.8864 23.0102 12.8864 23.0099 12.8863 23.0096C12.8862 23.009 12.8861 23.0082 12.8859 23.0072C12.8855 23.0052 12.885 23.0025 12.8843 22.999C12.883 22.9921 12.8811 22.9824 12.8786 22.9699C12.8736 22.9451 12.8663 22.9094 12.8565 22.8643C12.8371 22.7742 12.8079 22.6459 12.7685 22.4903C12.69 22.1798 12.5697 21.756 12.4027 21.3056C12.2364 20.8573 12.0189 20.3692 11.7421 19.9372C11.4686 19.5104 11.113 19.1001 10.6552 18.8578L10.1875 19.7417ZM12.3951 23.6028H19.5988V22.6028H12.3951V23.6028ZM19.5988 23.1028C20.0929 23.1794 20.0929 23.1796 20.0928 23.1797C20.0928 23.1798 20.0928 23.1799 20.0928 23.18C20.0928 23.1801 20.0928 23.1802 20.0928 23.1803C20.0927 23.1805 20.0927 23.1805 20.0927 23.1804C20.0928 23.1801 20.0929 23.1794 20.0931 23.1781C20.0935 23.1755 20.0943 23.1709 20.0955 23.1642C20.0979 23.1508 20.1018 23.1294 20.1076 23.1008C20.1192 23.0434 20.138 22.9568 20.1662 22.8467C20.2228 22.6262 20.3163 22.313 20.463 21.9507C20.7575 21.2234 21.2584 20.3172 22.0856 19.5623L21.4116 18.8236C20.441 19.7093 19.8671 20.758 19.5361 21.5755C19.37 21.9856 19.2632 22.3422 19.1975 22.5985C19.1647 22.7267 19.142 22.8303 19.1273 22.9034C19.1199 22.94 19.1145 22.969 19.1109 22.9896C19.109 23 19.1076 23.0083 19.1066 23.0144C19.1061 23.0174 19.1057 23.0199 19.1054 23.0219C19.1052 23.0229 19.1051 23.0237 19.105 23.0244C19.1049 23.0248 19.1049 23.0251 19.1048 23.0254C19.1048 23.0255 19.1048 23.0257 19.1048 23.0258C19.1047 23.026 19.1047 23.0261 19.5988 23.1028ZM22.027 19.6082C24.9445 17.6523 26.8688 14.3188 26.8688 10.5309H25.8688C25.8688 13.9719 24.1221 16.9997 21.4702 18.7776L22.027 19.6082ZM26.3688 11.0309H26.3751V10.0309H26.3688V11.0309ZM11.851 13.7125C12.3386 13.823 12.3385 13.8232 12.3385 13.8234C12.3385 13.8234 12.3384 13.8236 12.3384 13.8238C12.3384 13.824 12.3383 13.8242 12.3383 13.8244C12.3382 13.8248 12.3381 13.8251 12.3381 13.8253C12.338 13.8257 12.338 13.8257 12.338 13.8254C12.3382 13.8247 12.3387 13.8227 12.3396 13.8193C12.3413 13.8126 12.3445 13.8006 12.3494 13.7839C12.3591 13.7505 12.3754 13.6987 12.3999 13.6334C12.449 13.5022 12.5294 13.3199 12.6524 13.1233C12.898 12.7308 13.3034 12.2944 13.9638 12.0693L13.6412 11.1228C12.7065 11.4413 12.1362 12.0631 11.8047 12.5929C11.6392 12.8574 11.5308 13.1024 11.4633 13.283C11.4294 13.3737 11.4054 13.449 11.3894 13.5037C11.3814 13.5311 11.3754 13.5534 11.3711 13.57C11.369 13.5783 11.3673 13.5851 11.366 13.5905C11.3654 13.5932 11.3648 13.5955 11.3644 13.5974C11.3641 13.5983 11.3639 13.5992 11.3638 13.6C11.3637 13.6003 11.3636 13.6007 11.3635 13.601C11.3635 13.6012 11.3634 13.6014 11.3634 13.6015C11.3634 13.6017 11.3633 13.602 11.851 13.7125ZM13.9638 12.0693C14.7931 11.7867 15.6136 11.405 16.2897 10.9724C16.9495 10.5503 17.537 10.0386 17.8124 9.47058L16.9126 9.0343C16.7602 9.34852 16.3653 9.73685 15.7508 10.1301C15.1526 10.5128 14.407 10.8618 13.6412 11.1228L13.9638 12.0693ZM13.0806 12.474C13.4548 12.1423 13.455 12.1425 13.4551 12.1427C13.4552 12.1428 13.4553 12.1429 13.4554 12.143C13.4556 12.1433 13.4558 12.1434 13.4559 12.1436C13.4561 12.1438 13.4563 12.144 13.4563 12.144C13.4564 12.1441 13.456 12.1437 13.4552 12.1428C13.4536 12.1409 13.4504 12.1372 13.4458 12.1315C13.4365 12.1203 13.4216 12.1016 13.4023 12.0762C13.3638 12.0251 13.3088 11.9475 13.2487 11.848C13.1273 11.6467 12.9923 11.3677 12.9229 11.0445C12.8542 10.7251 12.8501 10.3666 12.9827 9.98956C13.1152 9.61301 13.3963 9.18302 13.9535 8.73926L13.3305 7.95702C12.6513 8.49794 12.244 9.07603 12.0394 9.65771C11.835 10.2389 11.8451 10.7888 11.9452 11.2546C12.0445 11.7168 12.2328 12.0999 12.3925 12.3646C12.473 12.498 12.548 12.6043 12.6043 12.6788C12.6325 12.7162 12.6562 12.7458 12.6737 12.767C12.6825 12.7777 12.6897 12.7863 12.6952 12.7927C12.698 12.796 12.7003 12.7987 12.7022 12.8008C12.7031 12.8019 12.704 12.8028 12.7047 12.8036C12.705 12.804 12.7054 12.8044 12.7057 12.8047C12.7058 12.8049 12.706 12.8051 12.7061 12.8052C12.7063 12.8054 12.7065 12.8056 13.0806 12.474ZM13.642 8.34814C13.9529 8.73978 13.9527 8.73988 13.9526 8.73997C13.9526 8.74 13.9525 8.74009 13.9524 8.74014C13.9523 8.74025 13.9522 8.74034 13.9521 8.74041C13.9519 8.74056 13.9518 8.74065 13.9517 8.74069C13.9516 8.74075 13.9519 8.74058 13.9524 8.74019C13.9534 8.73939 13.9556 8.73769 13.9589 8.73515C13.9656 8.73007 13.9769 8.72162 13.9926 8.71033C14.0239 8.68773 14.0724 8.65386 14.1364 8.61274C14.2647 8.53028 14.4529 8.42006 14.6864 8.31335C15.1577 8.09799 15.7871 7.9089 16.471 7.96431L16.5518 6.96757C15.6407 6.89377 14.8354 7.14579 14.2707 7.40382C13.9863 7.53382 13.7562 7.66838 13.5957 7.77151C13.5153 7.8232 13.4518 7.86733 13.4072 7.89954C13.3849 7.91565 13.3673 7.92881 13.3545 7.93848C13.3482 7.94332 13.343 7.94728 13.3391 7.95031C13.3372 7.95182 13.3355 7.9531 13.3342 7.95413C13.3335 7.95465 13.333 7.95511 13.3325 7.95551C13.3322 7.95571 13.332 7.95589 13.3318 7.95606C13.3317 7.95614 13.3315 7.95625 13.3315 7.95629C13.3313 7.9564 13.3312 7.95651 13.642 8.34814ZM16.471 7.96431C17.4703 8.04526 18.2454 7.53675 18.7368 7.07073C18.9864 6.83404 19.1779 6.59472 19.3071 6.41511C19.372 6.32482 19.4221 6.24832 19.4567 6.19302C19.4741 6.16533 19.4876 6.14285 19.4972 6.12648C19.5021 6.1183 19.5059 6.11163 19.5088 6.1066C19.5103 6.10409 19.5115 6.10198 19.5124 6.10029C19.5129 6.09945 19.5133 6.09871 19.5136 6.09808C19.5138 6.09777 19.514 6.09748 19.5141 6.09722C19.5142 6.09709 19.5143 6.09691 19.5143 6.09684C19.5144 6.09667 19.5145 6.09651 19.0778 5.85303C18.6411 5.60954 18.6412 5.60939 18.6413 5.60925C18.6413 5.60921 18.6414 5.60908 18.6414 5.609C18.6415 5.60884 18.6416 5.60871 18.6416 5.60861C18.6417 5.6084 18.6418 5.60829 18.6418 5.60828C18.6418 5.60827 18.6416 5.60866 18.6412 5.60944C18.6403 5.61099 18.6385 5.6141 18.6358 5.61864C18.6304 5.62773 18.6215 5.64255 18.6092 5.66225C18.5845 5.70171 18.5462 5.76031 18.4952 5.83132C18.3923 5.97433 18.2413 6.16246 18.0487 6.34514C17.6557 6.71788 17.1476 7.01584 16.5518 6.96757L16.471 7.96431ZM19.0778 5.85303C18.6188 6.05132 18.6187 6.05114 18.6187 6.05098C18.6187 6.05095 18.6186 6.0508 18.6186 6.05074C18.6185 6.05063 18.6185 6.05058 18.6185 6.0506C18.6185 6.05065 18.6187 6.05098 18.6189 6.0516C18.6195 6.05283 18.6205 6.0552 18.6219 6.05866C18.6248 6.06559 18.6294 6.07691 18.6356 6.09241C18.6479 6.12341 18.6663 6.17104 18.6887 6.23351C18.7337 6.35857 18.7948 6.54231 18.8564 6.77051C18.9801 7.22898 19.1031 7.85599 19.1075 8.54126C19.1162 9.89712 18.6688 11.4502 16.8346 12.4443L17.3111 13.3235C19.5626 12.1032 20.1177 10.1408 20.1075 8.53487C20.1024 7.73922 19.9605 7.02371 19.8218 6.50989C19.7522 6.25195 19.6826 6.0421 19.6297 5.89511C19.6033 5.82155 19.581 5.76354 19.5648 5.72291C19.5567 5.70259 19.5502 5.6866 19.5454 5.67516C19.5431 5.66945 19.5411 5.66487 19.5397 5.66145C19.539 5.65975 19.5384 5.65833 19.5379 5.65721C19.5376 5.65665 19.5374 5.65616 19.5373 5.65575C19.5372 5.65554 19.5371 5.65529 19.537 5.65519C19.5369 5.65495 19.5368 5.65474 19.0778 5.85303ZM17.0728 12.8839C16.7885 12.4726 16.7888 12.4724 16.789 12.4723C16.789 12.4723 16.7892 12.4721 16.7893 12.472C16.7895 12.4719 16.7897 12.4718 16.7899 12.4716C16.7903 12.4714 16.7905 12.4713 16.7906 12.4712C16.7908 12.471 16.7906 12.4712 16.7898 12.4717C16.7884 12.4726 16.7852 12.4747 16.7803 12.4779C16.7703 12.4843 16.7535 12.4948 16.7301 12.5085C16.6834 12.5358 16.6113 12.5754 16.5178 12.6189C16.3296 12.7063 16.0612 12.8065 15.742 12.8582C15.1198 12.9589 14.2813 12.8825 13.4163 12.099L12.745 12.8401C13.8671 13.8566 15.0247 13.9874 15.9019 13.8453C16.3322 13.7756 16.6893 13.6418 16.9392 13.5257C17.0647 13.4674 17.1648 13.4128 17.2354 13.3714C17.2708 13.3507 17.2989 13.3332 17.3194 13.3202C17.3296 13.3136 17.3378 13.3082 17.3442 13.304C17.3473 13.3019 17.35 13.3001 17.3521 13.2986C17.3532 13.2979 17.3542 13.2972 17.355 13.2967C17.3554 13.2964 17.3558 13.2961 17.3561 13.2959C17.3563 13.2958 17.3565 13.2956 17.3566 13.2955C17.3569 13.2954 17.3571 13.2952 17.0728 12.8839ZM12.5806 12.4695V12.474H13.5806V12.4695H12.5806Z" fill="#333333"/>
</g>
<defs>
<clipPath id="clip0_2_2807">
<rect width="32" height="32" fill="white"/>
</clipPath>
</defs>
</svg>
