<svg width="32" height="32" viewBox="0 0 32 32" fill="none" xmlns="http://www.w3.org/2000/svg">
<g clip-path="url(#clip0_2_2839)">
<path d="M27.485 10.5566L29.9581 11.2294L30.7463 8.78197M29.6616 10.8161C29.6616 10.8161 26.6854 2.53373 18.6296 1.04998C10.5738 -0.433767 6.62415 4.12266 6.62415 4.12266M15.2674 27.3388L13.2413 29.2469L15.0819 31.1412M29.8574 15.5496C29.8574 15.5496 29.2253 30.0106 14.0423 29.2078M1.49365 7.8114L3.79972 6.90104L4.85284 9.13927M9.6787 27.8183C9.6787 27.8183 -3.51274 20.0397 3.59766 7.41681M16.233 7.41681L16.6306 14.2882H20.5351L13.7419 22.3703L14.9257 15.8705H11.5379L16.233 7.41681Z" stroke="#333333" stroke-linecap="round" stroke-linejoin="round"/>
</g>
<defs>
<clipPath id="clip0_2_2839">
<rect width="32" height="32" fill="white"/>
</clipPath>
</defs>
</svg>
