<svg width="32" height="32" viewBox="0 0 32 32" fill="none" xmlns="http://www.w3.org/2000/svg">
<path d="M7.14729 8.77771L11.1242 12.2308C11.1242 12.2308 12.8291 13.5745 13.2389 15.6013C13.2389 15.6013 14.0804 19.4981 17.889 21.6593C17.889 21.6593 21.0528 23.4005 25.3695 22.0288M16.5959 13.374C16.5959 13.374 18.0163 12.257 20.5439 12.9814M15.73 10.7584C15.73 10.7584 17.1504 9.64142 19.6781 10.3658M17.3346 15.8734C17.3346 15.8734 18.7774 15.1712 21.333 15.6301M10.7404 3.60295C10.7404 3.60295 12.0042 0.583767 15.1638 4.79735M2.63306 29.4445L29.5146 29.4445M2.63306 24.9445L29.5146 24.9445M10.6467 3.72498L6.64828 9.52556C5.44037 11.66 7.49269 12.6166 9.77989 14.2589C11.5191 15.5086 11.8826 17.7205 11.8826 17.7205C13.9628 25.3956 23.3801 24.6436 23.3801 24.6436C26.2992 24.3339 25.8015 22.664 25.8015 22.664C26.2209 20.4798 23.5646 19.2024 22.7761 18.4504C21.9876 17.6984 21.7248 16.6533 21.7248 16.6533C21.7248 16.6533 18.856 8.1708 18.6994 6.19119C18.5428 4.21158 17.3852 4.16182 16.7254 4.16182C15.8698 4.16182 15.5398 4.31665 15.249 5.04656C14.0233 7.46478 10.6467 3.72498 10.6467 3.72498Z" stroke="#333333" stroke-linecap="round"/>
</svg>
