<svg width="32" height="32" viewBox="0 0 32 32" fill="none" xmlns="http://www.w3.org/2000/svg">
<path d="M20.0854 17.277C19.9451 17.5148 20.0241 17.8214 20.2619 17.9617C20.4998 18.1021 20.8063 18.023 20.9466 17.7852L20.0854 17.277ZM21.9583 24.1785C21.7511 23.996 21.4351 24.016 21.2526 24.2232C21.0701 24.4304 21.0901 24.7464 21.2973 24.9289L21.9583 24.1785ZM16.1812 25.8849H15.6812C15.6812 26.0416 15.7547 26.1893 15.8797 26.2838C16.0048 26.3783 16.1669 26.4087 16.3176 26.3659L16.1812 25.8849ZM24.7236 23.4624L24.6166 22.974C24.6067 22.9762 24.5969 22.9786 24.5872 22.9814L24.7236 23.4624ZM26.9778 20.3209L26.4779 20.331C26.4781 20.3443 26.4789 20.3576 26.4803 20.3708L26.9778 20.3209ZM23.6322 17.7352L23.6026 18.2343C23.6217 18.2354 23.6409 18.2355 23.6601 18.2344L23.6322 17.7352ZM15.2938 17.2405L15.3234 16.7414C15.3152 16.7409 15.307 16.7406 15.2988 16.7405L15.2938 17.2405ZM10.4744 22.3302L9.97544 22.3624C9.9768 22.3836 9.97951 22.4046 9.98355 22.4254L10.4744 22.3302ZM16.1812 25.8798H16.6812C16.6812 25.7232 16.6079 25.5756 16.483 25.4811C16.3582 25.3866 16.1963 25.356 16.0456 25.3985L16.1812 25.8798ZM17.1347 25.6145L17.624 25.7173C17.655 25.5699 17.6178 25.4163 17.5229 25.2994C17.428 25.1824 17.2853 25.1145 17.1347 25.1145V25.6145ZM16.4717 28.7706V29.2706C16.7082 29.2706 16.9124 29.1049 16.961 28.8734L16.4717 28.7706ZM15.1457 28.7706L14.6562 28.8725C14.7045 29.1044 14.9089 29.2706 15.1457 29.2706V28.7706ZM14.6204 26.2472L14.6692 25.7496C14.5109 25.734 14.3547 25.7948 14.2484 25.9131C14.1421 26.0315 14.0985 26.1934 14.1309 26.3491L14.6204 26.2472ZM16.1759 26.0072L15.9855 25.5448L15.9774 25.5483L16.1759 26.0072ZM17.1296 25.6145V25.1145C17.0643 25.1145 16.9996 25.1273 16.9392 25.1522L17.1296 25.6145ZM19.2227 17.3566C19.1404 17.6202 19.2874 17.9006 19.551 17.9829C19.8146 18.0652 20.095 17.9182 20.1773 17.6546L19.2227 17.3566ZM21.383 12.115L21.8603 12.264C21.9077 12.1122 21.88 11.9469 21.7858 11.8188C21.6916 11.6906 21.542 11.615 21.383 11.615V12.115ZM18.5066 12.115V11.615C18.2883 11.615 18.0953 11.7566 18.0297 11.9649L18.5066 12.115ZM16.4436 17.0036C16.3607 17.267 16.507 17.5477 16.7704 17.6306C17.0338 17.7136 17.3146 17.5672 17.3975 17.3038L16.4436 17.0036ZM11.4483 18.8623L10.9567 18.9536C10.9906 19.1361 11.1228 19.2848 11.3002 19.3398C11.4775 19.3949 11.6707 19.3471 11.8019 19.2158L11.4483 18.8623ZM10.3139 12.7519L9.82049 12.8336L9.82225 12.8431L10.3139 12.7519ZM6.06461 9.32532L5.58442 9.18594C5.55688 9.28085 5.55807 9.3818 5.58786 9.47603L6.06461 9.32532ZM10.4742 22.3863L10.8278 22.0328L10.8256 22.0306L10.4742 22.3863ZM10.4691 22.2435L10.9677 22.2052C10.9671 22.1981 10.9664 22.191 10.9656 22.1839L10.4691 22.2435ZM11.4534 18.8572L11.8289 19.1873C12.0071 18.9846 11.9923 18.6771 11.7954 18.4925C11.5985 18.3078 11.2907 18.3128 11.0998 18.5037L11.4534 18.8572ZM10.9237 15.6134C10.6585 15.6901 10.5055 15.9673 10.5822 16.2326C10.6589 16.4979 10.9361 16.6508 11.2014 16.5741L10.9237 15.6134ZM20.4294 9.74359L20.4237 10.2436H20.4294V9.74359ZM23.6321 9.74359V10.2436C23.9083 10.2436 24.1321 10.0197 24.1321 9.74359H23.6321ZM23.6321 8.48901H24.1321C24.1321 8.48315 24.132 8.47729 24.1318 8.47143L23.6321 8.48901ZM18.7362 7.47412V6.97412C18.7247 6.97412 18.7132 6.97452 18.7017 6.97531L18.7362 7.47412ZM17.2623 9.70789H16.7623C16.7623 9.98183 16.9828 10.2048 17.2567 10.2079L17.2623 9.70789ZM8.7243 6.6838C9.00044 6.6838 9.2243 6.45995 9.2243 6.1838C9.2243 5.90766 9.00044 5.6838 8.7243 5.6838V6.6838ZM2.68582 6.1838L2.67198 6.6838H2.68582V6.1838ZM4.59553 11.1931C4.86939 11.2286 5.12014 11.0353 5.1556 10.7614C5.19107 10.4876 4.99781 10.2368 4.72395 10.2014L4.59553 11.1931ZM25.5088 29.1028L25.5126 28.6028C25.3206 28.6013 25.1447 28.71 25.06 28.8824C24.9754 29.0548 24.9969 29.2604 25.1155 29.4115L25.5088 29.1028ZM26.998 31L26.6047 31.3087C26.6995 31.4294 26.8445 31.5 26.998 31.5V31ZM28.8697 31V31.5C29.1458 31.5 29.3697 31.2761 29.3697 31H28.8697ZM28.8697 29.1283H29.3697C29.3697 28.8536 29.1481 28.6304 28.8735 28.6283L28.8697 29.1283ZM8.33233 29.1028L8.72564 29.4115C8.84422 29.2604 8.86579 29.0548 8.78115 28.8824C8.6965 28.71 8.52059 28.6013 8.32855 28.6028L8.33233 29.1028ZM6.84316 31V31.5C6.99667 31.5 7.14167 31.4294 7.23646 31.3087L6.84316 31ZM4.96638 31H4.46638C4.46638 31.2761 4.69024 31.5 4.96638 31.5V31ZM4.96638 29.1283L4.96259 28.6283C4.68794 28.6304 4.46638 28.8536 4.46638 29.1283H4.96638ZM6.12579 6.17354V6.67354C6.31949 6.67354 6.49577 6.56166 6.57823 6.38638C6.66068 6.21111 6.63448 6.00397 6.51098 5.85475L6.12579 6.17354ZM3.71685 6.17354L3.33105 6.49159C3.42603 6.6068 3.56753 6.67354 3.71685 6.67354V6.17354ZM1.10059 3V2.5C0.907056 2.5 0.730905 2.61168 0.648354 2.78672C0.565804 2.96177 0.59168 3.16873 0.714786 3.31805L1.10059 3ZM3.49933 3L3.88452 2.68121C3.78953 2.56644 3.64831 2.5 3.49933 2.5V3ZM6.40208 9.38855C6.54597 9.62424 6.85368 9.69867 7.08937 9.55478C7.32507 9.41089 7.39949 9.10318 7.2556 8.86749L6.40208 9.38855ZM19.5006 11.5517C19.4117 11.8131 19.5517 12.0971 19.8131 12.186C20.0746 12.2748 20.3586 12.1349 20.4474 11.8734L19.5006 11.5517ZM28.9617 29.6028C29.2379 29.6028 29.4617 29.3789 29.4617 29.1028C29.4617 28.8266 29.2379 28.6028 28.9617 28.6028V29.6028ZM20.9466 17.7852C21.8293 16.2894 23.4589 15.2874 25.3202 15.2874V14.2874C23.0912 14.2874 21.1407 15.4885 20.0854 17.277L20.9466 17.7852ZM25.3202 15.2874C28.1244 15.2874 30.3995 17.5625 30.3995 20.3667H31.3995C31.3995 17.0102 28.6767 14.2874 25.3202 14.2874V15.2874ZM30.3995 20.3667C30.3995 23.1709 28.1244 25.446 25.3202 25.446V26.446C28.6767 26.446 31.3995 23.7232 31.3995 20.3667H30.3995ZM25.3202 25.446C24.0334 25.446 22.8545 24.9679 21.9583 24.1785L21.2973 24.9289C22.3697 25.8735 23.7816 26.446 25.3202 26.446V25.446ZM16.3176 26.3659L24.86 23.9434L24.5872 22.9814L16.0448 25.4038L16.3176 26.3659ZM24.7236 23.4624C24.8306 23.9508 24.8308 23.9508 24.8311 23.9507C24.8312 23.9507 24.8315 23.9506 24.8317 23.9506C24.8321 23.9505 24.8325 23.9504 24.833 23.9503C24.8339 23.9501 24.835 23.9498 24.8363 23.9495C24.8388 23.949 24.842 23.9483 24.8457 23.9474C24.8531 23.9456 24.863 23.9432 24.875 23.9402C24.899 23.9341 24.932 23.9252 24.9725 23.9133C25.0534 23.8894 25.1653 23.8529 25.2971 23.8005C25.5592 23.6963 25.9096 23.5255 26.2543 23.2585C26.9613 22.7111 27.6255 21.7674 27.4753 20.2709L26.4803 20.3708C26.5901 21.4651 26.1272 22.0922 25.6421 22.4678C25.3908 22.6624 25.1289 22.7912 24.9276 22.8713C24.8278 22.9109 24.7453 22.9377 24.6897 22.9541C24.662 22.9623 24.6412 22.9678 24.6285 22.971C24.6222 22.9726 24.618 22.9736 24.6159 22.9741C24.6149 22.9744 24.6144 22.9745 24.6145 22.9744C24.6146 22.9744 24.6148 22.9744 24.6151 22.9743C24.6153 22.9743 24.6155 22.9742 24.6158 22.9742C24.6159 22.9741 24.6161 22.9741 24.6162 22.9741C24.6164 22.974 24.6166 22.974 24.7236 23.4624ZM26.9778 20.3209C27.4777 20.3107 27.4777 20.3104 27.4777 20.3101C27.4776 20.31 27.4776 20.3097 27.4776 20.3094C27.4776 20.309 27.4776 20.3084 27.4776 20.3079C27.4776 20.3068 27.4775 20.3055 27.4775 20.304C27.4774 20.3011 27.4773 20.2975 27.4771 20.2932C27.4768 20.2847 27.4763 20.2735 27.4754 20.2599C27.4738 20.2326 27.471 20.1954 27.4662 20.1497C27.4565 20.0585 27.4388 19.9324 27.4059 19.7833C27.3405 19.4871 27.2128 19.0881 26.9606 18.6911C26.7061 18.2905 26.3259 17.8942 25.7662 17.6145C25.2075 17.3353 24.4978 17.1861 23.6044 17.236L23.6601 18.2344C24.4114 18.1925 24.9422 18.3206 25.3192 18.509C25.6951 18.6969 25.9457 18.9585 26.1165 19.2273C26.2895 19.4996 26.3814 19.7815 26.4293 19.9988C26.4531 20.1064 26.4654 20.1952 26.4717 20.2547C26.4748 20.2844 26.4764 20.3065 26.4772 20.3197C26.4776 20.3263 26.4778 20.3307 26.4779 20.3326C26.4779 20.3336 26.4779 20.334 26.4779 20.3337C26.4779 20.3336 26.4779 20.3333 26.4779 20.3328C26.4779 20.3326 26.4779 20.3323 26.4779 20.332C26.4779 20.3319 26.4779 20.3316 26.4779 20.3315C26.4779 20.3313 26.4779 20.331 26.9778 20.3209ZM23.6618 17.2361L15.3234 16.7414L15.2642 17.7396L23.6026 18.2343L23.6618 17.2361ZM15.2938 17.2405C15.2988 16.7405 15.2985 16.7405 15.2982 16.7405C15.2981 16.7405 15.2978 16.7405 15.2976 16.7405C15.2971 16.7405 15.2965 16.7405 15.2959 16.7405C15.2946 16.7405 15.293 16.7405 15.2911 16.7405C15.2873 16.7405 15.2822 16.7405 15.276 16.7405C15.2635 16.7406 15.2461 16.7408 15.2244 16.7413C15.1808 16.7423 15.1193 16.7446 15.0424 16.7493C14.8888 16.7588 14.6729 16.7784 14.4161 16.819C13.9053 16.8998 13.2178 17.0659 12.5343 17.4113C11.8482 17.7581 11.1557 18.2911 10.6603 19.1066C10.1631 19.925 9.88699 20.9907 9.97544 22.3624L10.9734 22.298C10.8961 21.0994 11.1395 20.2437 11.5149 19.6258C11.892 19.0051 12.4251 18.587 12.9853 18.3038C13.5481 18.0194 14.1276 17.877 14.5723 17.8067C14.7932 17.7718 14.9771 17.7552 15.1039 17.7474C15.1672 17.7435 15.216 17.7418 15.2478 17.741C15.2636 17.7407 15.2752 17.7405 15.2822 17.7405C15.2857 17.7405 15.288 17.7405 15.2891 17.7405C15.2897 17.7405 15.2899 17.7405 15.2899 17.7405C15.2899 17.7405 15.2898 17.7405 15.2896 17.7405C15.2895 17.7405 15.2894 17.7405 15.2893 17.7405C15.2891 17.7405 15.2889 17.7405 15.2938 17.2405ZM9.98355 22.4254C10.237 23.7323 10.7542 24.6631 11.4182 25.3071C12.08 25.949 12.8563 26.2755 13.5803 26.4283C14.3014 26.5804 14.9816 26.563 15.4761 26.5101C15.7248 26.4835 15.9304 26.4475 16.0756 26.4176C16.1483 26.4027 16.2061 26.3892 16.247 26.3792C16.2674 26.3741 16.2836 26.37 16.2954 26.3669C16.3012 26.3653 16.306 26.364 16.3096 26.363C16.3114 26.3625 16.3129 26.3621 16.3141 26.3618C16.3147 26.3616 16.3153 26.3615 16.3157 26.3613C16.3159 26.3613 16.3162 26.3612 16.3164 26.3612C16.3166 26.3611 16.3169 26.361 16.1812 25.8798C16.0456 25.3985 16.0458 25.3985 16.046 25.3984C16.046 25.3984 16.0462 25.3983 16.0463 25.3983C16.0465 25.3983 16.0466 25.3982 16.0466 25.3982C16.0467 25.3982 16.0464 25.3983 16.046 25.3984C16.045 25.3987 16.0429 25.3993 16.0397 25.4001C16.0334 25.4018 16.0228 25.4045 16.0081 25.4081C15.9788 25.4153 15.9335 25.4259 15.8742 25.4381C15.7555 25.4625 15.5819 25.4931 15.3697 25.5158C14.9424 25.5615 14.3738 25.5737 13.7868 25.4498C13.2027 25.3266 12.6115 25.0714 12.1144 24.5892C11.6194 24.1092 11.1861 23.3736 10.9653 22.235L9.98355 22.4254ZM15.6812 25.8798V25.8849H16.6812V25.8798H15.6812ZM16.6454 25.5117L15.9824 28.6678L16.961 28.8734L17.624 25.7173L16.6454 25.5117ZM16.4717 28.2706H15.1457V29.2706H16.4717V28.2706ZM15.6352 28.6687L15.1099 26.1453L14.1309 26.3491L14.6562 28.8725L15.6352 28.6687ZM14.6204 26.2472C14.5717 26.7448 14.5718 26.7448 14.5719 26.7448C14.5719 26.7448 14.5721 26.7448 14.5722 26.7448C14.5723 26.7449 14.5725 26.7449 14.5727 26.7449C14.5731 26.7449 14.5736 26.745 14.5741 26.745C14.5751 26.7451 14.5764 26.7452 14.5778 26.7454C14.5806 26.7456 14.5843 26.7459 14.5887 26.7463C14.5975 26.747 14.6094 26.7479 14.6241 26.7489C14.6536 26.7509 14.6946 26.753 14.7453 26.7545C14.8465 26.7574 14.9878 26.7573 15.1545 26.746C15.4834 26.7239 15.9339 26.6567 16.3745 26.4661L15.9774 25.5483C15.6784 25.6777 15.3512 25.7305 15.0872 25.7483C14.9575 25.7571 14.8486 25.757 14.7737 25.7549C14.7363 25.7538 14.7078 25.7523 14.6898 25.7511C14.6807 25.7505 14.6744 25.75 14.6709 25.7497C14.6691 25.7495 14.6681 25.7495 14.6678 25.7494C14.6677 25.7494 14.6677 25.7494 14.6679 25.7494C14.6681 25.7495 14.6682 25.7495 14.6684 25.7495C14.6685 25.7495 14.6687 25.7495 14.6688 25.7495C14.6689 25.7495 14.669 25.7495 14.669 25.7495C14.6691 25.7496 14.6692 25.7496 14.6204 26.2472ZM16.3663 26.4695L17.32 26.0768L16.9392 25.1522L15.9855 25.5449L16.3663 26.4695ZM17.1296 26.1145H17.1347V25.1145H17.1296V26.1145ZM20.1773 17.6546L21.8603 12.264L20.9057 11.966L19.2227 17.3566L20.1773 17.6546ZM21.383 11.615H18.5066V12.615H21.383V11.615ZM18.0297 11.9649L16.4436 17.0036L17.3975 17.3038L18.9836 12.2651L18.0297 11.9649ZM11.9399 18.771L10.8055 12.6606L9.82225 12.8431L10.9567 18.9536L11.9399 18.771ZM10.3139 12.7519C10.8071 12.6701 10.8071 12.67 10.8071 12.6698C10.8071 12.6698 10.807 12.6696 10.807 12.6695C10.807 12.6692 10.8069 12.6689 10.8069 12.6685C10.8067 12.6677 10.8066 12.6668 10.8064 12.6657C10.806 12.6634 10.8055 12.6604 10.8048 12.6567C10.8035 12.6491 10.8016 12.6386 10.7992 12.6254C10.7943 12.5988 10.7871 12.5611 10.7774 12.5138C10.7579 12.4192 10.7283 12.2856 10.687 12.1253C10.6046 11.8062 10.4738 11.3735 10.2799 10.9287C9.9136 10.0881 9.22674 8.98734 8.02504 8.82957L7.89487 9.82106C8.51894 9.90299 9.00903 10.5155 9.3632 11.3282C9.52962 11.7101 9.6449 12.0892 9.71866 12.3751C9.75533 12.5173 9.78126 12.6345 9.79783 12.7151C9.80611 12.7554 9.81203 12.7864 9.81576 12.8067C9.81763 12.8168 9.81895 12.8242 9.81975 12.8288C9.82014 12.8311 9.82041 12.8326 9.82055 12.8334C9.82062 12.8338 9.82065 12.8341 9.82066 12.8341C9.82066 12.8341 9.82066 12.8341 9.82064 12.834C9.82064 12.834 9.82062 12.8339 9.82062 12.8338C9.8206 12.8337 9.82058 12.8336 10.3139 12.7519ZM8.02504 8.82957C7.09964 8.70808 6.57599 8.70142 6.26707 8.73911C6.11332 8.75786 5.97954 8.79122 5.86839 8.8506C5.81021 8.88169 5.75091 8.9238 5.69924 8.98131C5.67328 9.0102 5.6499 9.04228 5.63012 9.07741C5.62028 9.09489 5.61152 9.11281 5.60385 9.13106C5.60003 9.14018 5.59649 9.14932 5.59325 9.15849C5.59163 9.16307 5.59009 9.16765 5.58862 9.17223C5.58788 9.17452 5.58716 9.17681 5.58647 9.17909C5.58612 9.18023 5.5856 9.18194 5.58543 9.18252C5.58492 9.18423 5.58442 9.18594 6.06461 9.32532C6.54479 9.46469 6.54429 9.4664 6.54378 9.46811C6.54361 9.46868 6.5431 9.47038 6.54275 9.47152C6.54206 9.47379 6.54135 9.47605 6.54062 9.47831C6.53917 9.48283 6.53765 9.48733 6.53607 9.4918C6.53291 9.50073 6.52951 9.50954 6.52587 9.51821C6.51858 9.53557 6.51043 9.55217 6.50154 9.56795C6.48367 9.5997 6.46357 9.62686 6.44308 9.64966C6.40235 9.69499 6.36275 9.72026 6.33962 9.73261C6.29857 9.75455 6.29629 9.74296 6.38816 9.73175C6.57047 9.70951 6.99449 9.70286 7.89487 9.82106L8.02504 8.82957ZM6.06461 9.32532C5.58786 9.47603 5.58788 9.47608 5.58791 9.47618C5.58794 9.47628 5.58799 9.47643 5.58805 9.47663C5.58817 9.47702 5.58836 9.4776 5.5886 9.47837C5.58909 9.47992 5.58982 9.48223 5.59079 9.48528C5.59272 9.49139 5.5956 9.5005 5.5994 9.51251C5.607 9.53652 5.61828 9.57214 5.633 9.61861C5.66245 9.71153 5.70567 9.84782 5.76082 10.0214C5.87112 10.3686 6.02912 10.8649 6.22 11.4618C6.60172 12.6553 7.11503 14.2513 7.6412 15.8602C8.16716 17.4684 8.70677 19.092 9.14087 20.3399C9.3577 20.9632 9.54965 21.4969 9.70116 21.8895C9.77664 22.085 9.84434 22.2515 9.90159 22.3786C9.93001 22.4417 9.95872 22.5015 9.98689 22.5531C10.0069 22.5897 10.0529 22.673 10.1229 22.7421L10.8256 22.0306C10.8701 22.0745 10.8836 22.1087 10.8645 22.0737C10.8536 22.0538 10.8367 22.0197 10.8134 21.968C10.7672 21.8654 10.7071 21.7185 10.6341 21.5294C10.4887 21.1526 10.3011 20.6314 10.0854 20.0113C9.6544 18.7725 9.1171 17.156 8.59166 15.5493C8.06641 13.9433 7.55381 12.3495 7.17248 11.1571C6.98182 10.561 6.82401 10.0653 6.71388 9.71861C6.65881 9.54528 6.61566 9.40923 6.58629 9.31654C6.5716 9.27019 6.56036 9.23468 6.55279 9.21077C6.54901 9.19882 6.54614 9.18976 6.54423 9.1837C6.54327 9.18067 6.54255 9.17839 6.54207 9.17687C6.54183 9.17611 6.54165 9.17554 6.54153 9.17516C6.54147 9.17497 6.54142 9.17483 6.54139 9.17474C6.54136 9.17465 6.54135 9.1746 6.06461 9.32532ZM10.1207 22.7399C10.1422 22.7614 10.1989 22.8152 10.2891 22.852C10.3964 22.8956 10.5685 22.9184 10.7364 22.8181C10.8761 22.7347 10.9305 22.6126 10.9485 22.5659C10.9696 22.5109 10.9765 22.4642 10.9792 22.442C10.988 22.369 10.979 22.3 10.9784 22.2946C10.9702 22.2169 10.9702 22.2387 10.9677 22.2052L9.97061 22.2819C9.97294 22.3121 9.97662 22.3416 9.97899 22.3601C9.98205 22.384 9.98321 22.3923 9.98406 22.4004C9.98667 22.4249 9.97931 22.3805 9.98638 22.322C9.98863 22.3033 9.99484 22.2596 10.0151 22.2069C10.0322 22.1625 10.0854 22.0421 10.2237 21.9595C10.3903 21.8601 10.5607 21.8828 10.6661 21.9257C10.7544 21.9617 10.8088 22.0138 10.8278 22.0328L10.1207 22.7399ZM10.9656 22.1839C10.8597 21.3033 11.0763 20.5511 11.3253 20.0123C11.4495 19.7435 11.5801 19.5316 11.6781 19.3889C11.727 19.3177 11.7674 19.2642 11.7943 19.23C11.8078 19.2129 11.8178 19.2007 11.8238 19.1935C11.8268 19.1899 11.8288 19.1876 11.8297 19.1865C11.8301 19.186 11.8303 19.1858 11.8302 19.1859C11.8301 19.186 11.83 19.1862 11.8298 19.1864C11.8297 19.1865 11.8295 19.1866 11.8294 19.1868C11.8293 19.1869 11.8292 19.187 11.8292 19.187C11.8291 19.1872 11.8289 19.1873 11.4534 18.8572C11.0779 18.5271 11.0778 18.5272 11.0776 18.5274C11.0776 18.5274 11.0774 18.5276 11.0773 18.5277C11.0771 18.528 11.0769 18.5282 11.0766 18.5285C11.0761 18.5291 11.0756 18.5297 11.0749 18.5305C11.0736 18.532 11.0721 18.5338 11.0702 18.536C11.0665 18.5403 11.0616 18.5461 11.0557 18.5532C11.0439 18.5674 11.0278 18.587 11.0083 18.6118C10.9692 18.6616 10.9158 18.7324 10.8537 18.8229C10.7297 19.0035 10.5693 19.2643 10.4175 19.5929C10.1144 20.2487 9.83887 21.1897 9.97271 22.3032L10.9656 22.1839ZM11.0998 18.5037L11.0947 18.5088L11.8019 19.2158L11.807 19.2107L11.0998 18.5037ZM11.2014 16.5741L18.0139 14.6053L17.7362 13.6447L10.9237 15.6134L11.2014 16.5741ZM20.4294 10.2436H23.6321V9.24359H20.4294V10.2436ZM24.1321 9.74359V8.48901H23.1321V9.74359H24.1321ZM23.6321 8.48901C24.1318 8.47143 24.1318 8.47103 24.1318 8.47062C24.1318 8.47048 24.1318 8.47007 24.1318 8.46979C24.1317 8.46922 24.1317 8.46864 24.1317 8.46804C24.1316 8.46684 24.1316 8.46557 24.1315 8.46423C24.1314 8.46156 24.1312 8.45861 24.131 8.4554C24.1306 8.44897 24.1301 8.44148 24.1293 8.43298C24.1278 8.41601 24.1254 8.39493 24.1217 8.37034C24.1143 8.3213 24.1013 8.25737 24.0786 8.18353C24.0332 8.03571 23.9477 7.84514 23.7877 7.65735C23.4541 7.26565 22.8755 6.97412 21.939 6.97412V7.97412C22.6599 7.97412 22.9279 8.19004 23.0265 8.30578C23.0826 8.37171 23.1097 8.43486 23.1227 8.47733C23.1293 8.49864 23.1321 8.514 23.133 8.52045C23.1335 8.52361 23.1335 8.52434 23.1333 8.52224C23.1332 8.52117 23.1331 8.51938 23.1329 8.5168C23.1328 8.5155 23.1328 8.51401 23.1327 8.51231C23.1326 8.51146 23.1326 8.51056 23.1326 8.50961C23.1325 8.50913 23.1325 8.50864 23.1325 8.50813C23.1325 8.50788 23.1325 8.50749 23.1325 8.50737C23.1325 8.50698 23.1324 8.50658 23.6321 8.48901ZM21.939 6.97412H18.7362V7.97412H21.939V6.97412ZM18.7362 7.47412C18.7017 6.97531 18.7015 6.97533 18.7013 6.97534C18.7012 6.97535 18.701 6.97536 18.7009 6.97537C18.7006 6.97539 18.7003 6.97541 18.7 6.97543C18.6993 6.97548 18.6986 6.97554 18.6977 6.9756C18.696 6.97573 18.694 6.97589 18.6916 6.97608C18.6868 6.97647 18.6806 6.977 18.673 6.97771C18.658 6.97912 18.6375 6.98123 18.6125 6.98427C18.5626 6.99034 18.4937 7.00021 18.4119 7.01587C18.2506 7.04675 18.0281 7.10225 17.7994 7.20194C17.3507 7.39759 16.7623 7.82633 16.7623 8.6573H17.7623C17.7623 8.4071 17.9109 8.24424 18.1991 8.1186C18.3389 8.05764 18.4849 8.02006 18.5999 7.99803C18.6563 7.98724 18.7025 7.98069 18.7332 7.97696C18.7485 7.9751 18.7598 7.97396 18.7663 7.97335C18.7695 7.97305 18.7716 7.97288 18.7724 7.97281C18.7728 7.97278 18.7728 7.97278 18.7725 7.9728C18.7724 7.97281 18.7722 7.97282 18.7719 7.97285C18.7717 7.97286 18.7716 7.97287 18.7714 7.97288C18.7713 7.97289 18.7711 7.9729 18.7711 7.9729C18.7709 7.97292 18.7707 7.97293 18.7362 7.47412ZM16.7623 8.6573V9.70789H17.7623V8.6573H16.7623ZM17.2567 10.2079L20.4237 10.2436L20.435 9.24362L17.268 9.20792L17.2567 10.2079ZM8.7243 5.6838H2.68582V6.6838H8.7243V5.6838ZM2.68582 6.1838C2.69967 5.684 2.69951 5.68399 2.69934 5.68399C2.69927 5.68398 2.6991 5.68398 2.69897 5.68398C2.69871 5.68397 2.69842 5.68396 2.6981 5.68395C2.69746 5.68394 2.69671 5.68392 2.69584 5.6839C2.69411 5.68386 2.69194 5.68382 2.68933 5.68377C2.6841 5.68368 2.67714 5.68358 2.66855 5.68353C2.6514 5.68341 2.6277 5.68345 2.59845 5.68396C2.54013 5.68499 2.45887 5.68794 2.36288 5.69558C2.17455 5.71057 1.91288 5.74485 1.65181 5.82639C1.39892 5.90537 1.08994 6.046 0.868891 6.31116C0.624898 6.60384 0.53957 6.98573 0.64549 7.41529L1.61641 7.17588C1.57897 7.02406 1.61633 6.97628 1.63699 6.95149C1.6806 6.89918 1.77826 6.83453 1.94993 6.78092C2.11342 6.72985 2.29422 6.70421 2.44223 6.69243C2.51441 6.68668 2.57478 6.68453 2.61605 6.68381C2.63661 6.68344 2.65219 6.68344 2.66187 6.6835C2.66671 6.68354 2.67005 6.68359 2.67178 6.68362C2.67264 6.68363 2.6731 6.68364 2.67314 6.68364C2.67316 6.68364 2.67307 6.68364 2.67288 6.68364C2.67279 6.68363 2.67266 6.68363 2.67251 6.68363C2.67244 6.68362 2.67231 6.68362 2.67227 6.68362C2.67213 6.68362 2.67198 6.68361 2.68582 6.1838ZM0.64549 7.41529C0.952778 8.66151 2.08772 10.8684 4.59553 11.1931L4.72395 10.2014C2.82078 9.95493 1.88255 8.25523 1.61641 7.17588L0.64549 7.41529ZM25.1155 29.4115L26.6047 31.3087L27.3913 30.6912L25.9021 28.7941L25.1155 29.4115ZM26.998 31.5H28.8697V30.5H26.998V31.5ZM29.3697 31V29.1283H28.3697V31H29.3697ZM28.8735 28.6283L25.5126 28.6028L25.505 29.6028L28.8659 29.6283L28.8735 28.6283ZM7.93903 28.7941L6.44985 30.6912L7.23646 31.3087L8.72564 29.4115L7.93903 28.7941ZM6.84316 30.5H4.96638V31.5H6.84316V30.5ZM5.46638 31V29.1283H4.46638V31H5.46638ZM4.97017 29.6283L8.33612 29.6028L8.32855 28.6028L4.96259 28.6283L4.97017 29.6283ZM6.12579 5.67354H3.71685V6.67354H6.12579V5.67354ZM4.10265 5.85548L1.48639 2.68195L0.714786 3.31805L3.33105 6.49159L4.10265 5.85548ZM1.10059 3.5H3.49933V2.5H1.10059V3.5ZM3.11414 3.31879L5.7406 6.49233L6.51098 5.85475L3.88452 2.68121L3.11414 3.31879ZM4.59844 6.43411L6.40208 9.38855L7.2556 8.86749L5.45196 5.91305L4.59844 6.43411ZM20.1569 9.62049L19.5006 11.5517L20.4474 11.8734L21.1037 9.94226L20.1569 9.62049ZM28.9617 28.6028H4.96645V29.6028H28.9617V28.6028ZM16.4206 21.6442C16.4206 22.4289 15.7845 23.0651 14.9998 23.0651V24.0651C16.3367 24.0651 17.4206 22.9812 17.4206 21.6442H16.4206ZM14.9998 23.0651C14.215 23.0651 13.5789 22.4289 13.5789 21.6442H12.5789C12.5789 22.9812 13.6628 24.0651 14.9998 24.0651V23.0651ZM13.5789 21.6442C13.5789 20.8595 14.215 20.2234 14.9998 20.2234V19.2234C13.6628 19.2234 12.5789 20.3072 12.5789 21.6442H13.5789ZM14.9998 20.2234C15.7845 20.2234 16.4206 20.8595 16.4206 21.6442H17.4206C17.4206 20.3072 16.3367 19.2234 14.9998 19.2234V20.2234Z" fill="#333333"/>
</svg>
