<svg width="32" height="32" viewBox="0 0 32 32" fill="none" xmlns="http://www.w3.org/2000/svg">
<path d="M1.64001 10.22C1.36387 10.22 1.14001 10.4439 1.14001 10.72C1.14001 10.9961 1.36387 11.22 1.64001 11.22V10.22ZM30.36 11.22C30.6362 11.22 30.86 10.9961 30.86 10.72C30.86 10.4439 30.6362 10.22 30.36 10.22V11.22ZM12.4587 18.2947C12.2569 18.4832 12.2461 18.7996 12.4347 19.0014C12.6232 19.2031 12.9396 19.2139 13.1414 19.0253L12.4587 18.2947ZM16 15.67L16.3506 15.3135C16.1596 15.1256 15.8544 15.1217 15.6587 15.3047L16 15.67ZM18.6894 19.0165C18.8863 19.2101 19.2029 19.2075 19.3965 19.0106C19.5901 18.8137 19.5875 18.4972 19.3906 18.3035L18.6894 19.0165ZM15.5 23.09C15.5 23.3661 15.7239 23.59 16 23.59C16.2762 23.59 16.5 23.3661 16.5 23.09H15.5ZM1.64001 11.22H30.36V10.22H1.64001V11.22ZM5.23001 8.77C6.10616 8.77 6.82001 8.05614 6.82001 7.18H5.82001C5.82001 7.50386 5.55387 7.77 5.23001 7.77V8.77ZM6.82001 7.18C6.82001 6.30386 6.10616 5.59 5.23001 5.59V6.59C5.55387 6.59 5.82001 6.85614 5.82001 7.18H6.82001ZM5.23001 5.59C4.35387 5.59 3.64001 6.30386 3.64001 7.18H4.64001C4.64001 6.85614 4.90616 6.59 5.23001 6.59V5.59ZM3.64001 7.18C3.64001 8.05614 4.35387 8.77 5.23001 8.77V7.77C4.90616 7.77 4.64001 7.50386 4.64001 7.18H3.64001ZM13.1414 19.0253L16.3414 16.0353L15.6587 15.3047L12.4587 18.2947L13.1414 19.0253ZM15.6494 16.0265L18.6894 19.0165L19.3906 18.3035L16.3506 15.3135L15.6494 16.0265ZM15.5 15.67V23.09H16.5V15.67H15.5ZM2.75001 4.33H29.22V3.33H2.75001V4.33ZM29.22 4.33C29.5403 4.33 29.8 4.58968 29.8 4.91H30.8C30.8 4.03739 30.0926 3.33 29.22 3.33V4.33ZM29.8 4.91V27.09H30.8V4.91H29.8ZM29.8 27.09C29.8 27.4103 29.5403 27.67 29.22 27.67V28.67C30.0926 28.67 30.8 27.9626 30.8 27.09H29.8ZM29.22 27.67H2.75001V28.67H29.22V27.67ZM2.75001 27.67C2.42969 27.67 2.17001 27.4103 2.17001 27.09H1.17001C1.17001 27.9626 1.8774 28.67 2.75001 28.67V27.67ZM2.17001 27.09V4.91H1.17001V27.09H2.17001ZM2.17001 4.91C2.17001 4.58968 2.42969 4.33 2.75001 4.33V3.33C1.8774 3.33 1.17001 4.03739 1.17001 4.91H2.17001Z" fill="#333333"/>
</svg>
