<svg width="32" height="32" viewBox="0 0 32 32" fill="none" xmlns="http://www.w3.org/2000/svg">
<path d="M0.706885 20.1064C0.486001 20.2721 0.441287 20.5855 0.607013 20.8064C0.772739 21.0273 1.08615 21.072 1.30703 20.9063L0.706885 20.1064ZM11.8799 7.24063C12.0529 7.02534 12.0185 6.71063 11.8033 6.53769C11.588 6.36475 11.2733 6.39907 11.1003 6.61436L11.8799 7.24063ZM1.25691 19.6662L0.867105 19.3531L0.866706 19.3536L1.25691 19.6662ZM1.74344 27.184C1.80338 27.4536 2.0705 27.6235 2.34006 27.5635C2.60961 27.5036 2.77953 27.2365 2.71959 26.9669L1.74344 27.184ZM10.9171 3.82031C10.8179 3.56262 10.5285 3.43416 10.2708 3.5334C10.0131 3.63264 9.88467 3.92199 9.98391 4.17969L10.9171 3.82031ZM12.5073 10.7322C12.6065 10.9898 12.8959 11.1183 13.1536 11.0191C13.4113 10.9198 13.5397 10.6305 13.4405 10.3728L12.5073 10.7322ZM22.2181 21.2823V20.7823C21.942 20.7823 21.7181 21.0062 21.7181 21.2823H22.2181ZM24.371 21.2823H24.871C24.871 21.0062 24.6471 20.7823 24.371 20.7823V21.2823ZM24.371 27.168V27.668C24.6471 27.668 24.871 27.4442 24.871 27.168H24.371ZM22.2181 27.168H21.7181C21.7181 27.4442 21.942 27.668 22.2181 27.668V27.168ZM14.8101 22.3237C14.8806 22.0567 14.7213 21.7831 14.4543 21.7126C14.1873 21.6421 13.9137 21.8014 13.8432 22.0684L14.8101 22.3237ZM12.4904 27.1923C12.42 27.4593 12.5792 27.7329 12.8462 27.8034C13.1132 27.8739 13.3868 27.7146 13.4573 27.4476L12.4904 27.1923ZM18.9025 20.7823C18.6263 20.7823 18.4025 21.0062 18.4025 21.2823C18.4025 21.5585 18.6263 21.7823 18.9025 21.7823V20.7823ZM27.6865 21.2823V21.7823H28.0557L28.1644 21.4294L27.6865 21.2823ZM31.2969 11.254C31.3782 10.9901 31.2301 10.7102 30.9662 10.629C30.7022 10.5478 30.4224 10.6958 30.3412 10.9598L31.2969 11.254ZM0.742188 26.8546C0.466045 26.8546 0.242188 27.0784 0.242188 27.3546C0.242188 27.6307 0.466045 27.8546 0.742188 27.8546V26.8546ZM31.2578 27.8546C31.5339 27.8546 31.7578 27.6307 31.7578 27.3546C31.7578 27.0784 31.5339 26.8546 31.2578 26.8546V27.8546ZM10.9901 20.506C10.9901 21.3197 10.3209 21.9895 9.48273 21.9895V22.9895C10.8619 22.9895 11.9901 21.8832 11.9901 20.506H10.9901ZM9.48273 21.9895C8.64455 21.9895 7.97534 21.3197 7.97534 20.506H6.97534C6.97534 21.8832 8.10361 22.9895 9.48273 22.9895V21.9895ZM7.97534 20.506C7.97534 19.6924 8.64455 19.0226 9.48273 19.0226V18.0226C8.10361 18.0226 6.97534 19.1288 6.97534 20.506H7.97534ZM9.48273 19.0226C10.3209 19.0226 10.9901 19.6924 10.9901 20.506H11.9901C11.9901 19.1288 10.8619 18.0226 9.48273 18.0226V19.0226ZM14.1176 20.5064C14.1176 23.0267 12.0482 25.08 9.48275 25.08V26.08C12.5891 26.08 15.1176 23.5902 15.1176 20.5064H14.1176ZM9.48275 25.08C6.91733 25.08 4.8479 23.0267 4.8479 20.5064H3.8479C3.8479 23.5902 6.37638 26.08 9.48275 26.08V25.08ZM9.48275 15.9327C12.0482 15.9327 14.1176 17.986 14.1176 20.5064H15.1176C15.1176 17.4225 12.5891 14.9327 9.48275 14.9327V15.9327ZM4.8479 20.5064C4.8479 19.1207 5.4719 17.878 6.46171 17.0377L5.81452 16.2754C4.6123 17.296 3.8479 18.8125 3.8479 20.5064H4.8479ZM6.46171 17.0377C6.60368 16.9172 6.75312 16.805 6.90925 16.7019L6.35832 15.8673C6.16861 15.9926 5.98703 16.1289 5.81452 16.2754L6.46171 17.0377ZM6.90925 16.7019C7.64492 16.2162 8.52934 15.9327 9.48275 15.9327V14.9327C8.32821 14.9327 7.25302 15.2767 6.35832 15.8673L6.90925 16.7019ZM1.30703 20.9063L6.43819 17.0565L5.83804 16.2566L0.706885 20.1064L1.30703 20.9063ZM6.43819 17.0565L6.93386 16.6846L6.33371 15.8847L5.83804 16.2566L6.43819 17.0565ZM11.1003 6.61436L0.867106 19.3531L1.64671 19.9794L11.8799 7.24063L11.1003 6.61436ZM1.25691 19.6662C0.866706 19.3536 0.866505 19.3538 0.866301 19.3541C0.86623 19.3542 0.866024 19.3544 0.865883 19.3546C0.8656 19.355 0.865309 19.3553 0.865009 19.3557C0.864409 19.3565 0.863777 19.3573 0.863111 19.3581C0.861781 19.3598 0.860319 19.3617 0.858734 19.3638C0.855562 19.3679 0.851891 19.3728 0.847769 19.3784C0.839525 19.3896 0.82947 19.4038 0.817987 19.421C0.795024 19.4554 0.76632 19.5018 0.734973 19.5604C0.67222 19.6776 0.599022 19.8431 0.540169 20.0576C0.421556 20.4899 0.365749 21.1046 0.55186 21.9001L1.52557 21.6723C1.37711 21.0378 1.4304 20.5924 1.50453 20.3222C1.54205 20.1855 1.58613 20.0892 1.61656 20.0324C1.63181 20.0039 1.64368 19.9852 1.64964 19.9763C1.65261 19.9718 1.65411 19.9698 1.6538 19.9703C1.65364 19.9705 1.65303 19.9713 1.65193 19.9727C1.65138 19.9734 1.65071 19.9743 1.64991 19.9753C1.64951 19.9758 1.64907 19.9764 1.64861 19.977C1.64838 19.9773 1.64813 19.9776 1.64788 19.9779C1.64776 19.978 1.64757 19.9783 1.6475 19.9784C1.64731 19.9786 1.64711 19.9789 1.25691 19.6662ZM0.55186 21.9001C0.718519 22.6125 1.0162 23.9325 1.27269 25.0765C1.40083 25.6481 1.51852 26.175 1.60418 26.559C1.64701 26.751 1.68183 26.9073 1.70594 27.0155C1.71799 27.0697 1.72737 27.1118 1.73373 27.1404C1.73691 27.1547 1.73934 27.1656 1.74097 27.1729C1.74179 27.1766 1.7424 27.1794 1.74282 27.1812C1.74302 27.1821 1.74318 27.1828 1.74328 27.1833C1.74333 27.1835 1.74337 27.1837 1.7434 27.1838C1.74341 27.1839 1.74342 27.1839 1.74343 27.184C1.74343 27.184 1.74344 27.184 2.23151 27.0755C2.71959 26.9669 2.71958 26.9669 2.71958 26.9669C2.71957 26.9668 2.71956 26.9668 2.71955 26.9667C2.71952 26.9666 2.71948 26.9664 2.71943 26.9662C2.71932 26.9657 2.71917 26.965 2.71896 26.9641C2.71855 26.9622 2.71793 26.9594 2.71711 26.9558C2.71547 26.9484 2.71304 26.9375 2.70985 26.9232C2.70348 26.8945 2.69409 26.8523 2.68203 26.7982C2.65789 26.6898 2.62305 26.5334 2.58019 26.3413C2.49448 25.957 2.3767 25.4297 2.24846 24.8577C1.99219 23.7147 1.69347 22.39 1.52557 21.6723L0.55186 21.9001ZM9.98391 4.17969L12.5073 10.7322L13.4405 10.3728L10.9171 3.82031L9.98391 4.17969ZM22.2181 21.7823H24.371V20.7823H22.2181V21.7823ZM23.871 21.2823V27.168H24.871V21.2823H23.871ZM24.371 26.668H22.2181V27.668H24.371V26.668ZM22.7181 27.168V21.2823H21.7181V27.168H22.7181ZM13.8432 22.0684L12.4904 27.1923L13.4573 27.4476L14.8101 22.3237L13.8432 22.0684ZM18.9025 21.7823H27.6865V20.7823H18.9025V21.7823ZM28.1644 21.4294L31.2969 11.254L30.3412 10.9598L27.2086 21.1352L28.1644 21.4294ZM0.742188 27.8546H31.2578V26.8546H0.742188V27.8546Z" fill="#333333"/>
</svg>
