<svg width="32" height="32" viewBox="0 0 32 32" fill="none" xmlns="http://www.w3.org/2000/svg">
<path d="M22.7051 22.9607V20.2598C22.7051 20.2598 22.5106 17.7512 25.4353 17.7512M27.9634 22.9607V20.2598C27.9634 20.2598 28.1578 17.7512 25.2332 17.7512M25.3381 25.625V27.3594M9.20203 17.2589L12.8034 20.4215L21.9975 11.7262M18.4037 29.3014C7.86396 30.117 2.58242 24.6767 1.93681 16.9972C1.2912 9.31771 7.07056 2.56927 14.8334 1.9306C22.6041 1.29961 29.418 7.00924 30.0636 14.6888C30.188 16.1662 30.0713 17.6128 29.7524 18.9902M20.6594 22.9838H30.0169V30.117H20.6594V22.9838Z" stroke="#333333" stroke-linecap="round" stroke-linejoin="round"/>
</svg>
