<svg width="32" height="32" viewBox="0 0 32 32" fill="none" xmlns="http://www.w3.org/2000/svg">
<path d="M0.6875 26.35H5.29218M26.4138 26.35H31.0185M30.14 26.0592L28.2523 22.7604M28.0233 26.1333L26.1418 22.8283M3.83164 26.3558L6.04462 22.7324M1.66547 26.09L4.3144 21.7824M7.2892 13.0794L9.69281 7.89326M9.34315 6L10.6249 10.1142M28.4517 17.1957H28.4044M28.4044 17.1957H28.2833M28.4044 17.1957C28.3618 17.1924 28.3212 17.1926 28.2833 17.1957M28.4044 17.1957C28.8837 17.233 29.609 17.7141 29.423 19.4671H23.2095C22.9805 16.9915 24.2307 17.1957 24.2307 17.1957H28.2833M2.7176 17.9078C2.7176 15.3455 4.70538 13.2722 7.16193 13.2722C9.61848 13.2722 11.6063 15.3455 11.6063 17.9078C11.6063 18.5391 11.4876 19.1394 11.268 19.6841H31.1874V22.5434L6.58043 22.5001C4.40276 22.203 2.7176 20.2658 2.7176 17.9078ZM5.29216 17.7221C5.29216 18.7999 6.16593 19.6737 7.24377 19.6737C8.32161 19.6737 9.19538 18.7999 9.19538 17.7221C9.19538 16.6442 8.32161 15.7705 7.24377 15.7705C6.16593 15.7705 5.29216 16.6442 5.29216 17.7221Z" stroke="#333333" stroke-linecap="round" stroke-linejoin="round"/>
</svg>
