<svg width="32" height="32" viewBox="0 0 32 32" fill="none" xmlns="http://www.w3.org/2000/svg">
<g clip-path="url(#clip0_2_2993)">
<path d="M30.624 20.7204C30.8487 20.5598 30.9006 20.2475 30.74 20.0229C30.5793 19.7983 30.267 19.7464 30.0424 19.907L30.624 20.7204ZM1.63453 18.8319C1.39011 18.7034 1.0878 18.7974 0.959294 19.0418C0.830789 19.2862 0.924757 19.5886 1.16918 19.7171L1.63453 18.8319ZM27.3092 26.4416C27.553 26.3121 27.6458 26.0094 27.5162 25.7655C27.3867 25.5216 27.084 25.4289 26.8401 25.5584L27.3092 26.4416ZM4.63992 25.1029C4.38136 25.006 4.09315 25.137 3.99619 25.3955C3.89923 25.6541 4.03023 25.9423 4.28879 26.0392L4.63992 25.1029ZM12.5784 6.83334V7.33334L12.6253 6.33554L12.5784 6.83334ZM9.7843 5.4804L10.2553 5.31249L9.36096 5.21434L9.7843 5.4804ZM6.45097 10.7843L6.02763 10.5183L6.00512 10.558L6.45097 10.7843ZM9.75489 14.5882L9.99239 14.1482L9.99205 14.1481L9.75489 14.5882ZM12 17.3824L11.5184 17.5167L11.5348 17.5656L12 17.3824ZM23.3431 22.3824L23.4228 22.8761L23.4333 22.8741L23.3431 22.3824ZM25.4706 20.4902L24.9743 20.4291L25.0112 20.6876L25.4706 20.4902ZM21.1765 15.6667L21.6446 15.4911L21.6285 15.4529L21.1765 15.6667ZM15.5392 5.36275L15.5817 5.86096L15.5866 5.8605L15.5392 5.36275ZM12.5686 6.83334V6.33334L12.5481 7.33292L12.5686 6.83334ZM7.09425 9.76594C6.8621 9.6164 6.55268 9.68337 6.40314 9.91552C6.25361 10.1477 6.32058 10.4571 6.55272 10.6066L7.09425 9.76594ZM11.1117 12.9485L11.3921 12.5344L11.3825 12.5282L11.1117 12.9485ZM13.3483 15.7672L12.8731 15.9228L12.8885 15.9637L13.3483 15.7672ZM18.0664 20.3321L17.8566 20.786L17.8727 20.7931L18.0664 20.3321ZM25.2439 20.5173C25.5025 20.4205 25.6337 20.1323 25.5368 19.8737C25.44 19.6151 25.1519 19.4839 24.8933 19.5808L25.2439 20.5173ZM9.39255 5.20265C9.29871 5.46236 9.43318 5.74897 9.69289 5.8428C9.9526 5.93664 10.2392 5.80217 10.333 5.54246L9.39255 5.20265ZM13.7605 6.3891C13.9537 6.58637 14.2703 6.58965 14.4676 6.39641C14.6648 6.20318 14.6681 5.88661 14.4749 5.68934L13.7605 6.3891ZM18.292 10.8173C18.5593 10.748 18.7198 10.4752 18.6505 10.2079C18.5812 9.94056 18.3084 9.78004 18.0411 9.84935L18.292 10.8173ZM16.7175 10.1925C16.4502 10.2618 16.2897 10.5347 16.359 10.802C16.4283 11.0693 16.7012 11.2298 16.9685 11.1605L16.7175 10.1925ZM19.3252 13.2576C19.592 13.1863 19.7505 12.9122 19.6792 12.6454C19.608 12.3787 19.3339 12.2202 19.0671 12.2914L19.3252 13.2576ZM17.7828 12.6346C17.516 12.7059 17.3575 12.9799 17.4288 13.2467C17.5001 13.5135 17.7741 13.672 18.0409 13.6007L17.7828 12.6346ZM20.4374 15.7211C20.7003 15.6365 20.8448 15.3549 20.7603 15.092C20.6757 14.8291 20.394 14.6846 20.1312 14.7691L20.4374 15.7211ZM18.7292 15.2201C18.4663 15.3047 18.3218 15.5863 18.4063 15.8492C18.4909 16.1121 18.7726 16.2566 19.0354 16.1721L18.7292 15.2201ZM9.07922 7.0103C8.83583 6.87985 8.53278 6.9714 8.40233 7.21479C8.27188 7.45817 8.36343 7.76123 8.60681 7.89168L9.07922 7.0103ZM10.7077 12.5671C10.5932 12.8184 10.704 13.115 10.9553 13.2295C11.2066 13.344 11.5031 13.2332 11.6177 12.9819L10.7077 12.5671ZM30.5 16C30.5 24.0081 24.0081 30.5 16 30.5V31.5C24.5604 31.5 31.5 24.5604 31.5 16H30.5ZM16 30.5C7.99187 30.5 1.5 24.0081 1.5 16H0.5C0.5 24.5604 7.43959 31.5 16 31.5V30.5ZM1.5 16C1.5 7.99187 7.99187 1.5 16 1.5V0.5C7.43959 0.5 0.5 7.43959 0.5 16H1.5ZM16 1.5C24.0081 1.5 30.5 7.99187 30.5 16H31.5C31.5 7.43959 24.5604 0.5 16 0.5V1.5ZM30.3332 20.3137C30.0424 19.907 30.0426 19.9068 30.0428 19.9067C30.0428 19.9067 30.0429 19.9067 30.0429 19.9067C30.0429 19.9067 30.0427 19.9068 30.0423 19.907C30.0416 19.9076 30.0402 19.9085 30.0381 19.91C30.0339 19.9129 30.027 19.9178 30.0173 19.9244C29.998 19.9376 29.9678 19.958 29.9268 19.9849C29.8448 20.0385 29.7199 20.1178 29.5534 20.2165C29.2202 20.4139 28.7206 20.6889 28.0651 20.9921C26.7539 21.5986 24.8203 22.317 22.3468 22.7539C17.4076 23.6263 10.2876 23.3814 1.63453 18.8319L1.16918 19.7171C10.0259 24.3735 17.3716 24.6482 22.5207 23.7387C25.0912 23.2847 27.1074 22.5369 28.4849 21.8997C29.1737 21.5811 29.7033 21.29 30.0631 21.0768C30.2431 20.9702 30.3807 20.883 30.4746 20.8215C30.5215 20.7908 30.5575 20.7665 30.5825 20.7494C30.595 20.7408 30.6047 20.7341 30.6116 20.7292C30.6151 20.7268 30.6179 20.7248 30.6199 20.7234C30.621 20.7226 30.6218 20.722 30.6225 20.7215C30.6229 20.7213 30.6232 20.721 30.6234 20.7209C30.6238 20.7207 30.624 20.7204 30.3332 20.3137ZM27.0746 26C26.8401 25.5584 26.8403 25.5583 26.8405 25.5582C26.8405 25.5582 26.8407 25.5581 26.8407 25.5581C26.8407 25.5581 26.8406 25.5581 26.8404 25.5583C26.84 25.5585 26.839 25.559 26.8375 25.5598C26.8344 25.5614 26.8292 25.5641 26.8219 25.5678C26.8073 25.5752 26.7842 25.5868 26.7527 25.6021C26.6897 25.6328 26.5933 25.6783 26.4643 25.7352C26.2064 25.8489 25.8185 26.008 25.3087 26.1842C24.2888 26.5366 22.7814 26.9571 20.8491 27.2203C16.9871 27.7462 11.4187 27.645 4.63992 25.1029L4.28879 26.0392C11.2355 28.6442 16.9722 28.7575 20.984 28.2111C22.9886 27.9381 24.5602 27.5008 25.6352 27.1294C26.1728 26.9436 26.5863 26.7743 26.8678 26.6502C27.0086 26.5881 27.1164 26.5373 27.1903 26.5013C27.2273 26.4833 27.2557 26.4691 27.2756 26.459C27.2855 26.4539 27.2933 26.4499 27.2989 26.447C27.3017 26.4455 27.3039 26.4444 27.3056 26.4435C27.3065 26.443 27.3072 26.4426 27.3078 26.4423C27.3081 26.4422 27.3084 26.442 27.3086 26.4419C27.3089 26.4417 27.3092 26.4416 27.0746 26ZM12.6253 6.33554C11.5058 6.23002 10.9022 5.91896 10.5909 5.67731C10.4338 5.55539 10.3438 5.44569 10.2966 5.37689C10.2727 5.34222 10.2592 5.31721 10.2533 5.30535C10.2503 5.2994 10.2492 5.29673 10.2497 5.29777C10.2499 5.29829 10.2505 5.29974 10.2514 5.30217C10.2519 5.30339 10.2525 5.30485 10.2531 5.30657C10.2534 5.30743 10.2538 5.30835 10.2541 5.30934C10.2543 5.30983 10.2545 5.31034 10.2547 5.31086C10.2548 5.31113 10.2549 5.31153 10.255 5.31166C10.2551 5.31207 10.2553 5.31249 9.7843 5.4804C9.31334 5.64831 9.31349 5.64873 9.31364 5.64916C9.31369 5.6493 9.31385 5.64974 9.31396 5.65003C9.31417 5.65063 9.31439 5.65124 9.31462 5.65187C9.31508 5.65313 9.31557 5.65446 9.31609 5.65586C9.31714 5.65866 9.31831 5.66175 9.31962 5.6651C9.32223 5.67182 9.32539 5.67962 9.32914 5.68846C9.33663 5.70612 9.34651 5.72789 9.35919 5.75322C9.38458 5.80389 9.42118 5.86873 9.47241 5.94328C9.57526 6.09292 9.73534 6.27918 9.97775 6.46731C10.4654 6.84575 11.2589 7.21117 12.5315 7.33113L12.6253 6.33554ZM9.36096 5.21434L6.02763 10.5183L6.87431 11.0504L10.2076 5.74645L9.36096 5.21434ZM6.00512 10.558C5.72369 11.1124 5.62543 11.6393 5.74811 12.1401C5.8691 12.634 6.18504 13.0191 6.56127 13.3343C6.93548 13.6477 7.40817 13.9239 7.90575 14.1895C8.1568 14.3236 8.42248 14.4592 8.69163 14.5971C8.96231 14.7359 9.2384 14.8779 9.51773 15.0284L9.99205 14.1481C9.70275 13.9922 9.41848 13.846 9.14773 13.7072C8.87544 13.5676 8.6186 13.4365 8.3767 13.3074C7.88837 13.0467 7.49341 12.8106 7.2034 12.5677C6.91542 12.3265 6.77058 12.1111 6.71939 11.9022C6.66989 11.7001 6.68805 11.4219 6.89681 11.0106L6.00512 10.558ZM9.51739 15.0282C10.2757 15.4375 10.7783 16.0572 11.0946 16.5898C11.2518 16.8547 11.3597 17.0926 11.4276 17.2624C11.4615 17.3471 11.4852 17.4143 11.4999 17.4586C11.5073 17.4807 11.5124 17.497 11.5154 17.507C11.517 17.5119 11.5179 17.5153 11.5184 17.5169C11.5187 17.5178 11.5188 17.5182 11.5188 17.5181C11.5188 17.5181 11.5187 17.518 11.5187 17.5177C11.5186 17.5176 11.5186 17.5175 11.5185 17.5173C11.5185 17.5172 11.5185 17.5171 11.5185 17.517C11.5184 17.5169 11.5184 17.5167 12 17.3824C12.4816 17.248 12.4816 17.2478 12.4815 17.2476C12.4815 17.2476 12.4814 17.2474 12.4814 17.2472C12.4813 17.247 12.4812 17.2466 12.4811 17.2463C12.4809 17.2456 12.4807 17.2448 12.4804 17.2439C12.4799 17.2421 12.4793 17.2398 12.4785 17.237C12.4769 17.2316 12.4747 17.2244 12.472 17.2155C12.4666 17.1976 12.4589 17.1731 12.4486 17.1424C12.4282 17.0812 12.3979 16.9955 12.3561 16.8911C12.2727 16.6825 12.1428 16.3966 11.9544 16.0793C11.5795 15.4478 10.9596 14.6703 9.99239 14.1482L9.51739 15.0282ZM11.5348 17.5656C12.8905 21.0075 15.9312 22.3209 18.5327 22.7827C19.8375 23.0144 21.0557 23.0376 21.9455 23.0038C22.3913 22.9868 22.7569 22.9554 23.0127 22.9281C23.1406 22.9144 23.2412 22.9016 23.3108 22.8922C23.3455 22.8875 23.3726 22.8836 23.3914 22.8808C23.4008 22.8794 23.4081 22.8783 23.4134 22.8775C23.416 22.877 23.4181 22.8767 23.4197 22.8765C23.4204 22.8763 23.4211 22.8762 23.4216 22.8762C23.4219 22.8761 23.4221 22.8761 23.4223 22.8761C23.4225 22.876 23.4227 22.876 23.3431 22.3824C23.2635 21.8887 23.2637 21.8887 23.2638 21.8887C23.2638 21.8887 23.2638 21.8887 23.2638 21.8887C23.2638 21.8887 23.2637 21.8887 23.2634 21.8888C23.2628 21.8888 23.2617 21.889 23.2601 21.8893C23.2568 21.8898 23.2515 21.8906 23.2442 21.8917C23.2295 21.8939 23.2067 21.8972 23.1763 21.9013C23.1155 21.9095 23.0243 21.9211 22.9062 21.9337C22.6701 21.959 22.3275 21.9885 21.9075 22.0045C21.0656 22.0365 19.9223 22.0138 18.7075 21.7981C16.2697 21.3654 13.6389 20.1788 12.4652 17.1991L11.5348 17.5656ZM23.4333 22.8741C24.8678 22.611 25.5921 22.0828 25.8822 21.4599C26.0232 21.157 26.0393 20.8741 26.0191 20.667C26.009 20.5639 25.9899 20.4781 25.9721 20.4151C25.9632 20.3834 25.9544 20.357 25.9471 20.3366C25.9434 20.3263 25.94 20.3175 25.9371 20.3102C25.9357 20.3066 25.9344 20.3033 25.9332 20.3004C25.9326 20.299 25.932 20.2976 25.9315 20.2963C25.9312 20.2957 25.9309 20.2951 25.9307 20.2945C25.9306 20.2942 25.9304 20.2938 25.9303 20.2937C25.9302 20.2933 25.93 20.2928 25.4706 20.4902C25.0112 20.6876 25.011 20.6872 25.0108 20.6868C25.0108 20.6866 25.0106 20.6863 25.0105 20.686C25.0103 20.6855 25.0101 20.685 25.0099 20.6846C25.0095 20.6836 25.0092 20.6828 25.0088 20.682C25.0082 20.6805 25.0077 20.6792 25.0073 20.6782C25.0065 20.6762 25.0062 20.6752 25.0062 20.6753C25.0062 20.6755 25.0077 20.6795 25.0098 20.6869C25.014 20.702 25.0204 20.7289 25.0238 20.764C25.0306 20.8336 25.0258 20.93 24.9756 21.0377C24.8834 21.2359 24.5439 21.6537 23.2529 21.8906L23.4333 22.8741ZM25.9668 20.5513C26.1187 19.3173 25.3361 18.4666 24.5734 17.905C24.1848 17.6188 23.7672 17.3815 23.4122 17.186C23.0368 16.9792 22.7664 16.8365 22.5992 16.7141L22.0087 17.5212C22.2434 17.6929 22.5992 17.8799 22.9297 18.0619C23.2806 18.2551 23.6485 18.4658 23.9805 18.7102C24.659 19.2099 25.0577 19.7513 24.9743 20.4291L25.9668 20.5513ZM22.5992 16.7141C22.2635 16.4685 22.0217 16.1601 21.8623 15.9059C21.7834 15.7801 21.7269 15.6712 21.691 15.5957C21.6731 15.5581 21.6604 15.5291 21.6527 15.5109C21.6489 15.5018 21.6463 15.4954 21.645 15.492C21.6443 15.4903 21.644 15.4894 21.6439 15.4892C21.6439 15.4891 21.6439 15.4892 21.644 15.4896C21.6441 15.4897 21.6442 15.4899 21.6443 15.4902C21.6443 15.4903 21.6444 15.4905 21.6444 15.4906C21.6445 15.4907 21.6445 15.4908 21.6445 15.4908C21.6446 15.491 21.6446 15.4911 21.1765 15.6667C20.7083 15.8422 20.7083 15.8424 20.7084 15.8425C20.7084 15.8426 20.7085 15.8427 20.7085 15.8428C20.7086 15.843 20.7087 15.8432 20.7088 15.8435C20.7089 15.8439 20.7091 15.8445 20.7094 15.845C20.7098 15.8462 20.7103 15.8476 20.7109 15.8491C20.7121 15.8523 20.7137 15.8562 20.7156 15.861C20.7194 15.8705 20.7245 15.8833 20.7311 15.8989C20.7443 15.9302 20.7632 15.9732 20.7881 16.0256C20.838 16.1303 20.9126 16.2738 21.0151 16.4372C21.2185 16.7615 21.5404 17.1786 22.0087 17.5212L22.5992 16.7141ZM21.1765 15.6667C21.6285 15.4529 21.6285 15.4529 21.6284 15.4529C21.6284 15.4528 21.6284 15.4528 21.6283 15.4527C21.6282 15.4525 21.6281 15.4522 21.6279 15.4517C21.6275 15.4509 21.6269 15.4497 21.6261 15.448C21.6246 15.4447 21.6222 15.4397 21.6191 15.4331C21.6128 15.4198 21.6035 15.4001 21.5914 15.3742C21.567 15.3225 21.5312 15.2463 21.4855 15.1486C21.3941 14.9533 21.2631 14.6722 21.105 14.3295C20.7887 13.6441 20.364 12.7133 19.9305 11.7307C19.4966 10.7474 19.0553 9.71597 18.705 8.82824C18.3478 7.92331 18.1048 7.2155 18.0415 6.85478L17.0565 7.02758C17.1403 7.50509 17.4242 8.30709 17.7748 9.19536C18.1321 10.1008 18.5794 11.1459 19.0156 12.1345C19.4521 13.1237 19.8792 14.0599 20.1971 14.7486C20.356 15.093 20.4877 15.3757 20.5798 15.5724C20.6258 15.6708 20.6619 15.7476 20.6865 15.8C20.6988 15.8261 20.7083 15.8462 20.7147 15.8597C20.7179 15.8665 20.7203 15.8716 20.7219 15.8751C20.7228 15.8768 20.7234 15.8781 20.7238 15.879C20.724 15.8795 20.7242 15.8798 20.7243 15.88C20.7243 15.8802 20.7244 15.8803 20.7244 15.8803C20.7244 15.8804 20.7244 15.8804 21.1765 15.6667ZM18.0415 6.85478C17.8744 5.90227 17.4531 5.33337 16.8873 5.05317C16.3607 4.79235 15.8035 4.83531 15.4918 4.865L15.5866 5.8605C15.8925 5.83136 16.1932 5.8253 16.4435 5.94929C16.6547 6.05389 16.9295 6.30362 17.0565 7.02758L18.0415 6.85478ZM15.4967 4.86456C15.0854 4.89967 14.7003 4.96416 14.386 5.16675C14.0473 5.38507 13.8667 5.71075 13.7413 6.08699L14.69 6.40322C14.7803 6.13239 14.8596 6.05121 14.9277 6.00727C15.0203 5.94762 15.189 5.89446 15.5817 5.86094L15.4967 4.86456ZM13.7413 6.08699C13.7413 6.08712 13.7411 6.08794 13.7397 6.09001C13.7383 6.09228 13.7349 6.0971 13.7278 6.10418C13.713 6.11916 13.685 6.14127 13.6368 6.1663C13.5366 6.21835 13.3939 6.26031 13.2265 6.2891C13.0636 6.31711 12.9021 6.32858 12.7789 6.3327C12.7181 6.33473 12.6685 6.33491 12.6349 6.33462C12.6182 6.33447 12.6055 6.33421 12.5977 6.33401C12.5938 6.33391 12.591 6.33382 12.5896 6.33377C12.5889 6.33375 12.5884 6.33373 12.5884 6.33373C12.5883 6.33373 12.5884 6.33373 12.5885 6.33373C12.5886 6.33374 12.5887 6.33374 12.5888 6.33374C12.5888 6.33375 12.5889 6.33375 12.5889 6.33375C12.589 6.33375 12.5891 6.33376 12.5686 6.83334C12.5481 7.33292 12.5482 7.33292 12.5483 7.33293C12.5484 7.33293 12.5485 7.33293 12.5486 7.33294C12.5488 7.33294 12.549 7.33295 12.5492 7.33296C12.5497 7.33298 12.5503 7.333 12.5509 7.33303C12.5522 7.33308 12.5539 7.33314 12.5559 7.3332C12.5599 7.33334 12.5652 7.3335 12.5718 7.33367C12.585 7.33401 12.6034 7.33438 12.6262 7.33458C12.6718 7.33498 12.7356 7.3347 12.8123 7.33214C12.9643 7.32706 13.1741 7.3128 13.396 7.27463C13.6134 7.23725 13.869 7.17259 14.0978 7.05368C14.326 6.93516 14.5797 6.73421 14.69 6.40322L13.7413 6.08699ZM12.5686 7.33334H12.5784V6.33334H12.5686V7.33334ZM6.55272 10.6066L10.841 13.3689L11.3825 12.5282L7.09425 9.76594L6.55272 10.6066ZM11.1117 12.9485C10.8315 13.3626 10.8314 13.3625 10.8313 13.3625C10.8313 13.3625 10.8312 13.3624 10.8311 13.3624C10.831 13.3623 10.831 13.3623 10.8309 13.3622C10.8308 13.3622 10.8309 13.3622 10.831 13.3623C10.8312 13.3624 10.8318 13.3629 10.8329 13.3636C10.8349 13.3649 10.8384 13.3674 10.8435 13.3709C10.8535 13.378 10.8693 13.3893 10.8903 13.4046C10.9323 13.4352 10.9946 13.4821 11.0719 13.5438C11.2268 13.6676 11.4399 13.8499 11.6689 14.0811C12.1332 14.5497 12.6328 15.1891 12.8731 15.9228L13.8234 15.6116C13.5147 14.6688 12.8961 13.8989 12.3793 13.3773C12.1179 13.1134 11.8748 12.9053 11.6961 12.7626C11.6066 12.6911 11.5328 12.6355 11.4803 12.5972C11.4541 12.578 11.4331 12.5631 11.4182 12.5526C11.4107 12.5474 11.4047 12.5432 11.4004 12.5402C11.3982 12.5387 11.3964 12.5374 11.395 12.5365C11.3943 12.536 11.3937 12.5356 11.3932 12.5353C11.3929 12.5351 11.3927 12.5349 11.3925 12.5348C11.3924 12.5347 11.3923 12.5347 11.3922 12.5346C11.3921 12.5345 11.392 12.5345 11.1117 12.9485ZM13.3483 15.7672C12.8885 15.9637 12.8886 15.9639 12.8887 15.9641C12.8887 15.9642 12.8888 15.9644 12.8889 15.9645C12.889 15.9649 12.8892 15.9652 12.8894 15.9657C12.8897 15.9665 12.8902 15.9675 12.8907 15.9687C12.8917 15.9711 12.8931 15.9742 12.8948 15.978C12.8981 15.9856 12.9028 15.996 12.9088 16.0091C12.9207 16.0353 12.938 16.0721 12.9608 16.1185C13.0065 16.2113 13.0743 16.3426 13.1662 16.5038C13.3498 16.826 13.6303 17.2689 14.0228 17.7628C14.8072 18.75 16.0452 19.9485 17.8566 20.786L18.2762 19.8783C16.6393 19.1214 15.5182 18.0374 14.8057 17.1407C14.4496 16.6926 14.1972 16.2933 14.035 16.0086C13.9539 15.8664 13.8956 15.7532 13.8583 15.6774C13.8396 15.6394 13.8263 15.6109 13.818 15.5927C13.8138 15.5836 13.8109 15.5772 13.8093 15.5735C13.8084 15.5716 13.8079 15.5704 13.8077 15.5699C13.8076 15.5697 13.8076 15.5696 13.8076 15.5698C13.8077 15.5698 13.8077 15.5699 13.8078 15.5701C13.8078 15.5701 13.8079 15.5703 13.8079 15.5703C13.8079 15.5705 13.808 15.5706 13.3483 15.7672ZM18.0664 20.3321C17.8727 20.7931 17.873 20.7932 17.8732 20.7933C17.8733 20.7933 17.8735 20.7934 17.8737 20.7935C17.8741 20.7937 17.8745 20.7938 17.875 20.794C17.8759 20.7944 17.877 20.7949 17.8783 20.7954C17.8808 20.7964 17.8841 20.7978 17.8881 20.7994C17.8962 20.8026 17.907 20.8069 17.9207 20.8122C17.9481 20.8228 17.9867 20.8371 18.0361 20.8544C18.1349 20.8888 18.2769 20.9347 18.4587 20.9841C18.822 21.0828 19.3447 21.1955 19.9977 21.2581C21.305 21.3835 23.1332 21.3075 25.2439 20.5173L24.8933 19.5808C22.9451 20.3101 21.2723 20.3757 20.0931 20.2627C19.503 20.2061 19.0362 20.1047 18.7208 20.0191C18.5631 19.9762 18.4435 19.9374 18.3655 19.9102C18.3265 19.8966 18.2979 19.8859 18.2802 19.879C18.2713 19.8756 18.2652 19.8732 18.2618 19.8718C18.2601 19.8712 18.2591 19.8707 18.2588 19.8706C18.2587 19.8706 18.2587 19.8706 18.2589 19.8707C18.259 19.8707 18.2592 19.8708 18.2594 19.8708C18.2594 19.8709 18.2596 19.871 18.2597 19.871C18.2599 19.8711 18.2601 19.8711 18.0664 20.3321ZM9.86279 5.37256C10.333 5.54246 10.3329 5.54279 10.3328 5.54311C10.3328 5.54321 10.3327 5.54352 10.3326 5.54371C10.3325 5.54408 10.3323 5.54442 10.3322 5.54472C10.332 5.54532 10.3318 5.54577 10.3317 5.54607C10.3315 5.54668 10.3315 5.5467 10.3317 5.54617C10.3321 5.5451 10.3334 5.54184 10.3356 5.53664C10.3399 5.52619 10.3478 5.50821 10.3595 5.48461C10.3829 5.43694 10.4203 5.36923 10.4728 5.29563C10.5801 5.14516 10.7331 4.99445 10.9389 4.91492C11.2989 4.77576 12.155 4.7501 13.7605 6.3891L14.4749 5.68934C12.796 3.97541 11.5247 3.61642 10.5784 3.98216C10.131 4.15508 9.83601 4.46638 9.65875 4.7148C9.56895 4.84065 9.5048 4.95661 9.46237 5.04275C9.44104 5.08605 9.42487 5.12251 9.41343 5.14978C9.4077 5.16343 9.40313 5.17485 9.39967 5.18374C9.39794 5.18819 9.39649 5.19201 9.3953 5.19517C9.39471 5.19675 9.39419 5.19817 9.39373 5.19942C9.3935 5.20004 9.39328 5.20062 9.39309 5.20116C9.39299 5.20143 9.39285 5.2018 9.3928 5.20194C9.39267 5.2023 9.39255 5.20265 9.86279 5.37256ZM18.0411 9.84935L16.7175 10.1925L16.9685 11.1605L18.292 10.8173L18.0411 9.84935ZM19.0671 12.2914L17.7828 12.6346L18.0409 13.6007L19.3252 13.2576L19.0671 12.2914ZM20.1312 14.7691L18.7292 15.2201L19.0354 16.1721L20.4374 15.7211L20.1312 14.7691ZM8.84302 7.45099C8.60681 7.89168 8.60665 7.89159 8.6065 7.89151C8.60647 7.89149 8.60633 7.89142 8.60627 7.89139C8.60615 7.89132 8.60608 7.89128 8.60607 7.89128C8.60605 7.89127 8.60625 7.89138 8.60667 7.89161C8.60752 7.89207 8.60925 7.89301 8.61183 7.89444C8.61699 7.8973 8.62554 7.90207 8.63719 7.90874C8.66052 7.92209 8.69625 7.94298 8.74219 7.97122C8.83419 8.02776 8.96643 8.1133 9.1217 8.22613C9.43409 8.45316 9.83003 8.78374 10.179 9.20297C10.8707 10.0338 11.3484 11.1614 10.7077 12.5671L11.6177 12.9819C12.4715 11.1085 11.7894 9.57429 10.9476 8.56316C10.5299 8.06141 10.0656 7.67595 9.70958 7.41719C9.53061 7.28712 9.37655 7.18733 9.2658 7.11926C9.21036 7.08519 9.1656 7.05896 9.13378 7.04076C9.11787 7.03165 9.10518 7.02455 9.096 7.01947C9.0914 7.01692 9.08769 7.01489 9.08488 7.01336C9.08348 7.0126 9.0823 7.01196 9.08136 7.01145C9.08088 7.01119 9.08047 7.01097 9.08011 7.01078C9.07994 7.01068 9.07971 7.01056 9.07962 7.01051C9.07941 7.0104 9.07922 7.0103 8.84302 7.45099Z" fill="#333333"/>
</g>
<defs>
<clipPath id="clip0_2_2993">
<rect width="32" height="32" fill="white"/>
</clipPath>
</defs>
</svg>
