<svg width="32" height="32" viewBox="0 0 32 32" fill="none" xmlns="http://www.w3.org/2000/svg">
<path d="M29.4408 21.8975C29.4408 21.8975 18.4354 28.7985 2.5592 21.3999M29.4408 27.2308C29.4408 27.2308 18.4354 34.1318 2.5592 26.7331M7.07353 8.0666L11.0505 11.5197C11.0505 11.5197 12.7553 12.8634 13.1651 14.8902C13.1651 14.8902 14.0066 18.787 17.8152 20.9482C17.8152 20.9482 20.979 22.6894 25.2958 21.3177M16.5222 12.6625C16.5222 12.6625 17.9427 11.5455 20.4703 12.2699M15.6563 10.0473C15.6563 10.0473 17.0767 8.93031 19.6043 9.6547M17.261 15.1621C17.261 15.1621 18.7038 14.4598 21.2594 14.9188M10.6665 2.89184C10.6665 2.89184 11.9304 -0.127338 15.0899 4.08624M10.5729 3.01363L6.57452 8.81421C5.36661 10.9487 7.41894 11.9053 9.70614 13.5476C11.4453 14.7973 11.8088 17.0091 11.8088 17.0091C13.8891 24.6843 23.3063 23.9322 23.3063 23.9322C26.2254 23.6226 25.7277 21.9526 25.7277 21.9526C26.1471 19.7684 23.4908 18.4911 22.7023 17.739C21.9138 16.987 21.651 15.9419 21.651 15.9419C21.651 15.9419 18.7822 7.45945 18.6257 5.47984C18.4691 3.50023 17.3115 3.45047 16.6516 3.45047C15.796 3.45047 15.4661 3.6053 15.1753 4.33521C13.9496 6.75343 10.5729 3.01363 10.5729 3.01363Z" stroke="#333333" stroke-miterlimit="10" stroke-linecap="round"/>
</svg>
