<svg width="32" height="32" viewBox="0 0 32 32" fill="none" xmlns="http://www.w3.org/2000/svg">
<path d="M7.29404 30.6755L5.81022 28.0035C5.81022 28.0035 5.04359 26.434 5.04359 24.1706V19.1638C5.04359 19.1638 4.98176 17.3349 7.58462 17.3349L13.0253 17.3933C13.0253 17.3933 14.0825 17.1793 15.6219 18.7358L24.9885 26.1227V30.7014M23.3935 14.2219L17.3531 8.398C17.3531 8.398 16.0795 7.1917 13.7363 7.30196H7.92475L4.79675 1.3792M7.88585 7.30197L7.88585 17.3349M4.92224 31.0625H27.0779M14.5688 28.0556L10.0831 24.3448C9.22519 23.635 9.07817 22.3301 9.75477 21.4301C10.4314 20.5301 11.6754 20.3759 12.5333 21.0856L17.019 24.7964C17.8769 25.5062 18.024 26.8111 17.3474 27.7111C16.6708 28.6111 15.4268 28.7653 14.5688 28.0556ZM23.208 24.7287L23.3008 14.0666L24.3642 14.5595C24.3642 14.5595 25.2668 15.0199 25.1494 16.4792L25.001 26.1295L23.208 24.7287Z" stroke="#333333" stroke-linecap="round" stroke-linejoin="round"/>
</svg>
