<svg width="32" height="32" viewBox="0 0 32 32" fill="none" xmlns="http://www.w3.org/2000/svg">
<path d="M10.3549 8.38141H5.5955M8.26328 28.294L27.1408 27.4937L26.842 20.0131C26.842 20.0131 26.6392 17.452 24.3342 17.548C22.2213 17.6441 21.9225 17.7508 21.9225 17.7508L7.15346 19.5542M24.3236 11.7002L22.5201 17.548M26.6286 11.7002L24.8359 17.548M3.08777 2L5.59552 8.91499L7.95388 27.9953M25.4013 11.6683H28.9122V10.2703C28.9122 10.2703 28.8695 9.13916 27.0554 9.13916H23.5445C23.5445 9.13916 21.9332 9.25654 21.9332 10.4517V11.6149L25.4013 11.6576V11.6683ZM10.675 28.2194L9.86397 30.8552H7.15346L7.99649 28.3261L10.675 28.2194ZM20.9302 25.3488C19.4789 25.3488 18.305 24.1963 18.305 22.7771C18.305 21.3578 19.4789 20.2053 20.9302 20.2053C22.3815 20.2053 23.5553 21.3578 23.5553 22.7771C23.5553 24.1963 22.3815 25.3488 20.9302 25.3488ZM7.0275 19.5843L10.1622 19.1341L9.83528 17.0165L6.69793 17.4754L7.0275 19.5843ZM27.1782 27.4937L25.1187 27.5898L25.4281 30.407H28.1386L27.1782 27.4937Z" stroke="#333333" stroke-linecap="round" stroke-linejoin="round"/>
</svg>
