<svg width="32" height="32" viewBox="0 0 32 32" fill="none" xmlns="http://www.w3.org/2000/svg">
<g clip-path="url(#clip0_2_2989)">
<path d="M30.7466 20.0583C30.9467 19.868 30.9546 19.5515 30.7642 19.3514C30.5739 19.1514 30.2574 19.1435 30.0573 19.3339L30.7466 20.0583ZM18.3922 23.049L18.454 22.5529L18.454 22.5529L18.3922 23.049ZM9.92158 20.2255L9.83399 20.7178L9.83469 20.7179L9.92158 20.2255ZM2.02845 21.6863C1.82811 21.8763 1.81976 22.1928 2.00981 22.3931C2.19985 22.5935 2.51632 22.6018 2.71667 22.4118L2.02845 21.6863ZM28.8055 24.6956C29.0056 24.5052 29.0135 24.1887 28.8231 23.9887C28.6328 23.7886 28.3163 23.7808 28.1162 23.9711L28.8055 24.6956ZM18.3923 27.4118L18.3304 27.9079L18.3314 27.9081L18.3923 27.4118ZM9.92166 24.5882L9.83377 25.0805L9.83477 25.0806L9.92166 24.5882ZM4.52491 24.9146C4.27198 25.0254 4.15679 25.3203 4.26763 25.5732C4.37846 25.8262 4.67334 25.9414 4.92627 25.8305L4.52491 24.9146ZM12.7171 7.49494V7.99494L12.764 6.99715L12.7171 7.49494ZM9.92297 6.142L10.3939 5.97409L9.49963 5.87595L9.92297 6.142ZM6.58964 11.4459L6.1663 11.1799L6.14379 11.2196L6.58964 11.4459ZM9.89356 15.2498L10.1311 14.8098L10.1307 14.8097L9.89356 15.2498ZM12.1387 18.044L11.657 18.1783L11.6734 18.2272L12.1387 18.044ZM23.4818 23.044L23.5614 23.5377L23.572 23.5358L23.4818 23.044ZM25.6092 21.1518L25.113 21.0907L25.1498 21.3492L25.6092 21.1518ZM21.3151 16.3283L21.7833 16.1527L21.7671 16.1145L21.3151 16.3283ZM15.6779 6.02435L15.7204 6.52257L15.7253 6.5221L15.6779 6.02435ZM12.7073 7.49494V6.99494L12.6868 7.99452L12.7073 7.49494ZM7.23292 10.4275C7.00077 10.278 6.69135 10.345 6.54182 10.5771C6.39228 10.8093 6.45925 11.1187 6.6914 11.2682L7.23292 10.4275ZM11.2504 13.6101L11.5307 13.196L11.5212 13.1898L11.2504 13.6101ZM13.4869 16.4288L13.0118 16.5844L13.0272 16.6253L13.4869 16.4288ZM18.2051 20.9937L17.9952 21.4475L18.0114 21.4547L18.2051 20.9937ZM25.3826 21.1789C25.6412 21.0821 25.7723 20.7939 25.6755 20.5353C25.5787 20.2767 25.2906 20.1455 25.0319 20.2424L25.3826 21.1789ZM9.53122 5.86424C9.43738 6.12395 9.57185 6.41056 9.83156 6.50439C10.0913 6.59823 10.3779 6.46376 10.4717 6.20405L9.53122 5.86424ZM13.8992 7.05069C14.0924 7.24796 14.409 7.25124 14.6062 7.058C14.8035 6.86477 14.8068 6.54821 14.6136 6.35093L13.8992 7.05069ZM18.4307 11.4789C18.698 11.4096 18.8585 11.1368 18.7892 10.8695C18.7199 10.6021 18.447 10.4416 18.1797 10.5109L18.4307 11.4789ZM16.8562 10.8541C16.5889 10.9234 16.4284 11.1962 16.4977 11.4636C16.567 11.7309 16.8399 11.8914 17.1072 11.8221L16.8562 10.8541ZM19.4637 13.9192C19.7305 13.8479 19.8889 13.5739 19.8177 13.3071C19.7464 13.0403 19.4723 12.8818 19.2055 12.9531L19.4637 13.9192ZM17.9212 13.2962C17.6544 13.3675 17.496 13.6415 17.5672 13.9083C17.6385 14.1751 17.9126 14.3336 18.1794 14.2623L17.9212 13.2962ZM20.5761 16.3827C20.8389 16.2981 20.9835 16.0165 20.8989 15.7536C20.8144 15.4907 20.5327 15.3462 20.2698 15.4307L20.5761 16.3827ZM18.8679 15.8817C18.605 15.9663 18.4605 16.2479 18.545 16.5108C18.6296 16.7737 18.9112 16.9182 19.1741 16.8337L18.8679 15.8817ZM9.21789 7.67189C8.97451 7.54144 8.67145 7.63299 8.541 7.87638C8.41055 8.11976 8.5021 8.42282 8.74549 8.55327L9.21789 7.67189ZM10.8464 13.2287C10.7319 13.48 10.8427 13.7766 11.094 13.8911C11.3453 14.0056 11.6418 13.8947 11.7563 13.6435L10.8464 13.2287ZM30.5 16C30.5 24.0081 24.0081 30.5 16 30.5V31.5C24.5604 31.5 31.5 24.5604 31.5 16H30.5ZM16 30.5C7.99187 30.5 1.5 24.0081 1.5 16H0.5C0.5 24.5604 7.43959 31.5 16 31.5V30.5ZM1.5 16C1.5 7.99187 7.99187 1.5 16 1.5V0.5C7.43959 0.5 0.5 7.43959 0.5 16H1.5ZM16 1.5C24.0081 1.5 30.5 7.99187 30.5 16H31.5C31.5 7.43959 24.5604 0.5 16 0.5V1.5ZM30.0573 19.3339C27.1699 22.0811 22.4462 23.0507 18.454 22.5529L18.3303 23.5452C22.5146 24.067 27.5753 23.0757 30.7466 20.0583L30.0573 19.3339ZM18.454 22.5529C17.0396 22.3767 15.7338 21.8328 14.3593 21.2373C13.0046 20.6503 11.5777 20.01 10.0085 19.7331L9.83469 20.7179C11.2655 20.9704 12.5788 21.5556 13.9618 22.1549C15.3251 22.7456 16.7545 23.3489 18.3303 23.5452L18.454 22.5529ZM10.0092 19.7332C7.16555 19.2273 4.28374 19.5469 2.02845 21.6863L2.71667 22.4118C4.65745 20.5708 7.1678 20.2434 9.83399 20.7178L10.0092 19.7332ZM28.1162 23.9711C26.6484 25.3676 25.219 26.2151 23.6808 26.6607C22.1382 27.1076 20.4513 27.1605 18.4531 26.9155L18.3314 27.9081C20.4116 28.1631 22.2443 28.1179 23.9591 27.6212C25.6782 27.1232 27.2439 26.1814 28.8055 24.6956L28.1162 23.9711ZM18.4541 26.9156C17.0397 26.7394 15.7338 26.1956 14.3594 25.6001C13.0047 25.013 11.5778 24.3728 10.0086 24.0959L9.83477 25.0806C11.2656 25.3331 12.5789 25.9184 13.9618 26.5176C15.3252 27.1083 16.7546 27.7116 18.3304 27.9079L18.4541 26.9156ZM10.0096 24.096C7.95862 23.7298 6.32558 24.1255 4.52491 24.9146L4.92627 25.8305C6.61579 25.0902 8.04157 24.7604 9.83377 25.0805L10.0096 24.096ZM12.764 6.99715C11.6445 6.89162 11.0409 6.58057 10.7295 6.33891C10.5724 6.21699 10.4825 6.1073 10.4352 6.0385C10.4114 6.00383 10.3979 5.97882 10.392 5.96695C10.389 5.96101 10.3879 5.95834 10.3883 5.95938C10.3886 5.9599 10.3892 5.96134 10.3901 5.96378C10.3906 5.96499 10.3911 5.96646 10.3918 5.96817C10.3921 5.96903 10.3924 5.96995 10.3928 5.97094C10.393 5.97143 10.3932 5.97194 10.3934 5.97247C10.3934 5.97273 10.3936 5.97314 10.3936 5.97327C10.3938 5.97368 10.3939 5.97409 9.92297 6.142C9.45201 6.30991 9.45216 6.31034 9.45231 6.31076C9.45237 6.31091 9.45252 6.31134 9.45263 6.31164C9.45284 6.31223 9.45306 6.31285 9.45329 6.31347C9.45375 6.31473 9.45424 6.31607 9.45477 6.31747C9.45581 6.32027 9.45698 6.32335 9.45829 6.32671C9.46091 6.33342 9.46406 6.34123 9.46781 6.35006C9.47531 6.36773 9.48518 6.3895 9.49787 6.41482C9.52325 6.4655 9.55985 6.53033 9.61108 6.60488C9.71393 6.75453 9.87401 6.94079 10.1164 7.12892C10.6041 7.50736 11.3975 7.87278 12.6702 7.99274L12.764 6.99715ZM9.49963 5.87595L6.1663 11.1799L7.01298 11.712L10.3463 6.40806L9.49963 5.87595ZM6.14379 11.2196C5.86236 11.774 5.7641 12.301 5.88678 12.8017C6.00777 13.2956 6.32371 13.6807 6.69995 13.9959C7.07415 14.3093 7.54684 14.5855 8.04442 14.8512C8.29547 14.9852 8.56115 15.1208 8.8303 15.2587C9.10098 15.3975 9.37707 15.5395 9.6564 15.69L10.1307 14.8097C9.84142 14.6538 9.55715 14.5076 9.2864 14.3688C9.01411 14.2292 8.75727 14.0981 8.51538 13.969C8.02705 13.7083 7.63208 13.4722 7.34208 13.2293C7.05409 12.9881 6.90925 12.7727 6.85806 12.5638C6.80856 12.3617 6.82672 12.0835 7.03549 11.6722L6.14379 11.2196ZM9.65606 15.6898C10.4143 16.0991 10.917 16.7188 11.2332 17.2514C11.3905 17.5163 11.4983 17.7542 11.5663 17.9241C11.6002 18.0088 11.6238 18.0759 11.6386 18.1202C11.646 18.1423 11.6511 18.1586 11.6541 18.1686C11.6556 18.1735 11.6566 18.1769 11.6571 18.1785C11.6573 18.1794 11.6575 18.1798 11.6574 18.1797C11.6574 18.1797 11.6574 18.1796 11.6573 18.1793C11.6573 18.1792 11.6573 18.1791 11.6572 18.1789C11.6572 18.1788 11.6571 18.1787 11.6571 18.1786C11.6571 18.1785 11.657 18.1783 12.1387 18.044C12.6203 17.9096 12.6202 17.9094 12.6202 17.9093C12.6201 17.9092 12.6201 17.909 12.6201 17.9088C12.62 17.9086 12.6199 17.9082 12.6198 17.9079C12.6196 17.9072 12.6194 17.9064 12.6191 17.9055C12.6186 17.9037 12.6179 17.9014 12.6171 17.8986C12.6155 17.8932 12.6134 17.886 12.6107 17.8771C12.6053 17.8592 12.5975 17.8347 12.5873 17.804C12.5669 17.7428 12.5365 17.6571 12.4947 17.5527C12.4113 17.3441 12.2815 17.0582 12.0931 16.7409C11.7182 16.1094 11.0983 15.3319 10.1311 14.8098L9.65606 15.6898ZM11.6734 18.2272C13.0292 21.6691 16.0699 22.9825 18.6714 23.4444C19.9761 23.676 21.1943 23.6992 22.0841 23.6654C22.5299 23.6484 22.8956 23.617 23.1514 23.5897C23.2793 23.576 23.3799 23.5633 23.4494 23.5538C23.4842 23.5491 23.5112 23.5452 23.5301 23.5424C23.5395 23.541 23.5468 23.5399 23.5521 23.5391C23.5547 23.5387 23.5568 23.5383 23.5583 23.5381C23.5591 23.538 23.5598 23.5378 23.5603 23.5378C23.5605 23.5377 23.5608 23.5377 23.5609 23.5377C23.5612 23.5376 23.5614 23.5376 23.4818 23.044C23.4022 22.5503 23.4023 22.5503 23.4024 22.5503C23.4024 22.5503 23.4025 22.5503 23.4025 22.5503C23.4025 22.5503 23.4023 22.5503 23.402 22.5504C23.4015 22.5505 23.4004 22.5506 23.3987 22.5509C23.3955 22.5514 23.3902 22.5522 23.3828 22.5533C23.3681 22.5555 23.3454 22.5588 23.315 22.5629C23.2542 22.5712 23.1629 22.5827 23.0449 22.5953C22.8088 22.6206 22.4661 22.6501 22.0461 22.6661C21.2043 22.6981 20.061 22.6754 18.8462 22.4597C16.4084 22.027 13.7776 20.8404 12.6039 17.8607L11.6734 18.2272ZM23.572 23.5358C25.0065 23.2726 25.7308 22.7444 26.0208 22.1215C26.1619 21.8186 26.1779 21.5358 26.1577 21.3286C26.1477 21.2255 26.1286 21.1397 26.1108 21.0767C26.1018 21.045 26.0931 21.0187 26.0857 20.9982C26.0821 20.988 26.0787 20.9791 26.0758 20.9718C26.0744 20.9682 26.073 20.9649 26.0718 20.962C26.0712 20.9606 26.0707 20.9592 26.0701 20.9579C26.0699 20.9573 26.0696 20.9567 26.0694 20.9561C26.0692 20.9558 26.0691 20.9554 26.069 20.9553C26.0688 20.9549 26.0686 20.9545 25.6092 21.1518C25.1498 21.3492 25.1497 21.3488 25.1495 21.3484C25.1495 21.3482 25.1493 21.3479 25.1492 21.3476C25.149 21.3471 25.1488 21.3466 25.1486 21.3462C25.1482 21.3453 25.1478 21.3444 25.1475 21.3436C25.1469 21.3421 25.1464 21.3408 25.146 21.3398C25.1452 21.3378 25.1448 21.3369 25.1449 21.3369C25.1449 21.3371 25.1464 21.3411 25.1484 21.3485C25.1527 21.3636 25.159 21.3905 25.1625 21.4256C25.1692 21.4952 25.1645 21.5916 25.1143 21.6993C25.022 21.8975 24.6826 22.3153 23.3916 22.5522L23.572 23.5358ZM26.1055 21.2129C26.2574 19.9789 25.4748 19.1282 24.7121 18.5666C24.3234 18.2804 23.9059 18.0431 23.5508 17.8476C23.1755 17.6408 22.905 17.4981 22.7378 17.3757L22.1473 18.1828C22.3821 18.3545 22.7379 18.5415 23.0684 18.7235C23.4192 18.9167 23.7872 19.1274 24.1191 19.3718C24.7976 19.8715 25.1964 20.4129 25.113 21.0907L26.1055 21.2129ZM22.7378 17.3757C22.4021 17.1301 22.1604 16.8217 22.001 16.5675C21.9221 16.4417 21.8656 16.3328 21.8297 16.2573C21.8118 16.2197 21.7991 16.1907 21.7914 16.1725C21.7876 16.1634 21.785 16.157 21.7837 16.1536C21.783 16.1519 21.7826 16.151 21.7826 16.1508C21.7825 16.1507 21.7826 16.1508 21.7827 16.1512C21.7828 16.1513 21.7828 16.1515 21.7829 16.1518C21.783 16.1519 21.783 16.1521 21.7831 16.1522C21.7831 16.1523 21.7832 16.1524 21.7832 16.1525C21.7832 16.1526 21.7833 16.1527 21.3151 16.3283C20.847 16.5038 20.847 16.504 20.8471 16.5041C20.8471 16.5042 20.8471 16.5043 20.8472 16.5044C20.8473 16.5046 20.8473 16.5048 20.8474 16.5051C20.8476 16.5056 20.8478 16.5061 20.848 16.5066C20.8485 16.5078 20.849 16.5092 20.8496 16.5107C20.8508 16.5139 20.8524 16.5178 20.8542 16.5226C20.858 16.5322 20.8632 16.5449 20.8698 16.5605C20.8829 16.5918 20.9018 16.6348 20.9268 16.6872C20.9767 16.7919 21.0513 16.9354 21.1538 17.0988C21.3572 17.4231 21.6791 17.8402 22.1473 18.1828L22.7378 17.3757ZM21.3151 16.3283C21.7671 16.1145 21.7671 16.1145 21.7671 16.1145C21.7671 16.1144 21.7671 16.1144 21.767 16.1143C21.7669 16.1141 21.7668 16.1138 21.7666 16.1133C21.7662 16.1125 21.7656 16.1113 21.7648 16.1096C21.7633 16.1063 21.7609 16.1013 21.7578 16.0947C21.7515 16.0814 21.7422 16.0617 21.73 16.0358C21.7057 15.9841 21.6699 15.9079 21.6242 15.8102C21.5328 15.6149 21.4018 15.3338 21.2437 14.9911C20.9273 14.3057 20.5027 13.3749 20.0691 12.3924C19.6352 11.409 19.194 10.3776 18.8436 9.48985C18.4865 8.58492 18.2434 7.87711 18.1802 7.51639L17.1952 7.68919C17.279 8.1667 17.5629 8.96869 17.9135 9.85696C18.2708 10.7624 18.7181 11.8076 19.1543 12.7961C19.5908 13.7853 20.0179 14.7215 20.3357 15.4102C20.4947 15.7546 20.6264 16.0373 20.7185 16.234C20.7645 16.3324 20.8006 16.4092 20.8252 16.4616C20.8375 16.4878 20.847 16.5078 20.8534 16.5213C20.8565 16.5281 20.859 16.5332 20.8606 16.5367C20.8614 16.5384 20.862 16.5397 20.8625 16.5406C20.8627 16.5411 20.8628 16.5414 20.8629 16.5416C20.863 16.5418 20.863 16.5419 20.8631 16.5419C20.8631 16.542 20.8631 16.542 21.3151 16.3283ZM18.1802 7.51639C18.013 6.56387 17.5918 5.99498 17.026 5.71478C16.4994 5.45396 15.9422 5.49692 15.6305 5.52661L15.7253 6.5221C16.0312 6.49297 16.3318 6.48691 16.5822 6.61089C16.7934 6.7155 17.0682 6.96523 17.1952 7.68919L18.1802 7.51639ZM15.6353 5.52617C15.2241 5.56127 14.8389 5.62576 14.5246 5.82836C14.1859 6.04668 14.0054 6.37236 13.88 6.74859L14.8287 7.06482C14.919 6.794 14.9982 6.71282 15.0664 6.66888C15.159 6.60922 15.3277 6.55607 15.7204 6.52254L15.6353 5.52617ZM13.88 6.74859C13.88 6.74873 13.8797 6.74954 13.8784 6.75162C13.877 6.75389 13.8735 6.75871 13.8665 6.76579C13.8517 6.78077 13.8237 6.80288 13.7755 6.82791C13.6753 6.87996 13.5326 6.92191 13.3652 6.95071C13.2023 6.97872 13.0408 6.99019 12.9176 6.9943C12.8568 6.99633 12.8071 6.99652 12.7736 6.99623C12.7568 6.99608 12.7442 6.99582 12.7364 6.99561C12.7324 6.99551 12.7297 6.99543 12.7283 6.99538C12.7275 6.99535 12.7271 6.99534 12.727 6.99533C12.727 6.99533 12.727 6.99533 12.7272 6.99534C12.7272 6.99534 12.7273 6.99535 12.7274 6.99535C12.7275 6.99535 12.7276 6.99536 12.7276 6.99536C12.7277 6.99536 12.7278 6.99536 12.7073 7.49494C12.6868 7.99452 12.6869 7.99453 12.687 7.99453C12.687 7.99453 12.6872 7.99454 12.6873 7.99454C12.6875 7.99455 12.6877 7.99456 12.6879 7.99457C12.6884 7.99459 12.689 7.99461 12.6896 7.99463C12.6909 7.99468 12.6926 7.99474 12.6945 7.99481C12.6985 7.99494 12.7039 7.99511 12.7105 7.99528C12.7237 7.99562 12.742 7.99599 12.7649 7.99619C12.8104 7.99658 12.8743 7.99631 12.951 7.99375C13.1029 7.98867 13.3127 7.9744 13.5347 7.93624C13.7521 7.89885 14.0077 7.8342 14.2365 7.71529C14.4646 7.59676 14.7184 7.39582 14.8287 7.06482L13.88 6.74859ZM12.7073 7.99494H12.7171V6.99494H12.7073V7.99494ZM6.6914 11.2682L10.9797 14.0305L11.5212 13.1898L7.23292 10.4275L6.6914 11.2682ZM11.2504 13.6101C10.9702 14.0242 10.9701 14.0241 10.97 14.0241C10.9699 14.0241 10.9699 14.024 10.9698 14.024C10.9697 14.0239 10.9696 14.0239 10.9696 14.0238C10.9695 14.0238 10.9695 14.0238 10.9697 14.0239C10.9699 14.024 10.9705 14.0244 10.9715 14.0251C10.9735 14.0265 10.9771 14.029 10.9821 14.0325C10.9922 14.0396 11.008 14.0508 11.029 14.0662C11.0709 14.0968 11.1333 14.1436 11.2105 14.2054C11.3654 14.3292 11.5786 14.5115 11.8076 14.7427C12.2719 15.2113 12.7715 15.8507 13.0118 16.5844L13.9621 16.2731C13.6534 15.3304 13.0347 14.5604 12.518 14.0389C12.2565 13.7749 12.0134 13.5669 11.8348 13.4242C11.7453 13.3527 11.6715 13.2971 11.619 13.2588C11.5928 13.2396 11.5718 13.2247 11.5569 13.2142C11.5494 13.2089 11.5434 13.2048 11.539 13.2018C11.5368 13.2003 11.535 13.199 11.5336 13.1981C11.5329 13.1976 11.5323 13.1972 11.5318 13.1969C11.5316 13.1967 11.5314 13.1965 11.5312 13.1964C11.5311 13.1963 11.531 13.1962 11.5309 13.1962C11.5308 13.1961 11.5307 13.1961 11.2504 13.6101ZM13.4869 16.4288C13.0272 16.6253 13.0273 16.6255 13.0273 16.6257C13.0274 16.6258 13.0275 16.626 13.0275 16.6261C13.0277 16.6265 13.0278 16.6268 13.028 16.6273C13.0284 16.6281 13.0288 16.6291 13.0293 16.6303C13.0304 16.6327 13.0317 16.6358 13.0334 16.6396C13.0368 16.6472 13.0415 16.6576 13.0474 16.6707C13.0594 16.6968 13.0767 16.7337 13.0995 16.7801C13.1451 16.8729 13.213 17.0042 13.3048 17.1654C13.4885 17.4876 13.769 17.9305 14.1615 18.4244C14.9459 19.4116 16.1839 20.61 17.9952 21.4475L18.4149 20.5399C16.778 19.783 15.6569 18.699 14.9444 17.8023C14.5883 17.3542 14.3359 16.9549 14.1736 16.6702C14.0926 16.528 14.0343 16.4148 13.997 16.3389C13.9783 16.301 13.9649 16.2725 13.9566 16.2543C13.9525 16.2452 13.9496 16.2388 13.9479 16.235C13.9471 16.2332 13.9466 16.232 13.9464 16.2315C13.9463 16.2313 13.9463 16.2312 13.9463 16.2313C13.9463 16.2314 13.9464 16.2315 13.9464 16.2316C13.9465 16.2317 13.9465 16.2319 13.9466 16.2319C13.9466 16.2321 13.9467 16.2322 13.4869 16.4288ZM18.2051 20.9937C18.0114 21.4547 18.0116 21.4548 18.0119 21.4549C18.012 21.4549 18.0122 21.455 18.0124 21.4551C18.0128 21.4552 18.0132 21.4554 18.0136 21.4556C18.0146 21.456 18.0157 21.4565 18.017 21.457C18.0195 21.458 18.0228 21.4594 18.0268 21.461C18.0348 21.4642 18.0457 21.4685 18.0594 21.4738C18.0868 21.4843 18.1254 21.4987 18.1748 21.516C18.2736 21.5504 18.4156 21.5963 18.5973 21.6457C18.9606 21.7444 19.4834 21.8571 20.1364 21.9197C21.4437 22.0451 23.2719 21.9691 25.3826 21.1789L25.0319 20.2424C23.0838 20.9717 21.4109 21.0373 20.2318 20.9243C19.6416 20.8677 19.1749 20.7663 18.8595 20.6807C18.7018 20.6378 18.5822 20.599 18.5042 20.5718C18.4652 20.5582 18.4366 20.5475 18.4188 20.5406C18.41 20.5372 18.4038 20.5348 18.4005 20.5334C18.3988 20.5327 18.3978 20.5323 18.3975 20.5322C18.3973 20.5322 18.3974 20.5322 18.3976 20.5323C18.3977 20.5323 18.3978 20.5324 18.398 20.5324C18.3981 20.5325 18.3983 20.5326 18.3983 20.5326C18.3985 20.5326 18.3987 20.5327 18.2051 20.9937ZM10.0015 6.03415C10.4717 6.20405 10.4716 6.20438 10.4715 6.2047C10.4714 6.2048 10.4713 6.20511 10.4713 6.2053C10.4711 6.20567 10.471 6.20601 10.4709 6.20631C10.4707 6.20691 10.4705 6.20736 10.4704 6.20766C10.4702 6.20827 10.4701 6.20829 10.4704 6.20776C10.4708 6.20669 10.4721 6.20343 10.4742 6.19823C10.4786 6.18779 10.4865 6.1698 10.4981 6.1462C10.5216 6.09853 10.5589 6.03082 10.6115 5.95722C10.7188 5.80675 10.8718 5.65604 11.0775 5.57651C11.4376 5.43735 12.2937 5.41169 13.8992 7.05069L14.6136 6.35093C12.9347 4.637 11.6634 4.27801 10.717 4.64375C10.2696 4.81667 9.97468 5.12797 9.79742 5.37639C9.70763 5.50224 9.64347 5.6182 9.60104 5.70434C9.57971 5.74764 9.56354 5.7841 9.5521 5.81137C9.54637 5.82502 9.5418 5.83644 9.53834 5.84533C9.53661 5.84978 9.53516 5.8536 9.53397 5.85676C9.53338 5.85834 9.53286 5.85976 9.5324 5.86101C9.53217 5.86163 9.53196 5.86221 9.53176 5.86275C9.53166 5.86302 9.53152 5.86339 9.53148 5.86353C9.53135 5.86389 9.53122 5.86424 10.0015 6.03415ZM18.1797 10.5109L16.8562 10.8541L17.1072 11.8221L18.4307 11.4789L18.1797 10.5109ZM19.2055 12.9531L17.9212 13.2962L18.1794 14.2623L19.4637 13.9192L19.2055 12.9531ZM20.2698 15.4307L18.8679 15.8817L19.1741 16.8337L20.5761 16.3827L20.2698 15.4307ZM8.98169 8.11258C8.74549 8.55327 8.74532 8.55318 8.74517 8.5531C8.74514 8.55308 8.745 8.55301 8.74494 8.55298C8.74482 8.55291 8.74475 8.55287 8.74474 8.55287C8.74472 8.55286 8.74492 8.55297 8.74535 8.5532C8.74619 8.55366 8.74792 8.55461 8.7505 8.55603C8.75566 8.55889 8.76421 8.56366 8.77587 8.57033C8.7992 8.58368 8.83492 8.60457 8.88086 8.63281C8.97286 8.68935 9.10511 8.77489 9.26037 8.88772C9.57276 9.11475 9.9687 9.44533 10.3177 9.86456C11.0094 10.6954 11.4871 11.8229 10.8464 13.2287L11.7563 13.6435C12.6102 11.7701 11.928 10.2359 11.0862 9.22475C10.6685 8.723 10.2043 8.33754 9.84825 8.07878C9.66928 7.94871 9.51522 7.84892 9.40447 7.78085C9.34903 7.74678 9.30427 7.72055 9.27245 7.70235C9.25654 7.69324 9.24385 7.68614 9.23467 7.68106C9.23008 7.67851 9.22636 7.67648 9.22355 7.67495C9.22215 7.67419 9.22097 7.67355 9.22003 7.67304C9.21955 7.67278 9.21914 7.67256 9.21878 7.67237C9.21861 7.67227 9.21838 7.67215 9.21829 7.6721C9.21809 7.67199 9.21789 7.67189 8.98169 8.11258Z" fill="#333333"/>
</g>
<defs>
<clipPath id="clip0_2_2989">
<rect width="32" height="32" fill="white"/>
</clipPath>
</defs>
</svg>
