<svg width="32" height="32" viewBox="0 0 32 32" fill="none" xmlns="http://www.w3.org/2000/svg">
<path d="M7.18439 6.98608L11.1613 10.4392C11.1613 10.4392 12.8662 11.7829 13.276 13.8097C13.276 13.8097 14.1175 17.7065 17.9261 19.8677C17.9261 19.8677 21.0899 21.6089 25.4066 20.2372M16.633 11.5824C16.633 11.5824 18.0534 10.4654 20.5811 11.1898M15.7671 8.96678C15.7671 8.96678 17.1875 7.84979 19.7152 8.57418M17.3717 14.0818C17.3717 14.0818 18.8145 13.3795 21.3701 13.8385M10.7775 1.81132C10.7775 1.81132 12.0414 -1.20786 15.2009 3.00572M2.67017 27.1946L29.5517 27.1946M2.67017 31.2361L29.5517 31.2361M2.67017 23.1528L29.5517 23.1528M10.6838 1.93335L6.68539 7.73394C5.47748 9.86838 7.5298 10.825 9.817 12.4673C11.5562 13.717 11.9197 15.9289 11.9197 15.9289C13.9999 23.604 23.4172 22.852 23.4172 22.852C26.3363 22.5423 25.8386 20.8724 25.8386 20.8724C26.258 18.6881 23.6017 17.4108 22.8132 16.6588C22.0247 15.9067 21.7619 14.8616 21.7619 14.8616C21.7619 14.8616 18.8931 6.37918 18.7365 4.39957C18.5799 2.41996 17.4224 2.37019 16.7625 2.37019C15.9069 2.37019 15.5769 2.52502 15.2861 3.25493C14.0604 5.67315 10.6838 1.93335 10.6838 1.93335Z" stroke="#333333" stroke-linecap="round"/>
</svg>
