<svg width="32" height="32" viewBox="0 0 32 32" fill="none" xmlns="http://www.w3.org/2000/svg">
<g clip-path="url(#clip0_2_3005)">
<path d="M12.6868 7.12342V7.62342L12.7337 6.62562L12.6868 7.12342ZM9.98106 5.81329L10.452 5.64538L9.55772 5.54724L9.98106 5.81329ZM6.75321 10.9494L6.32987 10.6833L6.30736 10.723L6.75321 10.9494ZM9.95258 14.6329L10.1901 14.1929L10.1897 14.1927L9.95258 14.6329ZM12.1266 17.3386L11.645 17.4729L11.6614 17.5218L12.1266 17.3386ZM23.1108 22.1804L23.1904 22.6741L23.201 22.6722L23.1108 22.1804ZM25.1709 20.3481L24.6747 20.287L24.7115 20.5455L25.1709 20.3481ZM21.0127 15.6772L21.4809 15.5017L21.4647 15.4635L21.0127 15.6772ZM15.5538 5.69937L15.5964 6.19758L15.6012 6.19711L15.5538 5.69937ZM12.6773 7.12342V6.62342L12.6567 7.623L12.6773 7.12342ZM7.38478 9.94991C7.15263 9.80037 6.84321 9.86734 6.69367 10.0995C6.54413 10.3316 6.6111 10.6411 6.84325 10.7906L7.38478 9.94991ZM11.2666 13.0451L11.5469 12.6309L11.5373 12.6248L11.2666 13.0451ZM13.4323 15.7745L12.9571 15.9301L12.9726 15.9711L13.4323 15.7745ZM18.0011 20.195L17.7913 20.6489L17.8075 20.656L18.0011 20.195ZM24.957 20.3891C25.2157 20.2923 25.3468 20.0042 25.25 19.7456C25.1532 19.487 24.865 19.3558 24.6064 19.4526L24.957 20.3891ZM9.58688 5.53895C9.49305 5.79866 9.62751 6.08527 9.88722 6.1791C10.1469 6.27294 10.4335 6.13847 10.5274 5.87877L9.58688 5.53895ZM13.8202 6.70431C14.0134 6.90158 14.33 6.90485 14.5273 6.71162C14.7245 6.51838 14.7278 6.20182 14.5346 6.00455L13.8202 6.70431ZM18.2235 10.9967C18.4908 10.9274 18.6514 10.6545 18.5821 10.3872C18.5128 10.1199 18.2399 9.95936 17.9726 10.0287L18.2235 10.9967ZM16.6909 10.3609C16.4236 10.4302 16.2631 10.7031 16.3324 10.9704C16.4017 11.2377 16.6746 11.3982 16.9419 11.3289L16.6909 10.3609ZM19.224 13.3596C19.4908 13.2884 19.6493 13.0143 19.578 12.7475C19.5068 12.4807 19.2327 12.3223 18.9659 12.3935L19.224 13.3596ZM17.7223 12.7258C17.4555 12.7971 17.297 13.0711 17.3683 13.3379C17.4395 13.6047 17.7136 13.7632 17.9804 13.6919L17.7223 12.7258ZM20.302 15.745C20.5648 15.6604 20.7094 15.3787 20.6248 15.1159C20.5403 14.853 20.2586 14.7084 19.9957 14.793L20.302 15.745ZM18.6381 15.2297C18.3753 15.3143 18.2307 15.5959 18.3153 15.8588C18.3998 16.1217 18.6815 16.2662 18.9444 16.1817L18.6381 15.2297ZM9.30578 7.28084C9.0624 7.15039 8.75934 7.24194 8.62889 7.48532C8.49844 7.72871 8.58999 8.03177 8.83338 8.16222L9.30578 7.28084ZM10.8609 12.6692C10.7463 12.9205 10.8572 13.217 11.1085 13.3316C11.3598 13.4461 11.6563 13.3352 11.7708 13.0839L10.8609 12.6692ZM30.0255 16C30.0255 23.746 23.7461 30.0253 16.0002 30.0253V31.0253C24.2984 31.0253 31.0255 24.2983 31.0255 16H30.0255ZM16.0002 30.0253C8.2542 30.0253 1.97485 23.746 1.97485 16H0.974854C0.974854 24.2983 7.70192 31.0253 16.0002 31.0253V30.0253ZM1.97485 16C1.97485 8.25403 8.2542 1.97469 16.0002 1.97469V0.974686C7.70192 0.974686 0.974854 7.70175 0.974854 16H1.97485ZM16.0002 1.97469C23.7461 1.97469 30.0255 8.25403 30.0255 16H31.0255C31.0255 7.70175 24.2984 0.974686 16.0002 0.974686V1.97469ZM12.7337 6.62562C11.652 6.52366 11.0705 6.22331 10.7718 5.99147C10.621 5.87446 10.535 5.76944 10.4901 5.7041C10.4675 5.67116 10.4548 5.64757 10.4494 5.63669C10.4466 5.63124 10.4457 5.62896 10.4463 5.63026C10.4465 5.63091 10.4472 5.63246 10.4482 5.63496C10.4486 5.63621 10.4492 5.6377 10.4499 5.63944C10.4502 5.6403 10.4505 5.64123 10.4509 5.64222C10.4511 5.64272 10.4512 5.64323 10.4514 5.64376C10.4515 5.64402 10.4517 5.64443 10.4517 5.64456C10.4519 5.64497 10.452 5.64538 9.98106 5.81329C9.51009 5.9812 9.51025 5.98162 9.5104 5.98205C9.51045 5.9822 9.51061 5.98263 9.51071 5.98293C9.51093 5.98352 9.51115 5.98413 9.51138 5.98476C9.51184 5.98601 9.51232 5.98734 9.51284 5.98873C9.51388 5.99151 9.51504 5.99457 9.51634 5.99789C9.51893 6.00454 9.52204 6.01225 9.52573 6.02095C9.53312 6.03835 9.54282 6.05973 9.55526 6.08456C9.58015 6.13425 9.61596 6.19766 9.666 6.27048C9.76647 6.41667 9.92259 6.59825 10.1587 6.78147C10.6337 7.1501 11.405 7.50482 12.6398 7.62121L12.7337 6.62562ZM9.55772 5.54724L6.32987 10.6833L7.17655 11.2154L10.4044 6.07934L9.55772 5.54724ZM6.30736 10.723C6.03369 11.2622 5.93727 11.7764 6.05723 12.266C6.17549 12.7488 6.48414 13.1244 6.84987 13.4308C7.21356 13.7354 7.67252 14.0035 8.1545 14.2608C8.39776 14.3907 8.65517 14.522 8.91575 14.6556C9.17787 14.7899 9.44509 14.9274 9.71542 15.0731L10.1897 14.1927C9.90943 14.0417 9.63404 13.9 9.37185 13.7657C9.10813 13.6305 8.85956 13.5036 8.62546 13.3786C8.15273 13.1263 7.7715 12.8983 7.492 12.6642C7.21452 12.4317 7.07697 12.2259 7.0285 12.0281C6.98173 11.8371 6.99805 11.5717 7.19906 11.1757L6.30736 10.723ZM9.71508 15.0729C10.446 15.4675 10.931 16.065 11.2362 16.5792C11.388 16.8349 11.4921 17.0645 11.5577 17.2284C11.5903 17.3101 11.6132 17.3748 11.6274 17.4174C11.6345 17.4387 11.6394 17.4544 11.6423 17.4639C11.6437 17.4686 11.6447 17.4718 11.6451 17.4733C11.6453 17.4741 11.6454 17.4745 11.6454 17.4744C11.6454 17.4744 11.6454 17.4742 11.6453 17.474C11.6453 17.4739 11.6452 17.4737 11.6452 17.4736C11.6452 17.4735 11.6451 17.4733 11.6451 17.4733C11.6451 17.4731 11.645 17.4729 12.1266 17.3386C12.6082 17.2043 12.6082 17.2041 12.6081 17.2039C12.6081 17.2038 12.6081 17.2036 12.608 17.2035C12.6079 17.2032 12.6079 17.2029 12.6078 17.2026C12.6076 17.2019 12.6073 17.2011 12.6071 17.2002C12.6066 17.1984 12.6059 17.1961 12.6052 17.1935C12.6036 17.1881 12.6015 17.1811 12.5989 17.1724C12.5936 17.155 12.586 17.1311 12.5761 17.1013C12.5563 17.0417 12.5267 16.9585 12.4861 16.857C12.4051 16.6544 12.279 16.3768 12.0961 16.0687C11.7321 15.4556 11.13 14.7003 10.1901 14.1929L9.71508 15.0729ZM11.6614 17.5218C12.9771 20.8621 15.9281 22.136 18.4498 22.5837C19.7147 22.8082 20.8956 22.8308 21.758 22.7979C22.1901 22.7815 22.5445 22.7511 22.7925 22.7245C22.9166 22.7113 23.0141 22.6989 23.0816 22.6898C23.1153 22.6852 23.1416 22.6814 23.1599 22.6787C23.169 22.6773 23.1762 22.6762 23.1813 22.6754C23.1838 22.675 23.1859 22.6747 23.1874 22.6745C23.1882 22.6744 23.1888 22.6743 23.1893 22.6742C23.1896 22.6741 23.1898 22.6741 23.19 22.6741C23.1902 22.674 23.1904 22.674 23.1108 22.1804C23.0312 21.6868 23.0313 21.6867 23.0315 21.6867C23.0315 21.6867 23.0315 21.6867 23.0315 21.6867C23.0315 21.6867 23.0314 21.6867 23.0311 21.6868C23.0306 21.6869 23.0295 21.687 23.028 21.6873C23.0248 21.6877 23.0197 21.6885 23.0126 21.6896C22.9985 21.6917 22.9765 21.6949 22.9471 21.6989C22.8884 21.7068 22.8002 21.718 22.6861 21.7302C22.4577 21.7547 22.1263 21.7832 21.72 21.7987C20.9056 21.8296 19.7996 21.8077 18.6246 21.5991C16.2666 21.1805 13.7255 20.0334 12.5918 17.1554L11.6614 17.5218ZM23.201 22.6722C24.5924 22.4169 25.2998 21.9037 25.5838 21.2937C25.7218 20.9974 25.7376 20.7205 25.7178 20.5178C25.708 20.4168 25.6893 20.3328 25.6718 20.271C25.6631 20.24 25.6545 20.2141 25.6472 20.194C25.6436 20.1839 25.6403 20.1752 25.6374 20.168C25.636 20.1644 25.6347 20.1611 25.6335 20.1583C25.6329 20.1568 25.6323 20.1555 25.6318 20.1542C25.6316 20.1536 25.6313 20.153 25.6311 20.1524C25.6309 20.1521 25.6307 20.1517 25.6307 20.1516C25.6305 20.1512 25.6303 20.1507 25.1709 20.3481C24.7115 20.5455 24.7114 20.5451 24.7112 20.5447C24.7111 20.5445 24.711 20.5442 24.7109 20.5439C24.7107 20.5434 24.7104 20.5429 24.7103 20.5425C24.7099 20.5415 24.7095 20.5407 24.7092 20.5399C24.7085 20.5383 24.708 20.537 24.7076 20.536C24.7068 20.5339 24.7064 20.5328 24.7063 20.5327C24.7063 20.5326 24.7076 20.5361 24.7095 20.5429C24.7134 20.5567 24.7193 20.5818 24.7225 20.6148C24.7289 20.68 24.7244 20.7704 24.6773 20.8716C24.5911 21.0568 24.2685 21.4597 23.0206 21.6886L23.201 22.6722ZM25.6672 20.4092C25.8153 19.2055 25.0514 18.3768 24.3116 17.832C23.9343 17.5541 23.5292 17.324 23.1853 17.1346C22.8211 16.934 22.5606 16.7965 22.3997 16.6788L21.8092 17.4858C22.0376 17.6529 22.3835 17.8346 22.7029 18.0105C23.0425 18.1976 23.3981 18.4012 23.7186 18.6372C24.3743 19.12 24.7544 19.6394 24.6747 20.287L25.6672 20.4092ZM22.3997 16.6788C22.0768 16.4424 21.8439 16.1455 21.6903 15.9005C21.6142 15.7793 21.5598 15.6743 21.5253 15.6017C21.508 15.5655 21.4958 15.5376 21.4885 15.5202C21.4848 15.5115 21.4824 15.5054 21.4811 15.5022C21.4805 15.5006 21.4802 15.4998 21.4801 15.4997C21.4801 15.4996 21.4801 15.4997 21.4803 15.5001C21.4803 15.5002 21.4804 15.5005 21.4805 15.5007C21.4806 15.5008 21.4806 15.501 21.4807 15.5011C21.4807 15.5012 21.4808 15.5014 21.4808 15.5014C21.4808 15.5015 21.4809 15.5017 21.0127 15.6772C20.5445 15.8528 20.5446 15.8529 20.5446 15.8531C20.5447 15.8531 20.5447 15.8533 20.5448 15.8534C20.5448 15.8536 20.5449 15.8538 20.545 15.854C20.5452 15.8545 20.5454 15.855 20.5456 15.8556C20.546 15.8567 20.5465 15.858 20.5471 15.8596C20.5483 15.8627 20.5498 15.8666 20.5517 15.8712C20.5554 15.8806 20.5604 15.893 20.5669 15.9083C20.5797 15.9387 20.5981 15.9806 20.6224 16.0316C20.6709 16.1334 20.7435 16.273 20.8431 16.4318C21.0407 16.7469 21.3537 17.1525 21.8092 17.4858L22.3997 16.6788ZM21.0127 15.6772C21.4647 15.4635 21.4647 15.4635 21.4647 15.4634C21.4647 15.4634 21.4646 15.4633 21.4646 15.4632C21.4645 15.463 21.4644 15.4627 21.4642 15.4623C21.4638 15.4615 21.4632 15.4603 21.4625 15.4587C21.461 15.4555 21.4587 15.4507 21.4556 15.4443C21.4496 15.4314 21.4406 15.4123 21.4288 15.3873C21.4052 15.3372 21.3706 15.2634 21.3263 15.1688C21.2378 14.9797 21.111 14.7075 20.9579 14.3758C20.6516 13.7121 20.2404 12.8108 19.8206 11.8595C19.4005 10.9074 18.9733 9.90874 18.6341 9.04938C18.2882 8.17283 18.0535 7.48891 17.9925 7.14145L17.0076 7.31425C17.089 7.7785 17.3646 8.5566 17.704 9.4165C18.0501 10.2936 18.4833 11.3059 18.9057 12.2632C19.3285 13.2212 19.7421 14.1279 20.0499 14.7948C20.2039 15.1284 20.3314 15.4021 20.4206 15.5926C20.4651 15.6879 20.5001 15.7623 20.524 15.813C20.5359 15.8384 20.545 15.8578 20.5512 15.8709C20.5543 15.8775 20.5567 15.8824 20.5583 15.8858C20.559 15.8875 20.5597 15.8888 20.5601 15.8896C20.5603 15.89 20.5604 15.8904 20.5605 15.8906C20.5606 15.8907 20.5606 15.8908 20.5606 15.8909C20.5607 15.8909 20.5607 15.891 21.0127 15.6772ZM17.9925 7.14145C17.8301 6.21546 17.4198 5.65952 16.8663 5.38541C16.352 5.13068 15.8084 5.17286 15.5064 5.20162L15.6012 6.19711C15.8974 6.16891 16.1845 6.16362 16.4225 6.28152C16.6214 6.38004 16.8852 6.61682 17.0076 7.31425L17.9925 7.14145ZM15.5113 5.20118C15.1128 5.2352 14.7364 5.29783 14.4285 5.49627C14.0963 5.71044 13.9199 6.02969 13.7979 6.39568L14.7465 6.71191C14.8334 6.45132 14.9086 6.37658 14.9703 6.33679C15.0564 6.28129 15.2164 6.22999 15.5964 6.19755L15.5113 5.20118ZM13.7979 6.39568C13.8021 6.3831 13.8001 6.41372 13.7044 6.46345C13.6094 6.51279 13.473 6.55306 13.3117 6.58081C13.1549 6.60777 12.9993 6.61884 12.8804 6.62281C12.8218 6.62476 12.7739 6.62494 12.7416 6.62466C12.7255 6.62452 12.7133 6.62427 12.7058 6.62407C12.7021 6.62397 12.6995 6.62389 12.6981 6.62385C12.6974 6.62382 12.697 6.62381 12.697 6.62381C12.697 6.62381 12.697 6.62381 12.6971 6.62381C12.6972 6.62382 12.6973 6.62382 12.6974 6.62382C12.6975 6.62383 12.6976 6.62383 12.6976 6.62383C12.6977 6.62383 12.6978 6.62384 12.6773 7.12342C12.6567 7.623 12.6568 7.623 12.657 7.623C12.657 7.62301 12.6571 7.62301 12.6572 7.62302C12.6574 7.62302 12.6576 7.62303 12.6579 7.62304C12.6584 7.62306 12.6589 7.62308 12.6595 7.62311C12.6608 7.62315 12.6624 7.62321 12.6644 7.62328C12.6683 7.62341 12.6735 7.62357 12.6799 7.62374C12.6928 7.62407 12.7107 7.62443 12.7329 7.62462C12.7772 7.62501 12.8392 7.62474 12.9138 7.62225C13.0614 7.61732 13.2653 7.60346 13.4811 7.56634C13.6924 7.53 13.9417 7.46703 14.1654 7.35083C14.3883 7.23501 14.6379 7.03779 14.7465 6.71191L13.7979 6.39568ZM12.6773 7.62342H12.6868V6.62342H12.6773V7.62342ZM6.84325 10.7906L10.9958 13.4654L11.5373 12.6248L7.38478 9.94991L6.84325 10.7906ZM11.2666 13.0451C10.9863 13.4592 10.9862 13.4591 10.9861 13.459C10.9861 13.459 10.986 13.459 10.986 13.4589C10.9859 13.4589 10.9858 13.4588 10.9857 13.4588C10.9857 13.4587 10.9857 13.4587 10.9858 13.4588C10.986 13.4589 10.9866 13.4593 10.9875 13.46C10.9894 13.4613 10.9929 13.4637 10.9977 13.4671C11.0073 13.4739 11.0226 13.4847 11.0428 13.4995C11.0833 13.5291 11.1434 13.5742 11.2181 13.6339C11.3677 13.7535 11.5736 13.9296 11.7949 14.1529C12.2436 14.6059 12.7256 15.223 12.9571 15.9301L13.9075 15.6189C13.6074 14.7027 13.0065 13.955 12.5053 13.4491C12.2516 13.193 12.0157 12.9912 11.8423 12.8527C11.7555 12.7833 11.6838 12.7294 11.6328 12.6921C11.6073 12.6735 11.587 12.659 11.5724 12.6488C11.5651 12.6436 11.5593 12.6396 11.555 12.6366C11.5529 12.6352 11.5511 12.6339 11.5497 12.633C11.5491 12.6325 11.5485 12.6321 11.548 12.6318C11.5477 12.6317 11.5475 12.6315 11.5473 12.6314C11.5472 12.6313 11.5471 12.6312 11.5471 12.6312C11.5469 12.6311 11.5468 12.631 11.2666 13.0451ZM13.4323 15.7745C12.9726 15.9711 12.9726 15.9713 12.9727 15.9715C12.9728 15.9715 12.9728 15.9717 12.9729 15.9719C12.9731 15.9722 12.9732 15.9726 12.9734 15.973C12.9737 15.9738 12.9742 15.9748 12.9747 15.976C12.9757 15.9784 12.977 15.9814 12.9787 15.9851C12.982 15.9925 12.9865 16.0027 12.9923 16.0154C13.004 16.0409 13.0208 16.0766 13.043 16.1217C13.0873 16.2119 13.1531 16.3393 13.2422 16.4957C13.4204 16.8083 13.6925 17.2379 14.0731 17.7169C14.8339 18.6743 16.0345 19.8366 17.7913 20.6489L18.211 19.7412C16.6286 19.0096 15.5449 17.9616 14.856 17.0947C14.5118 16.6616 14.2678 16.2756 14.111 16.0005C14.0327 15.8631 13.9764 15.7538 13.9404 15.6806C13.9224 15.644 13.9095 15.6165 13.9015 15.599C13.8975 15.5903 13.8948 15.5841 13.8932 15.5806C13.8924 15.5788 13.8919 15.5777 13.8917 15.5772C13.8916 15.577 13.8916 15.577 13.8917 15.5771C13.8917 15.5772 13.8918 15.5773 13.8918 15.5774C13.8918 15.5775 13.8919 15.5776 13.8919 15.5777C13.892 15.5778 13.8921 15.578 13.4323 15.7745ZM18.0011 20.195C17.8075 20.656 17.8077 20.6561 17.8079 20.6562C17.808 20.6562 17.8083 20.6563 17.8085 20.6564C17.8088 20.6566 17.8092 20.6567 17.8097 20.6569C17.8106 20.6573 17.8117 20.6577 17.813 20.6583C17.8155 20.6593 17.8187 20.6606 17.8226 20.6622C17.8305 20.6654 17.8411 20.6696 17.8544 20.6747C17.881 20.685 17.9186 20.6989 17.9666 20.7157C18.0626 20.7492 18.2005 20.7937 18.3768 20.8416C18.7294 20.9374 19.2365 21.0468 19.8698 21.1075C21.1378 21.229 22.9106 21.1553 24.957 20.3891L24.6064 19.4526C22.7225 20.158 21.105 20.2213 19.9653 20.1121C19.3948 20.0574 18.9436 19.9594 18.639 19.8766C18.4867 19.8352 18.3712 19.7978 18.296 19.7715C18.2584 19.7584 18.2308 19.7481 18.2138 19.7415C18.2053 19.7383 18.1994 19.7359 18.1963 19.7346C18.1947 19.734 18.1937 19.7336 18.1935 19.7335C18.1934 19.7335 18.1934 19.7335 18.1936 19.7336C18.1937 19.7336 18.1939 19.7337 18.1941 19.7338C18.1942 19.7338 18.1944 19.7339 18.1944 19.7339C18.1946 19.734 18.1948 19.734 18.0011 20.195ZM10.0571 5.70886C10.5274 5.87877 10.5273 5.8791 10.5271 5.87942C10.5271 5.87951 10.527 5.87982 10.5269 5.88001C10.5268 5.88039 10.5267 5.88073 10.5265 5.88104C10.5263 5.88165 10.5261 5.88211 10.526 5.88244C10.5258 5.88308 10.5258 5.88316 10.5259 5.88271C10.5263 5.8818 10.5275 5.87877 10.5295 5.87387C10.5337 5.86402 10.5412 5.8469 10.5523 5.82436C10.5747 5.7788 10.6104 5.714 10.6607 5.64355C10.7636 5.4994 10.9094 5.356 11.1049 5.28046C11.4443 5.14929 12.2667 5.11836 13.8202 6.70431L14.5346 6.00455C12.9077 4.34366 11.67 3.98995 10.7444 4.3477C10.3073 4.51663 10.0194 4.82061 9.84666 5.06273C9.75912 5.18542 9.69657 5.29848 9.65518 5.38249C9.63438 5.42474 9.61858 5.46033 9.60739 5.48701C9.60179 5.50037 9.59731 5.51155 9.59392 5.52028C9.59222 5.52465 9.59079 5.52841 9.58962 5.53153C9.58903 5.5331 9.58851 5.5345 9.58806 5.53573C9.58783 5.53635 9.58762 5.53693 9.58742 5.53747C9.58732 5.53773 9.58719 5.53811 9.58714 5.53824C9.58701 5.5386 9.58688 5.53895 10.0571 5.70886ZM17.9726 10.0287L16.6909 10.3609L16.9419 11.3289L18.2235 10.9967L17.9726 10.0287ZM18.9659 12.3935L17.7223 12.7258L17.9804 13.6919L19.224 13.3596L18.9659 12.3935ZM19.9957 14.793L18.6381 15.2297L18.9444 16.1817L20.302 15.745L19.9957 14.793ZM9.06958 7.72153C8.83338 8.16222 8.83321 8.16213 8.83306 8.16205C8.83303 8.16203 8.83289 8.16196 8.83283 8.16192C8.8327 8.16185 8.83263 8.16181 8.83261 8.1618C8.83257 8.16179 8.83275 8.16188 8.83315 8.1621C8.83394 8.16253 8.83558 8.16343 8.83805 8.16479C8.84298 8.16752 8.85119 8.17211 8.86241 8.17853C8.88487 8.19138 8.91932 8.21152 8.96365 8.23877C9.05245 8.29334 9.18016 8.37595 9.33014 8.48494C9.63195 8.70428 10.0143 9.02353 10.3512 9.42819C11.0186 10.2299 11.4779 11.3153 10.8609 12.6692L11.7708 13.0839C12.601 11.2625 11.9372 9.77036 11.1197 8.78838C10.7141 8.3012 10.2635 7.92707 9.91802 7.67599C9.74434 7.54977 9.59481 7.45291 9.48726 7.38681C9.43343 7.35373 9.38994 7.32824 9.359 7.31054C9.34352 7.30169 9.33117 7.29477 9.32221 7.28981C9.31774 7.28734 9.3141 7.28535 9.31135 7.28385C9.30998 7.2831 9.30883 7.28248 9.3079 7.28197C9.30743 7.28172 9.30702 7.2815 9.30667 7.28131C9.30649 7.28122 9.30627 7.2811 9.30618 7.28105C9.30598 7.28094 9.30578 7.28084 9.06958 7.72153ZM28.408 23.3809L1.76635 18.8418L1.59839 19.8276L28.24 24.3667L28.408 23.3809ZM22.179 28.6323L5.86171 25.8139L5.69151 26.7993L22.0088 29.6177L22.179 28.6323ZM26.0644 25.9917L3.27963 22.1052L3.11148 23.091L25.8963 26.9775L26.0644 25.9917Z" fill="#333333"/>
</g>
<defs>
<clipPath id="clip0_2_3005">
<rect width="32" height="32" fill="white"/>
</clipPath>
</defs>
</svg>
