<svg width="32" height="32" viewBox="0 0 32 32" fill="none" xmlns="http://www.w3.org/2000/svg">
<path d="M29.4775 20.9422C29.4775 20.9422 18.4721 27.8432 2.59595 20.4445M29.4775 24.4977C29.4775 24.4977 18.4721 31.3987 2.59595 24M29.4775 28.0533C29.4775 28.0533 18.4721 34.9543 2.59595 27.5556M7.11023 7.11112L11.0872 10.5642C11.0872 10.5642 12.792 11.908 13.2018 13.9347C13.2018 13.9347 14.0433 17.8315 17.8519 19.9927C17.8519 19.9927 21.0157 21.7339 25.3325 20.3622M16.5588 11.7073C16.5588 11.7073 17.9793 10.5903 20.5069 11.3147M15.693 9.09182C15.693 9.09182 17.1134 7.97483 19.641 8.69921M17.2976 14.2068C17.2976 14.2068 18.7404 13.5045 21.296 13.9635M10.7033 1.93628C10.7033 1.93628 11.9671 -1.08291 15.1267 3.13068M10.6096 2.0583L6.61123 7.85889C5.40332 9.99333 7.45564 10.95 9.74284 12.5923C11.482 13.842 11.8455 16.0538 11.8455 16.0538C13.9258 23.7289 23.343 22.9769 23.343 22.9769C26.2621 22.6673 25.7644 20.9973 25.7644 20.9973C26.1838 18.8131 23.5275 17.5358 22.739 16.7837C21.9506 16.0317 21.6877 14.9866 21.6877 14.9866C21.6877 14.9866 18.8189 6.50413 18.6624 4.52452C18.5058 2.54491 17.3482 2.49515 16.6883 2.49515C15.8327 2.49515 15.5028 2.64997 15.212 3.37989C13.9863 5.7981 10.6096 2.0583 10.6096 2.0583Z" stroke="#333333" stroke-miterlimit="10" stroke-linecap="round"/>
</svg>
