<svg width="32" height="32" viewBox="0 0 32 32" fill="none" xmlns="http://www.w3.org/2000/svg">
<g clip-path="url(#clip0_2_2957)">
<path d="M13.4946 18.7475V22.3876M17.9506 18.7475V22.3876M2.91894 10.301C1.23599 11.1998 1.00012 16.0001 1.00012 16.0001C1.00012 24.2809 7.7128 31 16.0001 31C24.2873 31 31 24.2873 31 16.0001C31 7.7128 24.2809 1.00012 16.0001 1.00012V10.2372M9.40211 5.02259C9.40211 5.02259 4.69112 6.5143 2.56193 11.442M1.96894 11.4418C1.96894 11.4418 1.91794 1.01265 13.2715 1.42064C13.2715 1.42064 11.5885 3.65183 11.7925 5.65352C11.9965 7.65521 8.80912 12.6849 1.96894 11.4418ZM10.5686 18.4287V14.6484C10.5686 14.6484 10.6133 10.237 15.6111 10.237C20.609 10.237 20.8767 14.0619 20.8767 14.0619V18.384L10.575 18.4287H10.5686Z" stroke="#333333" stroke-linecap="round" stroke-linejoin="round"/>
</g>
<defs>
<clipPath id="clip0_2_2957">
<rect width="32" height="32" fill="white"/>
</clipPath>
</defs>
</svg>
