<svg width="32" height="32" viewBox="0 0 32 32" fill="none" xmlns="http://www.w3.org/2000/svg">
<path d="M7.31 21.42C6.65 21.42 6.11 21.96 6.11 22.62C6.11 23.28 6.65 23.82 7.31 23.82C7.97 23.82 8.51 23.28 8.51 22.62C8.51 21.96 7.97 21.42 7.31 21.42Z" fill="#333333"/>
<path d="M31.78 27.97C31.92 27.83 32 27.64 32 27.44V24.58C32 24.38 31.92 24.19 31.78 24.05C31.64 23.91 31.45 23.83 31.25 23.83H30.27C30.27 23.02 30.07 22.39 29.69 21.95C29.37 21.58 28.97 21.4 28.6 21.36C28.57 21.36 28.54 21.34 28.51 21.34H24.29C24.29 21.34 24.26 21.34 24.22 21.34C24.1 21.34 23.92 21.36 23.72 21.43C23.42 21.53 23.06 21.79 22.84 22.19C22.61 22.6 22.49 23.12 22.49 23.8C22.49 23.81 22.49 23.82 22.49 23.83H12.32C12.38 23.5 12.42 23.15 12.42 22.8C12.42 21.32 11.85 19.98 10.91 19C10.23 18.29 9.36 17.78 8.37 17.55L9.76 14.56L9.97 15.23C10.09 15.63 10.51 15.85 10.91 15.72C11.31 15.6 11.53 15.18 11.4 14.78L10.12 10.67C10 10.27 9.58 10.05 9.18 10.18C8.78 10.31 8.56 10.72 8.69 11.12L9.1 12.44C9.1 12.44 9.08 12.46 9.07 12.48L6.77 17.45C5.51 17.56 4.37 18.14 3.54 19.01C2.6 19.99 2.03 21.33 2.03 22.81C2.03 24.29 2.62 25.62 3.55 26.59L1.15 30.5H0.75C0.34 30.5 0 30.84 0 31.25C0 31.66 0.34 32 0.75 32H5.35C5.76 32 6.1 31.66 6.1 31.25C6.1 30.84 5.76 30.5 5.35 30.5H5.23L6.67 28.15L25.6 28.18L26.92 30.5H26.48C26.07 30.5 25.73 30.84 25.73 31.25C25.73 31.66 26.07 32 26.48 32H31.08C31.49 32 31.83 31.66 31.83 31.25C31.83 30.84 31.49 30.5 31.08 30.5H30.8L29.48 28.19H31.25C31.45 28.19 31.64 28.12 31.78 27.97ZM3.48 30.5H2.91L4.74 27.53C4.88 27.61 5.03 27.66 5.17 27.73L3.48 30.5ZM7.31 25.32C5.82 25.32 4.61 24.11 4.61 22.62C4.61 21.13 5.82 19.92 7.31 19.92C8.8 19.92 10.01 21.13 10.01 22.62C10.01 24.11 8.8 25.32 7.31 25.32ZM28.65 30.5L27.33 28.19H27.75L29.07 30.5H28.64H28.65Z" fill="#333333"/>
</svg>
