<svg width="32" height="32" viewBox="0 0 32 32" fill="none" xmlns="http://www.w3.org/2000/svg">
<g clip-path="url(#clip0_1_80)">
<path d="M31.545 26.76C31.405 26.55 31.175 26.43 30.925 26.43H5.60502L8.58502 16.92H19.385C19.725 16.92 20.015 16.7 20.105 16.38L20.695 14.34C20.755 14.11 20.715 13.87 20.575 13.68C20.435 13.49 20.215 13.38 19.975 13.38H7.03502L4.85502 8.82002C4.67502 8.45002 4.22502 8.29002 3.85502 8.47002C3.48502 8.65002 3.32502 9.10002 3.50502 9.47002L5.57502 13.81C5.57502 13.81 5.53502 13.87 5.52502 13.9L1.50502 26.84L0.385022 29.15C0.275022 29.38 0.285022 29.66 0.425022 29.88C0.565022 30.1 0.805022 30.23 1.06502 30.23H4.12502L4.76502 31.57C4.88502 31.83 5.15502 32 5.44502 32H8.05502C8.39502 32 8.69502 31.77 8.77502 31.45L9.10502 30.24H23.685L24.335 31.58C24.455 31.84 24.725 32 25.015 32H27.625C27.965 32 28.255 31.77 28.345 31.45L28.675 30.24H30.005C30.315 30.24 30.585 30.06 30.695 29.77L31.635 27.47C31.725 27.24 31.705 26.98 31.565 26.77H31.545V26.76ZM7.46502 30.49H5.89502L5.76502 30.23H7.53502L7.46502 30.49ZM27.025 30.49H25.455L25.325 30.23H27.085L27.015 30.49H27.025Z" fill="#333333"/>
</g>
<defs>
<clipPath id="clip0_1_80">
<rect width="32" height="32" fill="white"/>
</clipPath>
</defs>
</svg>
