<svg width="32" height="32" viewBox="0 0 32 32" fill="none" xmlns="http://www.w3.org/2000/svg">
<g clip-path="url(#clip0_2_2795)">
<path d="M0.6875 27.35H5.29218M26.4138 27.35H31.0185M30.14 27.0591L28.2523 23.7603M28.0233 27.1332L26.1418 23.8282M3.83164 27.3558L6.04462 23.7324M1.66547 27.09L4.3144 22.7824M7.2892 14.0794L9.69281 8.89326M9.34315 7L10.6249 11.1142M28.4517 18.1958H28.4044M28.4044 18.1958H28.2833M28.4044 18.1958C28.3618 18.1925 28.3212 18.1927 28.2833 18.1958M28.4044 18.1958C28.8837 18.2331 29.609 18.7142 29.423 20.4672H23.2095C22.9805 17.9916 24.2307 18.1958 24.2307 18.1958H28.2833M2.7176 18.9077C2.7176 16.3454 4.70538 14.272 7.16193 14.272C9.61848 14.272 11.6063 16.3454 11.6063 18.9077C11.6063 19.539 11.4876 20.1393 11.268 20.6839H31.1874V23.5433L6.58043 23.5C4.40276 23.2029 2.7176 21.2657 2.7176 18.9077ZM5.29216 18.7221C5.29216 19.7999 6.16593 20.6737 7.24377 20.6737C8.32161 20.6737 9.19538 19.7999 9.19538 18.7221C9.19538 17.6442 8.32161 16.7705 7.24377 16.7705C6.16593 16.7705 5.29216 17.6442 5.29216 18.7221Z" stroke="#333333" stroke-width="1.5" stroke-linecap="round" stroke-linejoin="round"/>
</g>
<defs>
<clipPath id="clip0_2_2795">
<rect width="32" height="32" fill="white"/>
</clipPath>
</defs>
</svg>
